<svg xmlns="http://www.w3.org/2000/svg" width="600" height="480" viewBox="0 0 600 480">
  <defs>
    <filter id="sh" x="-20%" y="-20%" width="140%" height="160%">
      <feDropShadow dx="0" dy="6" stdDeviation="14" flood-color="#000" flood-opacity="0.15"/>
    </filter>
  </defs>
  <rect width="600" height="480" fill="#fff"/>
  <ellipse cx="263" cy="363" rx="195" ry="14" fill="#000" opacity="0.05"/>
  <g filter="url(#sh)">
    <!-- top face -->
    <polygon points="435.4,212.8 188.1,70.0 164.6,83.6 411.9,226.4" fill="#17192a"/>
    <!-- left edge -->
    <polygon points="435.4,396.4 435.4,212.8 411.9,226.4 411.9,410.0" fill="#1d1f2f"/>
    <!-- back face (main) -->
    <polygon points="435.4,396.4 188.1,253.6 188.1,70.0 435.4,212.8" fill="#12131e"/>
  </g>
  <polygon points="417.8,365.8 205.8,243.4 205.8,100.6 417.8,223.0" fill="#1a1c2a" stroke="none"/><polygon points="414.8,360.7 208.7,241.7 208.7,105.7 414.8,224.7" fill="#1e2130" stroke="none"/><polygon points="332.4,323.3 291.2,299.5 291.2,273.7 332.4,297.5" fill="#333648" stroke="none"/><circle cx="320.0" cy="303.2" r="7" fill="#555870"/><circle cx="311.8" cy="298.5" r="7" fill="#555870"/><circle cx="303.5" cy="293.7" r="7" fill="#555870"/><polygon points="411.9,369.2 383.6,352.9 383.6,332.5 411.9,348.8" fill="#333648" stroke="none"/><polygon points="411.9,366.5 383.6,350.2 383.6,343.4 411.9,359.7" fill="#444860" stroke="none"/><polygon points="411.9,357.0 383.6,340.6 383.6,335.2 411.9,351.5" fill="#444860" stroke="none"/><circle cx="217.6" cy="246.8" r="12" fill="#2e3145"/><circle cx="217.6" cy="246.8" r="7" fill="#555870"/><circle cx="417.8" cy="365.8" r="8" fill="#222433"/><circle cx="417.8" cy="365.8" r="3" fill="#444860"/><circle cx="205.8" cy="243.4" r="8" fill="#222433"/><circle cx="205.8" cy="243.4" r="3" fill="#444860"/><circle cx="417.8" cy="223.0" r="8" fill="#222433"/><circle cx="417.8" cy="223.0" r="3" fill="#444860"/><circle cx="205.8" cy="100.6" r="8" fill="#222433"/><circle cx="205.8" cy="100.6" r="3" fill="#444860"/><circle cx="311.8" cy="304.6" r="8" fill="#222433"/><circle cx="311.8" cy="304.6" r="3" fill="#444860"/><polygon points="400.1,321.6 223.4,219.6 223.4,216.2 400.1,318.2" fill="#151724" stroke="none"/><polygon points="400.1,311.4 223.4,209.4 223.4,206.0 400.1,308.0" fill="#151724" stroke="none"/><polygon points="400.1,301.2 223.4,199.2 223.4,195.8 400.1,297.8" fill="#151724" stroke="none"/><polygon points="400.1,291.0 223.4,189.0 223.4,185.6 400.1,287.6" fill="#151724" stroke="none"/><polygon points="400.1,280.8 223.4,178.8 223.4,175.4 400.1,277.4" fill="#151724" stroke="none"/><polygon points="400.1,270.6 223.4,168.6 223.4,165.2 400.1,267.2" fill="#151724" stroke="none"/><polygon points="400.1,260.4 223.4,158.4 223.4,155.0 400.1,257.0" fill="#151724" stroke="none"/><polygon points="400.1,250.2 223.4,148.2 223.4,144.8 400.1,246.8" fill="#151724" stroke="none"/><polygon points="400.1,240.0 223.4,138.0 223.4,134.6 400.1,236.6" fill="#151724" stroke="none"/><polygon points="400.1,229.8 223.4,127.8 223.4,124.4 400.1,226.4" fill="#151724" stroke="none"/>
  <!-- series color accent on left edge -->
  <polygon points="435.4,396.4 435.4,212.8 411.9,226.4 411.9,410.0" fill="#E6007E" opacity="0.25"/>
</svg>