<svg xmlns="http://www.w3.org/2000/svg" width="600" height="480" viewBox="0 0 600 480">
  <defs>
    <radialGradient id="fg" cx="312" cy="233" r="200" gradientUnits="userSpaceOnUse">
      <stop offset="0%" stop-color="#E6007E" stop-opacity="0.30"/>
      <stop offset="55%" stop-color="#0c0d14" stop-opacity="1"/>
      <stop offset="100%" stop-color="#080910" stop-opacity="1"/>
    </radialGradient>
    <linearGradient id="rg" x1="435.4,396.4" y1="0" x2="411.9,410.0" y2="0" gradientUnits="userSpaceOnUse">
      <stop offset="0%" stop-color="#E6007E"/>
      <stop offset="100%" stop-color="rgb(104,0,57)"/>
    </linearGradient>
    <filter id="sh" x="-20%" y="-20%" width="140%" height="160%">
      <feDropShadow dx="0" dy="6" stdDeviation="14" flood-color="#E6007E" flood-opacity="0.18"/>
    </filter>
  </defs>
  <rect width="600" height="480" fill="#fff"/>
  <!-- ground shadow -->
  <ellipse cx="NaN" cy="NaN" rx="195" ry="14" fill="#E6007E" opacity="0.07"/>
  <g filter="url(#sh)">
    <!-- top face -->
    <polygon points="188.1,70.0 435.4,212.8 411.9,226.4 164.6,83.6" fill="#17192a" stroke="none"/>
    <!-- right edge accent -->
    <polygon points="435.4,396.4 435.4,212.8 411.9,226.4 411.9,410.0" fill="url(#rg)" stroke="none"/>
    <!-- front face -->
    <polygon points="188.1,253.6 435.4,396.4 435.4,212.8 188.1,70.0" fill="url(#fg)" stroke="none"/>
  </g>
  <circle cx="188.1" cy="253.6" r="1.7" fill="#E6007E" opacity="0.26"/><circle cx="201.1" cy="261.1" r="1.7" fill="#E6007E" opacity="0.30"/><circle cx="214.0" cy="268.6" r="1.7" fill="#E6007E" opacity="0.34"/><circle cx="227.0" cy="276.0" r="1.7" fill="#E6007E" opacity="0.37"/><circle cx="239.9" cy="283.5" r="1.7" fill="#E6007E" opacity="0.40"/><circle cx="252.9" cy="291.0" r="1.7" fill="#E6007E" opacity="0.42"/><circle cx="265.8" cy="298.5" r="2.2" fill="#E6007E" opacity="0.43"/><circle cx="278.8" cy="306.0" r="2.2" fill="#E6007E" opacity="0.43"/><circle cx="291.8" cy="313.4" r="1.7" fill="#E6007E" opacity="0.42"/><circle cx="304.7" cy="320.9" r="1.7" fill="#E6007E" opacity="0.40"/><circle cx="317.7" cy="328.4" r="1.7" fill="#E6007E" opacity="0.37"/><circle cx="330.6" cy="335.9" r="1.7" fill="#E6007E" opacity="0.34"/><circle cx="343.6" cy="343.4" r="1.7" fill="#E6007E" opacity="0.30"/><circle cx="356.5" cy="350.8" r="1.7" fill="#E6007E" opacity="0.25"/><circle cx="369.5" cy="358.3" r="1.7" fill="#E6007E" opacity="0.21"/><circle cx="382.4" cy="365.8" r="1.3" fill="#E6007E" opacity="0.16"/><circle cx="395.4" cy="373.3" r="1.3" fill="#E6007E" opacity="0.11"/><circle cx="408.4" cy="380.8" r="1.3" fill="#E6007E" opacity="0.06"/><circle cx="421.3" cy="388.2" r="1.3" fill="#E6007E" opacity="0.06"/><circle cx="434.3" cy="395.7" r="1.3" fill="#E6007E" opacity="0.06"/><circle cx="188.1" cy="238.6" r="1.7" fill="#E6007E" opacity="0.26"/><circle cx="201.1" cy="246.1" r="1.7" fill="#E6007E" opacity="0.31"/><circle cx="214.0" cy="253.6" r="1.7" fill="#E6007E" opacity="0.36"/><circle cx="227.0" cy="261.1" r="1.7" fill="#E6007E" opacity="0.40"/><circle cx="239.9" cy="268.6" r="1.7" fill="#E6007E" opacity="0.43"/><circle cx="252.9" cy="276.0" r="2.2" fill="#E6007E" opacity="0.46"/><circle cx="265.8" cy="283.5" r="2.2" fill="#E6007E" opacity="0.48"/><circle cx="278.8" cy="291.0" r="2.2" fill="#E6007E" opacity="0.49"/><circle cx="291.8" cy="298.5" r="2.2" fill="#E6007E" opacity="0.48"/><circle cx="304.7" cy="306.0" r="2.2" fill="#E6007E" opacity="0.46"/><circle cx="317.7" cy="313.4" r="1.7" fill="#E6007E" opacity="0.43"/><circle cx="330.6" cy="320.9" r="1.7" fill="#E6007E" opacity="0.40"/><circle cx="343.6" cy="328.4" r="1.7" fill="#E6007E" opacity="0.35"/><circle cx="356.5" cy="335.9" r="1.7" fill="#E6007E" opacity="0.31"/><circle cx="369.5" cy="343.4" r="1.7" fill="#E6007E" opacity="0.26"/><circle cx="382.4" cy="350.8" r="1.7" fill="#E6007E" opacity="0.21"/><circle cx="395.4" cy="358.3" r="1.3" fill="#E6007E" opacity="0.16"/><circle cx="408.4" cy="365.8" r="1.3" fill="#E6007E" opacity="0.10"/><circle cx="421.3" cy="373.3" r="1.3" fill="#E6007E" opacity="0.06"/><circle cx="434.3" cy="380.8" r="1.3" fill="#E6007E" opacity="0.06"/><circle cx="188.1" cy="223.7" r="1.7" fill="#E6007E" opacity="0.26"/><circle cx="201.1" cy="231.2" r="1.7" fill="#E6007E" opacity="0.31"/><circle cx="214.0" cy="238.6" r="1.7" fill="#E6007E" opacity="0.36"/><circle cx="227.0" cy="246.1" r="1.7" fill="#E6007E" opacity="0.41"/><circle cx="239.9" cy="253.6" r="2.2" fill="#E6007E" opacity="0.46"/><circle cx="252.9" cy="261.1" r="2.2" fill="#E6007E" opacity="0.49"/><circle cx="265.8" cy="268.6" r="2.2" fill="#E6007E" opacity="0.52"/><circle cx="278.8" cy="276.0" r="2.2" fill="#E6007E" opacity="0.54"/><circle cx="291.8" cy="283.5" r="2.2" fill="#E6007E" opacity="0.54"/><circle cx="304.7" cy="291.0" r="2.2" fill="#E6007E" opacity="0.52"/><circle cx="317.7" cy="298.5" r="2.2" fill="#E6007E" opacity="0.49"/><circle cx="330.6" cy="306.0" r="2.2" fill="#E6007E" opacity="0.45"/><circle cx="343.6" cy="313.4" r="1.7" fill="#E6007E" opacity="0.41"/><circle cx="356.5" cy="320.9" r="1.7" fill="#E6007E" opacity="0.36"/><circle cx="369.5" cy="328.4" r="1.7" fill="#E6007E" opacity="0.31"/><circle cx="382.4" cy="335.9" r="1.7" fill="#E6007E" opacity="0.26"/><circle cx="395.4" cy="343.4" r="1.7" fill="#E6007E" opacity="0.20"/><circle cx="408.4" cy="350.8" r="1.3" fill="#E6007E" opacity="0.15"/><circle cx="421.3" cy="358.3" r="1.3" fill="#E6007E" opacity="0.09"/><circle cx="434.3" cy="365.8" r="1.3" fill="#E6007E" opacity="0.06"/><circle cx="188.1" cy="208.7" r="1.7" fill="#E6007E" opacity="0.25"/><circle cx="201.1" cy="216.2" r="1.7" fill="#E6007E" opacity="0.31"/><circle cx="214.0" cy="223.7" r="1.7" fill="#E6007E" opacity="0.36"/><circle cx="227.0" cy="231.2" r="1.7" fill="#E6007E" opacity="0.42"/><circle cx="239.9" cy="238.6" r="2.2" fill="#E6007E" opacity="0.47"/><circle cx="252.9" cy="246.1" r="2.2" fill="#E6007E" opacity="0.51"/><circle cx="265.8" cy="253.6" r="2.2" fill="#E6007E" opacity="0.55"/><circle cx="278.8" cy="261.1" r="2.2" fill="#E6007E" opacity="0.58"/><circle cx="291.8" cy="268.6" r="2.2" fill="#E6007E" opacity="0.59"/><circle cx="304.7" cy="276.0" r="2.2" fill="#E6007E" opacity="0.58"/><circle cx="317.7" cy="283.5" r="2.2" fill="#E6007E" opacity="0.55"/><circle cx="330.6" cy="291.0" r="2.2" fill="#E6007E" opacity="0.51"/><circle cx="343.6" cy="298.5" r="2.2" fill="#E6007E" opacity="0.46"/><circle cx="356.5" cy="306.0" r="1.7" fill="#E6007E" opacity="0.41"/><circle cx="369.5" cy="313.4" r="1.7" fill="#E6007E" opacity="0.36"/><circle cx="382.4" cy="320.9" r="1.7" fill="#E6007E" opacity="0.31"/><circle cx="395.4" cy="328.4" r="1.7" fill="#E6007E" opacity="0.25"/><circle cx="408.4" cy="335.9" r="1.3" fill="#E6007E" opacity="0.19"/><circle cx="421.3" cy="343.4" r="1.3" fill="#E6007E" opacity="0.14"/><circle cx="434.3" cy="350.8" r="1.3" fill="#E6007E" opacity="0.08"/><circle cx="188.1" cy="193.8" r="1.7" fill="#E6007E" opacity="0.24"/><circle cx="201.1" cy="201.2" r="1.7" fill="#E6007E" opacity="0.30"/><circle cx="214.0" cy="208.7" r="1.7" fill="#E6007E" opacity="0.35"/><circle cx="227.0" cy="216.2" r="1.7" fill="#E6007E" opacity="0.41"/><circle cx="239.9" cy="223.7" r="2.2" fill="#E6007E" opacity="0.46"/><circle cx="252.9" cy="231.2" r="2.2" fill="#E6007E" opacity="0.52"/><circle cx="265.8" cy="238.6" r="2.2" fill="#E6007E" opacity="0.57"/><circle cx="278.8" cy="246.1" r="2.2" fill="#E6007E" opacity="0.61"/><circle cx="291.8" cy="253.6" r="2.2" fill="#E6007E" opacity="0.64"/><circle cx="304.7" cy="261.1" r="2.2" fill="#E6007E" opacity="0.64"/><circle cx="317.7" cy="268.6" r="2.2" fill="#E6007E" opacity="0.61"/><circle cx="330.6" cy="276.0" r="2.2" fill="#E6007E" opacity="0.57"/><circle cx="343.6" cy="283.5" r="2.2" fill="#E6007E" opacity="0.52"/><circle cx="356.5" cy="291.0" r="2.2" fill="#E6007E" opacity="0.46"/><circle cx="369.5" cy="298.5" r="1.7" fill="#E6007E" opacity="0.41"/><circle cx="382.4" cy="306.0" r="1.7" fill="#E6007E" opacity="0.35"/><circle cx="395.4" cy="313.4" r="1.7" fill="#E6007E" opacity="0.29"/><circle cx="408.4" cy="320.9" r="1.7" fill="#E6007E" opacity="0.23"/><circle cx="421.3" cy="328.4" r="1.3" fill="#E6007E" opacity="0.18"/><circle cx="434.3" cy="335.9" r="1.3" fill="#E6007E" opacity="0.12"/><circle cx="188.1" cy="178.8" r="1.7" fill="#E6007E" opacity="0.22"/><circle cx="201.1" cy="186.3" r="1.7" fill="#E6007E" opacity="0.28"/><circle cx="214.0" cy="193.8" r="1.7" fill="#E6007E" opacity="0.33"/><circle cx="227.0" cy="201.2" r="1.7" fill="#E6007E" opacity="0.39"/><circle cx="239.9" cy="208.7" r="2.2" fill="#E6007E" opacity="0.45"/><circle cx="252.9" cy="216.2" r="2.2" fill="#E6007E" opacity="0.51"/><circle cx="265.8" cy="223.7" r="2.2" fill="#E6007E" opacity="0.56"/><circle cx="278.8" cy="231.2" r="2.2" fill="#E6007E" opacity="0.62"/><circle cx="291.8" cy="238.6" r="2.2" fill="#E6007E" opacity="0.67"/><circle cx="304.7" cy="246.1" r="2.2" fill="#E6007E" opacity="0.69"/><circle cx="317.7" cy="253.6" r="2.2" fill="#E6007E" opacity="0.67"/><circle cx="330.6" cy="261.1" r="2.2" fill="#E6007E" opacity="0.62"/><circle cx="343.6" cy="268.6" r="2.2" fill="#E6007E" opacity="0.56"/><circle cx="356.5" cy="276.0" r="2.2" fill="#E6007E" opacity="0.51"/><circle cx="369.5" cy="283.5" r="2.2" fill="#E6007E" opacity="0.45"/><circle cx="382.4" cy="291.0" r="1.7" fill="#E6007E" opacity="0.39"/><circle cx="395.4" cy="298.5" r="1.7" fill="#E6007E" opacity="0.33"/><circle cx="408.4" cy="306.0" r="1.7" fill="#E6007E" opacity="0.27"/><circle cx="421.3" cy="313.4" r="1.7" fill="#E6007E" opacity="0.21"/><circle cx="434.3" cy="320.9" r="1.3" fill="#E6007E" opacity="0.16"/><circle cx="188.1" cy="163.8" r="1.3" fill="#E6007E" opacity="0.19"/><circle cx="201.1" cy="171.3" r="1.7" fill="#E6007E" opacity="0.25"/><circle cx="214.0" cy="178.8" r="1.7" fill="#E6007E" opacity="0.31"/><circle cx="227.0" cy="186.3" r="1.7" fill="#E6007E" opacity="0.37"/><circle cx="239.9" cy="193.8" r="1.7" fill="#E6007E" opacity="0.43"/><circle cx="252.9" cy="201.2" r="2.2" fill="#E6007E" opacity="0.49"/><circle cx="265.8" cy="208.7" r="2.2" fill="#E6007E" opacity="0.54"/><circle cx="278.8" cy="216.2" r="2.2" fill="#E6007E" opacity="0.60"/><circle cx="291.8" cy="223.7" r="2.2" fill="#E6007E" opacity="0.66"/><circle cx="304.7" cy="231.2" r="2.2" fill="#E6007E" opacity="0.72"/><circle cx="317.7" cy="238.6" r="2.2" fill="#E6007E" opacity="0.72"/><circle cx="330.6" cy="246.1" r="2.2" fill="#E6007E" opacity="0.66"/><circle cx="343.6" cy="253.6" r="2.2" fill="#E6007E" opacity="0.60"/><circle cx="356.5" cy="261.1" r="2.2" fill="#E6007E" opacity="0.54"/><circle cx="369.5" cy="268.6" r="2.2" fill="#E6007E" opacity="0.48"/><circle cx="382.4" cy="276.0" r="1.7" fill="#E6007E" opacity="0.42"/><circle cx="395.4" cy="283.5" r="1.7" fill="#E6007E" opacity="0.36"/><circle cx="408.4" cy="291.0" r="1.7" fill="#E6007E" opacity="0.31"/><circle cx="421.3" cy="298.5" r="1.7" fill="#E6007E" opacity="0.25"/><circle cx="434.3" cy="306.0" r="1.3" fill="#E6007E" opacity="0.19"/><circle cx="188.1" cy="148.9" r="1.3" fill="#E6007E" opacity="0.16"/><circle cx="201.1" cy="156.4" r="1.7" fill="#E6007E" opacity="0.22"/><circle cx="214.0" cy="163.8" r="1.7" fill="#E6007E" opacity="0.28"/><circle cx="227.0" cy="171.3" r="1.7" fill="#E6007E" opacity="0.34"/><circle cx="239.9" cy="178.8" r="1.7" fill="#E6007E" opacity="0.39"/><circle cx="252.9" cy="186.3" r="2.2" fill="#E6007E" opacity="0.45"/><circle cx="265.8" cy="193.8" r="2.2" fill="#E6007E" opacity="0.51"/><circle cx="278.8" cy="201.2" r="2.2" fill="#E6007E" opacity="0.57"/><circle cx="291.8" cy="208.7" r="2.2" fill="#E6007E" opacity="0.63"/><circle cx="304.7" cy="216.2" r="2.2" fill="#E6007E" opacity="0.68"/><circle cx="317.7" cy="223.7" r="2.2" fill="#E6007E" opacity="0.71"/><circle cx="330.6" cy="231.2" r="2.2" fill="#E6007E" opacity="0.68"/><circle cx="343.6" cy="238.6" r="2.2" fill="#E6007E" opacity="0.62"/><circle cx="356.5" cy="246.1" r="2.2" fill="#E6007E" opacity="0.57"/><circle cx="369.5" cy="253.6" r="2.2" fill="#E6007E" opacity="0.51"/><circle cx="382.4" cy="261.1" r="2.2" fill="#E6007E" opacity="0.45"/><circle cx="395.4" cy="268.6" r="1.7" fill="#E6007E" opacity="0.39"/><circle cx="408.4" cy="276.0" r="1.7" fill="#E6007E" opacity="0.33"/><circle cx="421.3" cy="283.5" r="1.7" fill="#E6007E" opacity="0.27"/><circle cx="434.3" cy="291.0" r="1.7" fill="#E6007E" opacity="0.22"/><circle cx="188.1" cy="133.9" r="1.3" fill="#E6007E" opacity="0.12"/><circle cx="201.1" cy="141.4" r="1.3" fill="#E6007E" opacity="0.18"/><circle cx="214.0" cy="148.9" r="1.7" fill="#E6007E" opacity="0.24"/><circle cx="227.0" cy="156.4" r="1.7" fill="#E6007E" opacity="0.30"/><circle cx="239.9" cy="163.8" r="1.7" fill="#E6007E" opacity="0.36"/><circle cx="252.9" cy="171.3" r="1.7" fill="#E6007E" opacity="0.41"/><circle cx="265.8" cy="178.8" r="2.2" fill="#E6007E" opacity="0.47"/><circle cx="278.8" cy="186.3" r="2.2" fill="#E6007E" opacity="0.52"/><circle cx="291.8" cy="193.8" r="2.2" fill="#E6007E" opacity="0.58"/><circle cx="304.7" cy="201.2" r="2.2" fill="#E6007E" opacity="0.62"/><circle cx="317.7" cy="208.7" r="2.2" fill="#E6007E" opacity="0.65"/><circle cx="330.6" cy="216.2" r="2.2" fill="#E6007E" opacity="0.65"/><circle cx="343.6" cy="223.7" r="2.2" fill="#E6007E" opacity="0.62"/><circle cx="356.5" cy="231.2" r="2.2" fill="#E6007E" opacity="0.57"/><circle cx="369.5" cy="238.6" r="2.2" fill="#E6007E" opacity="0.52"/><circle cx="382.4" cy="246.1" r="2.2" fill="#E6007E" opacity="0.47"/><circle cx="395.4" cy="253.6" r="1.7" fill="#E6007E" opacity="0.41"/><circle cx="408.4" cy="261.1" r="1.7" fill="#E6007E" opacity="0.35"/><circle cx="421.3" cy="268.6" r="1.7" fill="#E6007E" opacity="0.30"/><circle cx="434.3" cy="276.0" r="1.7" fill="#E6007E" opacity="0.24"/><circle cx="188.1" cy="119.0" r="1.3" fill="#E6007E" opacity="0.09"/><circle cx="201.1" cy="126.4" r="1.3" fill="#E6007E" opacity="0.14"/><circle cx="214.0" cy="133.9" r="1.7" fill="#E6007E" opacity="0.20"/><circle cx="227.0" cy="141.4" r="1.7" fill="#E6007E" opacity="0.26"/><circle cx="239.9" cy="148.9" r="1.7" fill="#E6007E" opacity="0.31"/><circle cx="252.9" cy="156.4" r="1.7" fill="#E6007E" opacity="0.37"/><circle cx="265.8" cy="163.8" r="1.7" fill="#E6007E" opacity="0.42"/><circle cx="278.8" cy="171.3" r="2.2" fill="#E6007E" opacity="0.47"/><circle cx="291.8" cy="178.8" r="2.2" fill="#E6007E" opacity="0.52"/><circle cx="304.7" cy="186.3" r="2.2" fill="#E6007E" opacity="0.56"/><circle cx="317.7" cy="193.8" r="2.2" fill="#E6007E" opacity="0.59"/><circle cx="330.6" cy="201.2" r="2.2" fill="#E6007E" opacity="0.60"/><circle cx="343.6" cy="208.7" r="2.2" fill="#E6007E" opacity="0.59"/><circle cx="356.5" cy="216.2" r="2.2" fill="#E6007E" opacity="0.56"/><circle cx="369.5" cy="223.7" r="2.2" fill="#E6007E" opacity="0.52"/><circle cx="382.4" cy="231.2" r="2.2" fill="#E6007E" opacity="0.47"/><circle cx="395.4" cy="238.6" r="1.7" fill="#E6007E" opacity="0.42"/><circle cx="408.4" cy="246.1" r="1.7" fill="#E6007E" opacity="0.37"/><circle cx="421.3" cy="253.6" r="1.7" fill="#E6007E" opacity="0.31"/><circle cx="434.3" cy="261.1" r="1.7" fill="#E6007E" opacity="0.25"/><circle cx="188.1" cy="104.0" r="1.3" fill="#E6007E" opacity="0.06"/><circle cx="201.1" cy="111.5" r="1.3" fill="#E6007E" opacity="0.10"/><circle cx="214.0" cy="119.0" r="1.3" fill="#E6007E" opacity="0.16"/><circle cx="227.0" cy="126.4" r="1.7" fill="#E6007E" opacity="0.21"/><circle cx="239.9" cy="133.9" r="1.7" fill="#E6007E" opacity="0.27"/><circle cx="252.9" cy="141.4" r="1.7" fill="#E6007E" opacity="0.32"/><circle cx="265.8" cy="148.9" r="1.7" fill="#E6007E" opacity="0.37"/><circle cx="278.8" cy="156.4" r="1.7" fill="#E6007E" opacity="0.42"/><circle cx="291.8" cy="163.8" r="2.2" fill="#E6007E" opacity="0.47"/><circle cx="304.7" cy="171.3" r="2.2" fill="#E6007E" opacity="0.50"/><circle cx="317.7" cy="178.8" r="2.2" fill="#E6007E" opacity="0.53"/><circle cx="330.6" cy="186.3" r="2.2" fill="#E6007E" opacity="0.55"/><circle cx="343.6" cy="193.8" r="2.2" fill="#E6007E" opacity="0.55"/><circle cx="356.5" cy="201.2" r="2.2" fill="#E6007E" opacity="0.53"/><circle cx="369.5" cy="208.7" r="2.2" fill="#E6007E" opacity="0.50"/><circle cx="382.4" cy="216.2" r="2.2" fill="#E6007E" opacity="0.46"/><circle cx="395.4" cy="223.7" r="1.7" fill="#E6007E" opacity="0.42"/><circle cx="408.4" cy="231.2" r="1.7" fill="#E6007E" opacity="0.37"/><circle cx="421.3" cy="238.6" r="1.7" fill="#E6007E" opacity="0.32"/><circle cx="434.3" cy="246.1" r="1.7" fill="#E6007E" opacity="0.26"/><circle cx="188.1" cy="89.0" r="1.3" fill="#E6007E" opacity="0.06"/><circle cx="201.1" cy="96.5" r="1.3" fill="#E6007E" opacity="0.06"/><circle cx="214.0" cy="104.0" r="1.3" fill="#E6007E" opacity="0.11"/><circle cx="227.0" cy="111.5" r="1.3" fill="#E6007E" opacity="0.16"/><circle cx="239.9" cy="119.0" r="1.7" fill="#E6007E" opacity="0.22"/><circle cx="252.9" cy="126.4" r="1.7" fill="#E6007E" opacity="0.27"/><circle cx="265.8" cy="133.9" r="1.7" fill="#E6007E" opacity="0.32"/><circle cx="278.8" cy="141.4" r="1.7" fill="#E6007E" opacity="0.36"/><circle cx="291.8" cy="148.9" r="1.7" fill="#E6007E" opacity="0.41"/><circle cx="304.7" cy="156.4" r="2.2" fill="#E6007E" opacity="0.45"/><circle cx="317.7" cy="163.8" r="2.2" fill="#E6007E" opacity="0.48"/><circle cx="330.6" cy="171.3" r="2.2" fill="#E6007E" opacity="0.49"/><circle cx="343.6" cy="178.8" r="2.2" fill="#E6007E" opacity="0.50"/><circle cx="356.5" cy="186.3" r="2.2" fill="#E6007E" opacity="0.49"/><circle cx="369.5" cy="193.8" r="2.2" fill="#E6007E" opacity="0.47"/><circle cx="382.4" cy="201.2" r="2.2" fill="#E6007E" opacity="0.44"/><circle cx="395.4" cy="208.7" r="1.7" fill="#E6007E" opacity="0.41"/><circle cx="408.4" cy="216.2" r="1.7" fill="#E6007E" opacity="0.36"/><circle cx="421.3" cy="223.7" r="1.7" fill="#E6007E" opacity="0.32"/><circle cx="434.3" cy="231.2" r="1.7" fill="#E6007E" opacity="0.27"/><circle cx="188.1" cy="74.1" r="1.3" fill="#E6007E" opacity="0.06"/><circle cx="201.1" cy="81.6" r="1.3" fill="#E6007E" opacity="0.06"/><circle cx="214.0" cy="89.0" r="1.3" fill="#E6007E" opacity="0.06"/><circle cx="227.0" cy="96.5" r="1.3" fill="#E6007E" opacity="0.12"/><circle cx="239.9" cy="104.0" r="1.3" fill="#E6007E" opacity="0.17"/><circle cx="252.9" cy="111.5" r="1.7" fill="#E6007E" opacity="0.22"/><circle cx="265.8" cy="119.0" r="1.7" fill="#E6007E" opacity="0.26"/><circle cx="278.8" cy="126.4" r="1.7" fill="#E6007E" opacity="0.31"/><circle cx="291.8" cy="133.9" r="1.7" fill="#E6007E" opacity="0.35"/><circle cx="304.7" cy="141.4" r="1.7" fill="#E6007E" opacity="0.39"/><circle cx="317.7" cy="148.9" r="1.7" fill="#E6007E" opacity="0.42"/><circle cx="330.6" cy="156.4" r="2.2" fill="#E6007E" opacity="0.44"/><circle cx="343.6" cy="163.8" r="2.2" fill="#E6007E" opacity="0.45"/><circle cx="356.5" cy="171.3" r="2.2" fill="#E6007E" opacity="0.45"/><circle cx="369.5" cy="178.8" r="2.2" fill="#E6007E" opacity="0.44"/><circle cx="382.4" cy="186.3" r="1.7" fill="#E6007E" opacity="0.42"/><circle cx="395.4" cy="193.8" r="1.7" fill="#E6007E" opacity="0.39"/><circle cx="408.4" cy="201.2" r="1.7" fill="#E6007E" opacity="0.35"/><circle cx="421.3" cy="208.7" r="1.7" fill="#E6007E" opacity="0.31"/><circle cx="434.3" cy="216.2" r="1.7" fill="#E6007E" opacity="0.26"/>
  <!-- center bloom -->
  <circle cx="311.8" cy="233.2" r="60" fill="#E6007E" opacity="0.10"/>
  <circle cx="311.8" cy="233.2" r="28" fill="#E6007E" opacity="0.14"/>
</svg>