<svg xmlns="http://www.w3.org/2000/svg" width="600" height="480" viewBox="0 0 600 480">
  <defs>
    <filter id="sh" x="-20%" y="-20%" width="140%" height="160%">
      <feDropShadow dx="0" dy="6" stdDeviation="14" flood-color="#000" flood-opacity="0.15"/>
    </filter>
  </defs>
  <rect width="600" height="480" fill="#fff"/>
  <ellipse cx="263" cy="364" rx="195" ry="14" fill="#000" opacity="0.05"/>
  <g filter="url(#sh)">
    <!-- top face -->
    <polygon points="436.6,212.1 189.3,69.3 163.4,84.3 410.7,227.1" fill="#17192a"/>
    <!-- left edge -->
    <polygon points="436.6,395.7 436.6,212.1 410.7,227.1 410.7,410.7" fill="#1d1f2f"/>
    <!-- back face (main) -->
    <polygon points="436.6,395.7 189.3,252.9 189.3,69.3 436.6,212.1" fill="#12131e"/>
  </g>
  <polygon points="419.0,365.1 207.0,242.7 207.0,99.9 419.0,222.3" fill="#1a1c2a" stroke="none"/><polygon points="416.0,360.0 209.9,241.0 209.9,105.0 416.0,224.0" fill="#1e2130" stroke="none"/><polygon points="333.6,322.6 292.3,298.8 292.3,273.0 333.6,296.8" fill="#333648" stroke="none"/><circle cx="321.2" cy="302.6" r="7" fill="#555870"/><circle cx="313.0" cy="297.8" r="7" fill="#555870"/><circle cx="304.7" cy="293.0" r="7" fill="#555870"/><polygon points="413.1,368.5 384.8,352.2 384.8,331.8 413.1,348.1" fill="#333648" stroke="none"/><polygon points="413.1,365.8 384.8,349.5 384.8,342.7 413.1,359.0" fill="#444860" stroke="none"/><polygon points="413.1,356.3 384.8,340.0 384.8,334.5 413.1,350.8" fill="#444860" stroke="none"/><circle cx="218.7" cy="246.1" r="12" fill="#2e3145"/><circle cx="218.7" cy="246.1" r="7" fill="#555870"/><circle cx="419.0" cy="365.1" r="8" fill="#222433"/><circle cx="419.0" cy="365.1" r="3" fill="#444860"/><circle cx="207.0" cy="242.7" r="8" fill="#222433"/><circle cx="207.0" cy="242.7" r="3" fill="#444860"/><circle cx="419.0" cy="222.3" r="8" fill="#222433"/><circle cx="419.0" cy="222.3" r="3" fill="#444860"/><circle cx="207.0" cy="99.9" r="8" fill="#222433"/><circle cx="207.0" cy="99.9" r="3" fill="#444860"/><circle cx="313.0" cy="303.9" r="8" fill="#222433"/><circle cx="313.0" cy="303.9" r="3" fill="#444860"/><polygon points="401.3,320.9 224.6,218.9 224.6,215.5 401.3,317.5" fill="#151724" stroke="none"/><polygon points="401.3,310.7 224.6,208.7 224.6,205.3 401.3,307.3" fill="#151724" stroke="none"/><polygon points="401.3,300.5 224.6,198.5 224.6,195.1 401.3,297.1" fill="#151724" stroke="none"/><polygon points="401.3,290.3 224.6,188.3 224.6,184.9 401.3,286.9" fill="#151724" stroke="none"/><polygon points="401.3,280.1 224.6,178.1 224.6,174.7 401.3,276.7" fill="#151724" stroke="none"/><polygon points="401.3,269.9 224.6,167.9 224.6,164.5 401.3,266.5" fill="#151724" stroke="none"/><polygon points="401.3,259.7 224.6,157.7 224.6,154.3 401.3,256.3" fill="#151724" stroke="none"/><polygon points="401.3,249.5 224.6,147.5 224.6,144.1 401.3,246.1" fill="#151724" stroke="none"/><polygon points="401.3,239.3 224.6,137.3 224.6,133.9 401.3,235.9" fill="#151724" stroke="none"/><polygon points="401.3,229.1 224.6,127.1 224.6,123.7 401.3,225.7" fill="#151724" stroke="none"/>
  <!-- series color accent on left edge -->
  <polygon points="436.6,395.7 436.6,212.1 410.7,227.1 410.7,410.7" fill="#00E5FF" opacity="0.25"/>
</svg>