<svg xmlns="http://www.w3.org/2000/svg" width="600" height="480" viewBox="0 0 600 480">
  <defs>
    <filter id="sh" x="-20%" y="-20%" width="140%" height="160%">
      <feDropShadow dx="0" dy="6" stdDeviation="14" flood-color="#000" flood-opacity="0.15"/>
    </filter>
  </defs>
  <rect width="600" height="480" fill="#fff"/>
  <ellipse cx="264" cy="367" rx="195" ry="14" fill="#000" opacity="0.05"/>
  <g filter="url(#sh)">
    <!-- top face -->
    <polygon points="439.6,210.4 192.2,67.6 160.4,86.0 407.8,228.8" fill="#17192a"/>
    <!-- left edge -->
    <polygon points="439.6,394.0 439.6,210.4 407.8,228.8 407.8,412.4" fill="#1d1f2f"/>
    <!-- back face (main) -->
    <polygon points="439.6,394.0 192.2,251.2 192.2,67.6 439.6,210.4" fill="#12131e"/>
  </g>
  <polygon points="421.9,363.4 209.9,241.0 209.9,98.2 421.9,220.6" fill="#1a1c2a" stroke="none"/><polygon points="419.0,358.3 212.8,239.3 212.8,103.3 419.0,222.3" fill="#1e2130" stroke="none"/><polygon points="336.5,320.9 295.3,297.1 295.3,271.3 336.5,295.1" fill="#333648" stroke="none"/><circle cx="324.1" cy="300.9" r="7" fill="#555870"/><circle cx="315.9" cy="296.1" r="7" fill="#555870"/><circle cx="307.7" cy="291.3" r="7" fill="#555870"/><polygon points="416.0,366.8 387.7,350.5 387.7,330.1 416.0,346.4" fill="#333648" stroke="none"/><polygon points="416.0,364.1 387.7,347.8 387.7,341.0 416.0,357.3" fill="#444860" stroke="none"/><polygon points="416.0,354.6 387.7,338.3 387.7,332.8 416.0,349.1" fill="#444860" stroke="none"/><circle cx="221.7" cy="244.4" r="12" fill="#2e3145"/><circle cx="221.7" cy="244.4" r="7" fill="#555870"/><circle cx="421.9" cy="363.4" r="8" fill="#222433"/><circle cx="421.9" cy="363.4" r="3" fill="#444860"/><circle cx="209.9" cy="241.0" r="8" fill="#222433"/><circle cx="209.9" cy="241.0" r="3" fill="#444860"/><circle cx="421.9" cy="220.6" r="8" fill="#222433"/><circle cx="421.9" cy="220.6" r="3" fill="#444860"/><circle cx="209.9" cy="98.2" r="8" fill="#222433"/><circle cx="209.9" cy="98.2" r="3" fill="#444860"/><circle cx="315.9" cy="302.2" r="8" fill="#222433"/><circle cx="315.9" cy="302.2" r="3" fill="#444860"/><polygon points="404.2,319.2 227.6,217.2 227.6,213.8 404.2,315.8" fill="#151724" stroke="none"/><polygon points="404.2,309.0 227.6,207.0 227.6,203.6 404.2,305.6" fill="#151724" stroke="none"/><polygon points="404.2,298.8 227.6,196.8 227.6,193.4 404.2,295.4" fill="#151724" stroke="none"/><polygon points="404.2,288.6 227.6,186.6 227.6,183.2 404.2,285.2" fill="#151724" stroke="none"/><polygon points="404.2,278.4 227.6,176.4 227.6,173.0 404.2,275.0" fill="#151724" stroke="none"/><polygon points="404.2,268.2 227.6,166.2 227.6,162.8 404.2,264.8" fill="#151724" stroke="none"/><polygon points="404.2,258.0 227.6,156.0 227.6,152.6 404.2,254.6" fill="#151724" stroke="none"/><polygon points="404.2,247.8 227.6,145.8 227.6,142.4 404.2,244.4" fill="#151724" stroke="none"/><polygon points="404.2,237.6 227.6,135.6 227.6,132.2 404.2,234.2" fill="#151724" stroke="none"/><polygon points="404.2,227.4 227.6,125.4 227.6,122.0 404.2,224.0" fill="#151724" stroke="none"/>
  <!-- series color accent on left edge -->
  <polygon points="439.6,394.0 439.6,210.4 407.8,228.8 407.8,412.4" fill="#FF6A00" opacity="0.25"/>
</svg>