<svg xmlns="http://www.w3.org/2000/svg" width="600" height="700" viewBox="0 0 600 700">
  <defs>
    <radialGradient id="bg" cx="50%" cy="50%" r="70%">
      <stop offset="0%" stop-color="#0e0f16"/>
      <stop offset="100%" stop-color="#08090d"/>
    </radialGradient>
  </defs>

  <rect width="600" height="700" fill="url(#bg)"/>
  <line x1="0" y1="0" x2="600" y2="0" stroke="#00E5FF" stroke-opacity="0.015" stroke-width="1"/><line x1="0" y1="20" x2="600" y2="20" stroke="#00E5FF" stroke-opacity="0.015" stroke-width="1"/><line x1="0" y1="40" x2="600" y2="40" stroke="#00E5FF" stroke-opacity="0.015" stroke-width="1"/><line x1="0" y1="60" x2="600" y2="60" stroke="#00E5FF" stroke-opacity="0.015" stroke-width="1"/><line x1="0" y1="80" x2="600" y2="80" stroke="#00E5FF" stroke-opacity="0.015" stroke-width="1"/><line x1="0" y1="100" x2="600" y2="100" stroke="#00E5FF" stroke-opacity="0.015" stroke-width="1"/><line x1="0" y1="120" x2="600" y2="120" stroke="#00E5FF" stroke-opacity="0.015" stroke-width="1"/><line x1="0" y1="140" x2="600" y2="140" stroke="#00E5FF" stroke-opacity="0.015" stroke-width="1"/><line x1="0" y1="160" x2="600" y2="160" stroke="#00E5FF" stroke-opacity="0.015" stroke-width="1"/><line x1="0" y1="180" x2="600" y2="180" stroke="#00E5FF" stroke-opacity="0.015" stroke-width="1"/><line x1="0" y1="200" x2="600" y2="200" stroke="#00E5FF" stroke-opacity="0.015" stroke-width="1"/><line x1="0" y1="220" x2="600" y2="220" stroke="#00E5FF" stroke-opacity="0.015" stroke-width="1"/><line x1="0" y1="240" x2="600" y2="240" stroke="#00E5FF" stroke-opacity="0.015" stroke-width="1"/><line x1="0" y1="260" x2="600" y2="260" stroke="#00E5FF" stroke-opacity="0.015" stroke-width="1"/><line x1="0" y1="280" x2="600" y2="280" stroke="#00E5FF" stroke-opacity="0.015" stroke-width="1"/><line x1="0" y1="300" x2="600" y2="300" stroke="#00E5FF" stroke-opacity="0.015" stroke-width="1"/><line x1="0" y1="320" x2="600" y2="320" stroke="#00E5FF" stroke-opacity="0.015" stroke-width="1"/><line x1="0" y1="340" x2="600" y2="340" stroke="#00E5FF" stroke-opacity="0.015" stroke-width="1"/><line x1="0" y1="360" x2="600" y2="360" stroke="#00E5FF" stroke-opacity="0.015" stroke-width="1"/><line x1="0" y1="380" x2="600" y2="380" stroke="#00E5FF" stroke-opacity="0.015" stroke-width="1"/><line x1="0" y1="400" x2="600" y2="400" stroke="#00E5FF" stroke-opacity="0.015" stroke-width="1"/><line x1="0" y1="420" x2="600" y2="420" stroke="#00E5FF" stroke-opacity="0.015" stroke-width="1"/><line x1="0" y1="440" x2="600" y2="440" stroke="#00E5FF" stroke-opacity="0.015" stroke-width="1"/><line x1="0" y1="460" x2="600" y2="460" stroke="#00E5FF" stroke-opacity="0.015" stroke-width="1"/><line x1="0" y1="480" x2="600" y2="480" stroke="#00E5FF" stroke-opacity="0.015" stroke-width="1"/><line x1="0" y1="500" x2="600" y2="500" stroke="#00E5FF" stroke-opacity="0.015" stroke-width="1"/><line x1="0" y1="520" x2="600" y2="520" stroke="#00E5FF" stroke-opacity="0.015" stroke-width="1"/><line x1="0" y1="540" x2="600" y2="540" stroke="#00E5FF" stroke-opacity="0.015" stroke-width="1"/><line x1="0" y1="560" x2="600" y2="560" stroke="#00E5FF" stroke-opacity="0.015" stroke-width="1"/><line x1="0" y1="580" x2="600" y2="580" stroke="#00E5FF" stroke-opacity="0.015" stroke-width="1"/><line x1="0" y1="600" x2="600" y2="600" stroke="#00E5FF" stroke-opacity="0.015" stroke-width="1"/><line x1="0" y1="620" x2="600" y2="620" stroke="#00E5FF" stroke-opacity="0.015" stroke-width="1"/><line x1="0" y1="640" x2="600" y2="640" stroke="#00E5FF" stroke-opacity="0.015" stroke-width="1"/><line x1="0" y1="660" x2="600" y2="660" stroke="#00E5FF" stroke-opacity="0.015" stroke-width="1"/><line x1="0" y1="680" x2="600" y2="680" stroke="#00E5FF" stroke-opacity="0.015" stroke-width="1"/>

  <!-- Cabinet plate -->
  <rect x="50" y="50" width="500" height="600" fill="#0b0c13" stroke="#00E5FF" stroke-opacity="0.3" stroke-width="1.5" rx="3"/>
  <rect x="56" y="56" width="488" height="588" fill="none" stroke="#00E5FF" stroke-opacity="0.08" stroke-width="0.8" rx="2"/>

  <!-- Cooling vents -->
  <rect x="162.5" y="90.0" width="275.0" height="3" rx="1.5" fill="#00E5FF" fill-opacity="0.08" stroke="#00E5FF" stroke-opacity="0.2" stroke-width="0.5"/><rect x="162.5" y="138.0" width="275.0" height="3" rx="1.5" fill="#00E5FF" fill-opacity="0.08" stroke="#00E5FF" stroke-opacity="0.2" stroke-width="0.5"/><rect x="162.5" y="186.0" width="275.0" height="3" rx="1.5" fill="#00E5FF" fill-opacity="0.08" stroke="#00E5FF" stroke-opacity="0.2" stroke-width="0.5"/><rect x="162.5" y="234.0" width="275.0" height="3" rx="1.5" fill="#00E5FF" fill-opacity="0.08" stroke="#00E5FF" stroke-opacity="0.2" stroke-width="0.5"/><rect x="162.5" y="282.0" width="275.0" height="3" rx="1.5" fill="#00E5FF" fill-opacity="0.08" stroke="#00E5FF" stroke-opacity="0.2" stroke-width="0.5"/><rect x="162.5" y="330.0" width="275.0" height="3" rx="1.5" fill="#00E5FF" fill-opacity="0.08" stroke="#00E5FF" stroke-opacity="0.2" stroke-width="0.5"/><rect x="162.5" y="378.0" width="275.0" height="3" rx="1.5" fill="#00E5FF" fill-opacity="0.08" stroke="#00E5FF" stroke-opacity="0.2" stroke-width="0.5"/><rect x="162.5" y="426.0" width="275.0" height="3" rx="1.5" fill="#00E5FF" fill-opacity="0.08" stroke="#00E5FF" stroke-opacity="0.2" stroke-width="0.5"/><rect x="162.5" y="474.0" width="275.0" height="3" rx="1.5" fill="#00E5FF" fill-opacity="0.08" stroke="#00E5FF" stroke-opacity="0.2" stroke-width="0.5"/><rect x="162.5" y="522.0" width="275.0" height="3" rx="1.5" fill="#00E5FF" fill-opacity="0.08" stroke="#00E5FF" stroke-opacity="0.2" stroke-width="0.5"/>

  <!-- Mount holes -->
  
    <circle cx="72" cy="72" r="8" fill="#0a0b10" stroke="#00E5FF60" stroke-width="1.5"/>
    <circle cx="72" cy="72" r="3.2" fill="#00E5FF30"/>
    <circle cx="72" cy="72" r="8" fill="none" stroke="#00E5FF20" stroke-width="4"/>
    <circle cx="528" cy="72" r="8" fill="#0a0b10" stroke="#00E5FF60" stroke-width="1.5"/>
    <circle cx="528" cy="72" r="3.2" fill="#00E5FF30"/>
    <circle cx="528" cy="72" r="8" fill="none" stroke="#00E5FF20" stroke-width="4"/>
    <circle cx="72" cy="628" r="8" fill="#0a0b10" stroke="#00E5FF60" stroke-width="1.5"/>
    <circle cx="72" cy="628" r="3.2" fill="#00E5FF30"/>
    <circle cx="72" cy="628" r="8" fill="none" stroke="#00E5FF20" stroke-width="4"/>
    <circle cx="528" cy="628" r="8" fill="#0a0b10" stroke="#00E5FF60" stroke-width="1.5"/>
    <circle cx="528" cy="628" r="3.2" fill="#00E5FF30"/>
    <circle cx="528" cy="628" r="8" fill="none" stroke="#00E5FF20" stroke-width="4"/>
    <circle cx="300" cy="72" r="8" fill="#0a0b10" stroke="#00E5FF60" stroke-width="1.5"/>
    <circle cx="300" cy="72" r="3.2" fill="#00E5FF30"/>
    <circle cx="300" cy="72" r="8" fill="none" stroke="#00E5FF20" stroke-width="4"/>

  <!-- Handles -->
  

  <!-- Drain/special -->
  

  <!-- Model label -->
  
    <rect x="230" y="322" width="140" height="45" rx="3" fill="#00E5FF06" stroke="#00E5FF18" stroke-width="0.8"/>
    <text x="300" y="340" font-family="'Courier New',monospace" font-size="10" fill="#00E5FF" opacity="0.5" text-anchor="middle" letter-spacing="2">ATEMPO DVLED</text>
    <text x="300" y="354" font-family="'Courier New',monospace" font-size="12" fill="#00E5FF" opacity="0.7" text-anchor="middle" letter-spacing="3">BX SERIES</text>
    <text x="300" y="370" font-family="'Courier New',monospace" font-size="8" fill="#00E5FF" opacity="0.25" text-anchor="middle" letter-spacing="1">S/N: XXXXXXXXXX</text>

  <!-- Data connectors -->
  
      <rect x="80" y="560" width="46" height="70" rx="3" fill="#0a0c14" stroke="#00E5FF35" stroke-width="1"/>
      <circle cx="91" cy="578" r="7" fill="#080910" stroke="#00E5FF50" stroke-width="1.2"/>
      <circle cx="91" cy="578" r="3" fill="#00E5FF40"/>
      <circle cx="91" cy="602" r="7" fill="#080910" stroke="#00E5FF50" stroke-width="1.2"/>
      <circle cx="91" cy="602" r="3" fill="#00E5FF30"/>
      <text x="103" y="580" font-family="'Courier New',monospace" font-size="7" fill="#00E5FF" opacity="0.5" letter-spacing="0.5">DATA IN</text>
      <text x="103" y="604" font-family="'Courier New',monospace" font-size="7" fill="#00E5FF" opacity="0.4" letter-spacing="0.5">DATA OUT</text>
      <text x="103" y="622" font-family="'Courier New',monospace" font-size="7" fill="#00E5FF" opacity="0.35" letter-spacing="0.5">LEMO 3B</text>

  <!-- Power connector -->
  
      <rect x="240" y="565" width="120" height="60" rx="4" fill="#0a0c14" stroke="#00E5FF40" stroke-width="1"/>
      <rect x="260" y="575" width="30" height="40" rx="3" fill="#080910" stroke="#00E5FF50" stroke-width="1.2"/>
      <rect x="295" y="575" width="30" height="40" rx="3" fill="#080910" stroke="#00E5FF40" stroke-width="1.2"/>
      <text x="300" y="639" font-family="'Courier New',monospace" font-size="8" fill="#00E5FF" opacity="0.5" text-anchor="middle" letter-spacing="1">POWER IN / OUT</text>

  <!-- Ground lug -->
  
    <circle cx="495" cy="575" r="12" fill="#0a0c14" stroke="#00E5FF40" stroke-width="1.2"/>
    <text x="495" y="579" font-family="'Courier New',monospace" font-size="10" fill="#00E5FF" opacity="0.6" text-anchor="middle">⏚</text>
    <text x="495" y="597" font-family="'Courier New',monospace" font-size="7" fill="#00E5FF" opacity="0.35" text-anchor="middle">GND</text>

  <!-- Corner brackets -->
  <path d="M44,74 L44,44 L74,44" fill="none" stroke="#00E5FF" stroke-opacity="0.3" stroke-width="1.5"/>
  <path d="M526,44 L556,44 L556,74" fill="none" stroke="#00E5FF" stroke-opacity="0.3" stroke-width="1.5"/>
  <path d="M44,626 L44,656 L74,656" fill="none" stroke="#00E5FF" stroke-opacity="0.3" stroke-width="1.5"/>
  <path d="M526,656 L556,656 L556,626" fill="none" stroke="#00E5FF" stroke-opacity="0.3" stroke-width="1.5"/>

  <!-- Labels -->
  <text x="50" y="34" font-family="'Courier New',monospace" font-size="11" fill="#00E5FF" opacity="0.9" letter-spacing="3">ATEMPO DVLED · BX</text>
  <text x="550" y="34" font-family="'Courier New',monospace" font-size="10" fill="#00E5FF" opacity="0.5" letter-spacing="2" text-anchor="end">REAR VIEW</text>
  <text x="50" y="684" font-family="'Courier New',monospace" font-size="10" fill="#00E5FF" opacity="0.6" letter-spacing="1.5">IP30 · STUDIO · XR / VP</text>
  <text x="550" y="684" font-family="'Courier New',monospace" font-size="10" fill="#00E5FF" opacity="0.4" letter-spacing="1.5" text-anchor="end">MODULE 500×500mm</text>

  <!-- Brightness badge -->
  <rect x="470" y="10" width="120" height="20" rx="2" fill="#00E5FF" fill-opacity="0.12" stroke="#00E5FF" stroke-opacity="0.3" stroke-width="0.8"/>
  <text x="530" y="24" font-family="'Courier New',monospace" font-size="10" fill="#00E5FF" opacity="0.8" text-anchor="middle" letter-spacing="1">1500 nit</text>
</svg>