<svg xmlns="http://www.w3.org/2000/svg" width="600" height="480" viewBox="0 0 600 480">
  <defs>
    <radialGradient id="fg" cx="311" cy="234" r="200" gradientUnits="userSpaceOnUse">
      <stop offset="0%" stop-color="#9333EA" stop-opacity="0.30"/>
      <stop offset="55%" stop-color="#0c0d14" stop-opacity="1"/>
      <stop offset="100%" stop-color="#080910" stop-opacity="1"/>
    </radialGradient>
    <linearGradient id="rg" x1="434.9,396.7" y1="0" x2="412.5,409.7" y2="0" gradientUnits="userSpaceOnUse">
      <stop offset="0%" stop-color="#9333EA"/>
      <stop offset="100%" stop-color="rgb(66,23,105)"/>
    </linearGradient>
    <filter id="sh" x="-20%" y="-20%" width="140%" height="160%">
      <feDropShadow dx="0" dy="6" stdDeviation="14" flood-color="#9333EA" flood-opacity="0.18"/>
    </filter>
  </defs>
  <rect width="600" height="480" fill="#fff"/>
  <!-- ground shadow -->
  <ellipse cx="NaN" cy="NaN" rx="195" ry="14" fill="#9333EA" opacity="0.07"/>
  <g filter="url(#sh)">
    <!-- top face -->
    <polygon points="187.5,70.3 434.9,213.1 412.5,226.1 165.1,83.3" fill="#17192a" stroke="none"/>
    <!-- right edge accent -->
    <polygon points="434.9,396.7 434.9,213.1 412.5,226.1 412.5,409.7" fill="url(#rg)" stroke="none"/>
    <!-- front face -->
    <polygon points="187.5,253.9 434.9,396.7 434.9,213.1 187.5,70.3" fill="url(#fg)" stroke="none"/>
  </g>
  <circle cx="187.5" cy="253.9" r="1.7" fill="#9333EA" opacity="0.26"/><circle cx="200.5" cy="261.4" r="1.7" fill="#9333EA" opacity="0.30"/><circle cx="213.4" cy="268.9" r="1.7" fill="#9333EA" opacity="0.34"/><circle cx="226.4" cy="276.4" r="1.7" fill="#9333EA" opacity="0.37"/><circle cx="239.3" cy="283.9" r="1.7" fill="#9333EA" opacity="0.40"/><circle cx="252.3" cy="291.3" r="1.7" fill="#9333EA" opacity="0.42"/><circle cx="265.3" cy="298.8" r="2.2" fill="#9333EA" opacity="0.43"/><circle cx="278.2" cy="306.3" r="2.2" fill="#9333EA" opacity="0.43"/><circle cx="291.2" cy="313.8" r="1.7" fill="#9333EA" opacity="0.42"/><circle cx="304.1" cy="321.3" r="1.7" fill="#9333EA" opacity="0.40"/><circle cx="317.1" cy="328.7" r="1.7" fill="#9333EA" opacity="0.37"/><circle cx="330.0" cy="336.2" r="1.7" fill="#9333EA" opacity="0.34"/><circle cx="343.0" cy="343.7" r="1.7" fill="#9333EA" opacity="0.30"/><circle cx="355.9" cy="351.2" r="1.7" fill="#9333EA" opacity="0.25"/><circle cx="368.9" cy="358.7" r="1.7" fill="#9333EA" opacity="0.21"/><circle cx="381.9" cy="366.1" r="1.3" fill="#9333EA" opacity="0.16"/><circle cx="394.8" cy="373.6" r="1.3" fill="#9333EA" opacity="0.11"/><circle cx="407.8" cy="381.1" r="1.3" fill="#9333EA" opacity="0.06"/><circle cx="420.7" cy="388.6" r="1.3" fill="#9333EA" opacity="0.06"/><circle cx="433.7" cy="396.1" r="1.3" fill="#9333EA" opacity="0.06"/><circle cx="187.5" cy="239.0" r="1.7" fill="#9333EA" opacity="0.26"/><circle cx="200.5" cy="246.5" r="1.7" fill="#9333EA" opacity="0.31"/><circle cx="213.4" cy="253.9" r="1.7" fill="#9333EA" opacity="0.36"/><circle cx="226.4" cy="261.4" r="1.7" fill="#9333EA" opacity="0.40"/><circle cx="239.3" cy="268.9" r="1.7" fill="#9333EA" opacity="0.43"/><circle cx="252.3" cy="276.4" r="2.2" fill="#9333EA" opacity="0.46"/><circle cx="265.3" cy="283.9" r="2.2" fill="#9333EA" opacity="0.48"/><circle cx="278.2" cy="291.3" r="2.2" fill="#9333EA" opacity="0.49"/><circle cx="291.2" cy="298.8" r="2.2" fill="#9333EA" opacity="0.48"/><circle cx="304.1" cy="306.3" r="2.2" fill="#9333EA" opacity="0.46"/><circle cx="317.1" cy="313.8" r="1.7" fill="#9333EA" opacity="0.43"/><circle cx="330.0" cy="321.3" r="1.7" fill="#9333EA" opacity="0.40"/><circle cx="343.0" cy="328.7" r="1.7" fill="#9333EA" opacity="0.35"/><circle cx="355.9" cy="336.2" r="1.7" fill="#9333EA" opacity="0.31"/><circle cx="368.9" cy="343.7" r="1.7" fill="#9333EA" opacity="0.26"/><circle cx="381.9" cy="351.2" r="1.7" fill="#9333EA" opacity="0.21"/><circle cx="394.8" cy="358.7" r="1.3" fill="#9333EA" opacity="0.16"/><circle cx="407.8" cy="366.1" r="1.3" fill="#9333EA" opacity="0.10"/><circle cx="420.7" cy="373.6" r="1.3" fill="#9333EA" opacity="0.06"/><circle cx="433.7" cy="381.1" r="1.3" fill="#9333EA" opacity="0.06"/><circle cx="187.5" cy="224.0" r="1.7" fill="#9333EA" opacity="0.26"/><circle cx="200.5" cy="231.5" r="1.7" fill="#9333EA" opacity="0.31"/><circle cx="213.4" cy="239.0" r="1.7" fill="#9333EA" opacity="0.36"/><circle cx="226.4" cy="246.5" r="1.7" fill="#9333EA" opacity="0.41"/><circle cx="239.3" cy="253.9" r="2.2" fill="#9333EA" opacity="0.46"/><circle cx="252.3" cy="261.4" r="2.2" fill="#9333EA" opacity="0.49"/><circle cx="265.3" cy="268.9" r="2.2" fill="#9333EA" opacity="0.52"/><circle cx="278.2" cy="276.4" r="2.2" fill="#9333EA" opacity="0.54"/><circle cx="291.2" cy="283.9" r="2.2" fill="#9333EA" opacity="0.54"/><circle cx="304.1" cy="291.3" r="2.2" fill="#9333EA" opacity="0.52"/><circle cx="317.1" cy="298.8" r="2.2" fill="#9333EA" opacity="0.49"/><circle cx="330.0" cy="306.3" r="2.2" fill="#9333EA" opacity="0.45"/><circle cx="343.0" cy="313.8" r="1.7" fill="#9333EA" opacity="0.41"/><circle cx="355.9" cy="321.3" r="1.7" fill="#9333EA" opacity="0.36"/><circle cx="368.9" cy="328.7" r="1.7" fill="#9333EA" opacity="0.31"/><circle cx="381.9" cy="336.2" r="1.7" fill="#9333EA" opacity="0.26"/><circle cx="394.8" cy="343.7" r="1.7" fill="#9333EA" opacity="0.20"/><circle cx="407.8" cy="351.2" r="1.3" fill="#9333EA" opacity="0.15"/><circle cx="420.7" cy="358.7" r="1.3" fill="#9333EA" opacity="0.09"/><circle cx="433.7" cy="366.1" r="1.3" fill="#9333EA" opacity="0.06"/><circle cx="187.5" cy="209.1" r="1.7" fill="#9333EA" opacity="0.25"/><circle cx="200.5" cy="216.5" r="1.7" fill="#9333EA" opacity="0.31"/><circle cx="213.4" cy="224.0" r="1.7" fill="#9333EA" opacity="0.36"/><circle cx="226.4" cy="231.5" r="1.7" fill="#9333EA" opacity="0.42"/><circle cx="239.3" cy="239.0" r="2.2" fill="#9333EA" opacity="0.47"/><circle cx="252.3" cy="246.5" r="2.2" fill="#9333EA" opacity="0.51"/><circle cx="265.3" cy="253.9" r="2.2" fill="#9333EA" opacity="0.55"/><circle cx="278.2" cy="261.4" r="2.2" fill="#9333EA" opacity="0.58"/><circle cx="291.2" cy="268.9" r="2.2" fill="#9333EA" opacity="0.59"/><circle cx="304.1" cy="276.4" r="2.2" fill="#9333EA" opacity="0.58"/><circle cx="317.1" cy="283.9" r="2.2" fill="#9333EA" opacity="0.55"/><circle cx="330.0" cy="291.3" r="2.2" fill="#9333EA" opacity="0.51"/><circle cx="343.0" cy="298.8" r="2.2" fill="#9333EA" opacity="0.46"/><circle cx="355.9" cy="306.3" r="1.7" fill="#9333EA" opacity="0.41"/><circle cx="368.9" cy="313.8" r="1.7" fill="#9333EA" opacity="0.36"/><circle cx="381.9" cy="321.3" r="1.7" fill="#9333EA" opacity="0.31"/><circle cx="394.8" cy="328.7" r="1.7" fill="#9333EA" opacity="0.25"/><circle cx="407.8" cy="336.2" r="1.3" fill="#9333EA" opacity="0.19"/><circle cx="420.7" cy="343.7" r="1.3" fill="#9333EA" opacity="0.14"/><circle cx="433.7" cy="351.2" r="1.3" fill="#9333EA" opacity="0.08"/><circle cx="187.5" cy="194.1" r="1.7" fill="#9333EA" opacity="0.24"/><circle cx="200.5" cy="201.6" r="1.7" fill="#9333EA" opacity="0.30"/><circle cx="213.4" cy="209.1" r="1.7" fill="#9333EA" opacity="0.35"/><circle cx="226.4" cy="216.5" r="1.7" fill="#9333EA" opacity="0.41"/><circle cx="239.3" cy="224.0" r="2.2" fill="#9333EA" opacity="0.46"/><circle cx="252.3" cy="231.5" r="2.2" fill="#9333EA" opacity="0.52"/><circle cx="265.3" cy="239.0" r="2.2" fill="#9333EA" opacity="0.57"/><circle cx="278.2" cy="246.5" r="2.2" fill="#9333EA" opacity="0.61"/><circle cx="291.2" cy="253.9" r="2.2" fill="#9333EA" opacity="0.64"/><circle cx="304.1" cy="261.4" r="2.2" fill="#9333EA" opacity="0.64"/><circle cx="317.1" cy="268.9" r="2.2" fill="#9333EA" opacity="0.61"/><circle cx="330.0" cy="276.4" r="2.2" fill="#9333EA" opacity="0.57"/><circle cx="343.0" cy="283.9" r="2.2" fill="#9333EA" opacity="0.52"/><circle cx="355.9" cy="291.3" r="2.2" fill="#9333EA" opacity="0.46"/><circle cx="368.9" cy="298.8" r="1.7" fill="#9333EA" opacity="0.41"/><circle cx="381.9" cy="306.3" r="1.7" fill="#9333EA" opacity="0.35"/><circle cx="394.8" cy="313.8" r="1.7" fill="#9333EA" opacity="0.29"/><circle cx="407.8" cy="321.3" r="1.7" fill="#9333EA" opacity="0.23"/><circle cx="420.7" cy="328.7" r="1.3" fill="#9333EA" opacity="0.18"/><circle cx="433.7" cy="336.2" r="1.3" fill="#9333EA" opacity="0.12"/><circle cx="187.5" cy="179.1" r="1.7" fill="#9333EA" opacity="0.22"/><circle cx="200.5" cy="186.6" r="1.7" fill="#9333EA" opacity="0.28"/><circle cx="213.4" cy="194.1" r="1.7" fill="#9333EA" opacity="0.33"/><circle cx="226.4" cy="201.6" r="1.7" fill="#9333EA" opacity="0.39"/><circle cx="239.3" cy="209.1" r="2.2" fill="#9333EA" opacity="0.45"/><circle cx="252.3" cy="216.5" r="2.2" fill="#9333EA" opacity="0.51"/><circle cx="265.3" cy="224.0" r="2.2" fill="#9333EA" opacity="0.56"/><circle cx="278.2" cy="231.5" r="2.2" fill="#9333EA" opacity="0.62"/><circle cx="291.2" cy="239.0" r="2.2" fill="#9333EA" opacity="0.67"/><circle cx="304.1" cy="246.5" r="2.2" fill="#9333EA" opacity="0.69"/><circle cx="317.1" cy="253.9" r="2.2" fill="#9333EA" opacity="0.67"/><circle cx="330.0" cy="261.4" r="2.2" fill="#9333EA" opacity="0.62"/><circle cx="343.0" cy="268.9" r="2.2" fill="#9333EA" opacity="0.56"/><circle cx="355.9" cy="276.4" r="2.2" fill="#9333EA" opacity="0.51"/><circle cx="368.9" cy="283.9" r="2.2" fill="#9333EA" opacity="0.45"/><circle cx="381.9" cy="291.3" r="1.7" fill="#9333EA" opacity="0.39"/><circle cx="394.8" cy="298.8" r="1.7" fill="#9333EA" opacity="0.33"/><circle cx="407.8" cy="306.3" r="1.7" fill="#9333EA" opacity="0.27"/><circle cx="420.7" cy="313.8" r="1.7" fill="#9333EA" opacity="0.21"/><circle cx="433.7" cy="321.3" r="1.3" fill="#9333EA" opacity="0.16"/><circle cx="187.5" cy="164.2" r="1.3" fill="#9333EA" opacity="0.19"/><circle cx="200.5" cy="171.7" r="1.7" fill="#9333EA" opacity="0.25"/><circle cx="213.4" cy="179.1" r="1.7" fill="#9333EA" opacity="0.31"/><circle cx="226.4" cy="186.6" r="1.7" fill="#9333EA" opacity="0.37"/><circle cx="239.3" cy="194.1" r="1.7" fill="#9333EA" opacity="0.43"/><circle cx="252.3" cy="201.6" r="2.2" fill="#9333EA" opacity="0.49"/><circle cx="265.3" cy="209.1" r="2.2" fill="#9333EA" opacity="0.54"/><circle cx="278.2" cy="216.5" r="2.2" fill="#9333EA" opacity="0.60"/><circle cx="291.2" cy="224.0" r="2.2" fill="#9333EA" opacity="0.66"/><circle cx="304.1" cy="231.5" r="2.2" fill="#9333EA" opacity="0.72"/><circle cx="317.1" cy="239.0" r="2.2" fill="#9333EA" opacity="0.72"/><circle cx="330.0" cy="246.5" r="2.2" fill="#9333EA" opacity="0.66"/><circle cx="343.0" cy="253.9" r="2.2" fill="#9333EA" opacity="0.60"/><circle cx="355.9" cy="261.4" r="2.2" fill="#9333EA" opacity="0.54"/><circle cx="368.9" cy="268.9" r="2.2" fill="#9333EA" opacity="0.48"/><circle cx="381.9" cy="276.4" r="1.7" fill="#9333EA" opacity="0.42"/><circle cx="394.8" cy="283.9" r="1.7" fill="#9333EA" opacity="0.36"/><circle cx="407.8" cy="291.3" r="1.7" fill="#9333EA" opacity="0.31"/><circle cx="420.7" cy="298.8" r="1.7" fill="#9333EA" opacity="0.25"/><circle cx="433.7" cy="306.3" r="1.3" fill="#9333EA" opacity="0.19"/><circle cx="187.5" cy="149.2" r="1.3" fill="#9333EA" opacity="0.16"/><circle cx="200.5" cy="156.7" r="1.7" fill="#9333EA" opacity="0.22"/><circle cx="213.4" cy="164.2" r="1.7" fill="#9333EA" opacity="0.28"/><circle cx="226.4" cy="171.7" r="1.7" fill="#9333EA" opacity="0.34"/><circle cx="239.3" cy="179.1" r="1.7" fill="#9333EA" opacity="0.39"/><circle cx="252.3" cy="186.6" r="2.2" fill="#9333EA" opacity="0.45"/><circle cx="265.3" cy="194.1" r="2.2" fill="#9333EA" opacity="0.51"/><circle cx="278.2" cy="201.6" r="2.2" fill="#9333EA" opacity="0.57"/><circle cx="291.2" cy="209.1" r="2.2" fill="#9333EA" opacity="0.63"/><circle cx="304.1" cy="216.5" r="2.2" fill="#9333EA" opacity="0.68"/><circle cx="317.1" cy="224.0" r="2.2" fill="#9333EA" opacity="0.71"/><circle cx="330.0" cy="231.5" r="2.2" fill="#9333EA" opacity="0.68"/><circle cx="343.0" cy="239.0" r="2.2" fill="#9333EA" opacity="0.62"/><circle cx="355.9" cy="246.5" r="2.2" fill="#9333EA" opacity="0.57"/><circle cx="368.9" cy="253.9" r="2.2" fill="#9333EA" opacity="0.51"/><circle cx="381.9" cy="261.4" r="2.2" fill="#9333EA" opacity="0.45"/><circle cx="394.8" cy="268.9" r="1.7" fill="#9333EA" opacity="0.39"/><circle cx="407.8" cy="276.4" r="1.7" fill="#9333EA" opacity="0.33"/><circle cx="420.7" cy="283.9" r="1.7" fill="#9333EA" opacity="0.27"/><circle cx="433.7" cy="291.3" r="1.7" fill="#9333EA" opacity="0.22"/><circle cx="187.5" cy="134.3" r="1.3" fill="#9333EA" opacity="0.12"/><circle cx="200.5" cy="141.7" r="1.3" fill="#9333EA" opacity="0.18"/><circle cx="213.4" cy="149.2" r="1.7" fill="#9333EA" opacity="0.24"/><circle cx="226.4" cy="156.7" r="1.7" fill="#9333EA" opacity="0.30"/><circle cx="239.3" cy="164.2" r="1.7" fill="#9333EA" opacity="0.36"/><circle cx="252.3" cy="171.7" r="1.7" fill="#9333EA" opacity="0.41"/><circle cx="265.3" cy="179.1" r="2.2" fill="#9333EA" opacity="0.47"/><circle cx="278.2" cy="186.6" r="2.2" fill="#9333EA" opacity="0.52"/><circle cx="291.2" cy="194.1" r="2.2" fill="#9333EA" opacity="0.58"/><circle cx="304.1" cy="201.6" r="2.2" fill="#9333EA" opacity="0.62"/><circle cx="317.1" cy="209.1" r="2.2" fill="#9333EA" opacity="0.65"/><circle cx="330.0" cy="216.5" r="2.2" fill="#9333EA" opacity="0.65"/><circle cx="343.0" cy="224.0" r="2.2" fill="#9333EA" opacity="0.62"/><circle cx="355.9" cy="231.5" r="2.2" fill="#9333EA" opacity="0.57"/><circle cx="368.9" cy="239.0" r="2.2" fill="#9333EA" opacity="0.52"/><circle cx="381.9" cy="246.5" r="2.2" fill="#9333EA" opacity="0.47"/><circle cx="394.8" cy="253.9" r="1.7" fill="#9333EA" opacity="0.41"/><circle cx="407.8" cy="261.4" r="1.7" fill="#9333EA" opacity="0.35"/><circle cx="420.7" cy="268.9" r="1.7" fill="#9333EA" opacity="0.30"/><circle cx="433.7" cy="276.4" r="1.7" fill="#9333EA" opacity="0.24"/><circle cx="187.5" cy="119.3" r="1.3" fill="#9333EA" opacity="0.09"/><circle cx="200.5" cy="126.8" r="1.3" fill="#9333EA" opacity="0.14"/><circle cx="213.4" cy="134.3" r="1.7" fill="#9333EA" opacity="0.20"/><circle cx="226.4" cy="141.7" r="1.7" fill="#9333EA" opacity="0.26"/><circle cx="239.3" cy="149.2" r="1.7" fill="#9333EA" opacity="0.31"/><circle cx="252.3" cy="156.7" r="1.7" fill="#9333EA" opacity="0.37"/><circle cx="265.3" cy="164.2" r="1.7" fill="#9333EA" opacity="0.42"/><circle cx="278.2" cy="171.7" r="2.2" fill="#9333EA" opacity="0.47"/><circle cx="291.2" cy="179.1" r="2.2" fill="#9333EA" opacity="0.52"/><circle cx="304.1" cy="186.6" r="2.2" fill="#9333EA" opacity="0.56"/><circle cx="317.1" cy="194.1" r="2.2" fill="#9333EA" opacity="0.59"/><circle cx="330.0" cy="201.6" r="2.2" fill="#9333EA" opacity="0.60"/><circle cx="343.0" cy="209.1" r="2.2" fill="#9333EA" opacity="0.59"/><circle cx="355.9" cy="216.5" r="2.2" fill="#9333EA" opacity="0.56"/><circle cx="368.9" cy="224.0" r="2.2" fill="#9333EA" opacity="0.52"/><circle cx="381.9" cy="231.5" r="2.2" fill="#9333EA" opacity="0.47"/><circle cx="394.8" cy="239.0" r="1.7" fill="#9333EA" opacity="0.42"/><circle cx="407.8" cy="246.5" r="1.7" fill="#9333EA" opacity="0.37"/><circle cx="420.7" cy="253.9" r="1.7" fill="#9333EA" opacity="0.31"/><circle cx="433.7" cy="261.4" r="1.7" fill="#9333EA" opacity="0.25"/><circle cx="187.5" cy="104.3" r="1.3" fill="#9333EA" opacity="0.06"/><circle cx="200.5" cy="111.8" r="1.3" fill="#9333EA" opacity="0.10"/><circle cx="213.4" cy="119.3" r="1.3" fill="#9333EA" opacity="0.16"/><circle cx="226.4" cy="126.8" r="1.7" fill="#9333EA" opacity="0.21"/><circle cx="239.3" cy="134.3" r="1.7" fill="#9333EA" opacity="0.27"/><circle cx="252.3" cy="141.7" r="1.7" fill="#9333EA" opacity="0.32"/><circle cx="265.3" cy="149.2" r="1.7" fill="#9333EA" opacity="0.37"/><circle cx="278.2" cy="156.7" r="1.7" fill="#9333EA" opacity="0.42"/><circle cx="291.2" cy="164.2" r="2.2" fill="#9333EA" opacity="0.47"/><circle cx="304.1" cy="171.7" r="2.2" fill="#9333EA" opacity="0.50"/><circle cx="317.1" cy="179.1" r="2.2" fill="#9333EA" opacity="0.53"/><circle cx="330.0" cy="186.6" r="2.2" fill="#9333EA" opacity="0.55"/><circle cx="343.0" cy="194.1" r="2.2" fill="#9333EA" opacity="0.55"/><circle cx="355.9" cy="201.6" r="2.2" fill="#9333EA" opacity="0.53"/><circle cx="368.9" cy="209.1" r="2.2" fill="#9333EA" opacity="0.50"/><circle cx="381.9" cy="216.5" r="2.2" fill="#9333EA" opacity="0.46"/><circle cx="394.8" cy="224.0" r="1.7" fill="#9333EA" opacity="0.42"/><circle cx="407.8" cy="231.5" r="1.7" fill="#9333EA" opacity="0.37"/><circle cx="420.7" cy="239.0" r="1.7" fill="#9333EA" opacity="0.32"/><circle cx="433.7" cy="246.5" r="1.7" fill="#9333EA" opacity="0.26"/><circle cx="187.5" cy="89.4" r="1.3" fill="#9333EA" opacity="0.06"/><circle cx="200.5" cy="96.9" r="1.3" fill="#9333EA" opacity="0.06"/><circle cx="213.4" cy="104.3" r="1.3" fill="#9333EA" opacity="0.11"/><circle cx="226.4" cy="111.8" r="1.3" fill="#9333EA" opacity="0.16"/><circle cx="239.3" cy="119.3" r="1.7" fill="#9333EA" opacity="0.22"/><circle cx="252.3" cy="126.8" r="1.7" fill="#9333EA" opacity="0.27"/><circle cx="265.3" cy="134.3" r="1.7" fill="#9333EA" opacity="0.32"/><circle cx="278.2" cy="141.7" r="1.7" fill="#9333EA" opacity="0.36"/><circle cx="291.2" cy="149.2" r="1.7" fill="#9333EA" opacity="0.41"/><circle cx="304.1" cy="156.7" r="2.2" fill="#9333EA" opacity="0.45"/><circle cx="317.1" cy="164.2" r="2.2" fill="#9333EA" opacity="0.48"/><circle cx="330.0" cy="171.7" r="2.2" fill="#9333EA" opacity="0.49"/><circle cx="343.0" cy="179.1" r="2.2" fill="#9333EA" opacity="0.50"/><circle cx="355.9" cy="186.6" r="2.2" fill="#9333EA" opacity="0.49"/><circle cx="368.9" cy="194.1" r="2.2" fill="#9333EA" opacity="0.47"/><circle cx="381.9" cy="201.6" r="2.2" fill="#9333EA" opacity="0.44"/><circle cx="394.8" cy="209.1" r="1.7" fill="#9333EA" opacity="0.41"/><circle cx="407.8" cy="216.5" r="1.7" fill="#9333EA" opacity="0.36"/><circle cx="420.7" cy="224.0" r="1.7" fill="#9333EA" opacity="0.32"/><circle cx="433.7" cy="231.5" r="1.7" fill="#9333EA" opacity="0.27"/><circle cx="187.5" cy="74.4" r="1.3" fill="#9333EA" opacity="0.06"/><circle cx="200.5" cy="81.9" r="1.3" fill="#9333EA" opacity="0.06"/><circle cx="213.4" cy="89.4" r="1.3" fill="#9333EA" opacity="0.06"/><circle cx="226.4" cy="96.9" r="1.3" fill="#9333EA" opacity="0.12"/><circle cx="239.3" cy="104.3" r="1.3" fill="#9333EA" opacity="0.17"/><circle cx="252.3" cy="111.8" r="1.7" fill="#9333EA" opacity="0.22"/><circle cx="265.3" cy="119.3" r="1.7" fill="#9333EA" opacity="0.26"/><circle cx="278.2" cy="126.8" r="1.7" fill="#9333EA" opacity="0.31"/><circle cx="291.2" cy="134.3" r="1.7" fill="#9333EA" opacity="0.35"/><circle cx="304.1" cy="141.7" r="1.7" fill="#9333EA" opacity="0.39"/><circle cx="317.1" cy="149.2" r="1.7" fill="#9333EA" opacity="0.42"/><circle cx="330.0" cy="156.7" r="2.2" fill="#9333EA" opacity="0.44"/><circle cx="343.0" cy="164.2" r="2.2" fill="#9333EA" opacity="0.45"/><circle cx="355.9" cy="171.7" r="2.2" fill="#9333EA" opacity="0.45"/><circle cx="368.9" cy="179.1" r="2.2" fill="#9333EA" opacity="0.44"/><circle cx="381.9" cy="186.6" r="1.7" fill="#9333EA" opacity="0.42"/><circle cx="394.8" cy="194.1" r="1.7" fill="#9333EA" opacity="0.39"/><circle cx="407.8" cy="201.6" r="1.7" fill="#9333EA" opacity="0.35"/><circle cx="420.7" cy="209.1" r="1.7" fill="#9333EA" opacity="0.31"/><circle cx="433.7" cy="216.5" r="1.7" fill="#9333EA" opacity="0.26"/>
  <!-- center bloom -->
  <circle cx="311.2" cy="233.5" r="60" fill="#9333EA" opacity="0.10"/>
  <circle cx="311.2" cy="233.5" r="28" fill="#9333EA" opacity="0.14"/>
</svg>