<svg xmlns="http://www.w3.org/2000/svg" width="600" height="480" viewBox="0 0 600 480">
  <defs>
    <radialGradient id="fg" cx="316" cy="231" r="200" gradientUnits="userSpaceOnUse">
      <stop offset="0%" stop-color="#FF6A00" stop-opacity="0.30"/>
      <stop offset="55%" stop-color="#0c0d14" stop-opacity="1"/>
      <stop offset="100%" stop-color="#080910" stop-opacity="1"/>
    </radialGradient>
    <linearGradient id="rg" x1="439.6,394.0" y1="0" x2="407.8,412.4" y2="0" gradientUnits="userSpaceOnUse">
      <stop offset="0%" stop-color="#FF6A00"/>
      <stop offset="100%" stop-color="rgb(115,48,0)"/>
    </linearGradient>
    <filter id="sh" x="-20%" y="-20%" width="140%" height="160%">
      <feDropShadow dx="0" dy="6" stdDeviation="14" flood-color="#FF6A00" flood-opacity="0.18"/>
    </filter>
  </defs>
  <rect width="600" height="480" fill="#fff"/>
  <!-- ground shadow -->
  <ellipse cx="NaN" cy="NaN" rx="195" ry="14" fill="#FF6A00" opacity="0.07"/>
  <g filter="url(#sh)">
    <!-- top face -->
    <polygon points="192.2,67.6 439.6,210.4 407.8,228.8 160.4,86.0" fill="#17192a" stroke="none"/>
    <!-- right edge accent -->
    <polygon points="439.6,394.0 439.6,210.4 407.8,228.8 407.8,412.4" fill="url(#rg)" stroke="none"/>
    <!-- front face -->
    <polygon points="192.2,251.2 439.6,394.0 439.6,210.4 192.2,67.6" fill="url(#fg)" stroke="none"/>
  </g>
  <circle cx="192.2" cy="251.2" r="1.7" fill="#FF6A00" opacity="0.26"/><circle cx="205.2" cy="258.7" r="1.7" fill="#FF6A00" opacity="0.30"/><circle cx="218.1" cy="266.2" r="1.7" fill="#FF6A00" opacity="0.34"/><circle cx="231.1" cy="273.7" r="1.7" fill="#FF6A00" opacity="0.37"/><circle cx="244.1" cy="281.1" r="1.7" fill="#FF6A00" opacity="0.40"/><circle cx="257.0" cy="288.6" r="1.7" fill="#FF6A00" opacity="0.42"/><circle cx="270.0" cy="296.1" r="2.2" fill="#FF6A00" opacity="0.43"/><circle cx="282.9" cy="303.6" r="2.2" fill="#FF6A00" opacity="0.43"/><circle cx="295.9" cy="311.1" r="1.7" fill="#FF6A00" opacity="0.42"/><circle cx="308.8" cy="318.5" r="1.7" fill="#FF6A00" opacity="0.40"/><circle cx="321.8" cy="326.0" r="1.7" fill="#FF6A00" opacity="0.37"/><circle cx="334.7" cy="333.5" r="1.7" fill="#FF6A00" opacity="0.34"/><circle cx="347.7" cy="341.0" r="1.7" fill="#FF6A00" opacity="0.30"/><circle cx="360.7" cy="348.5" r="1.7" fill="#FF6A00" opacity="0.25"/><circle cx="373.6" cy="355.9" r="1.7" fill="#FF6A00" opacity="0.21"/><circle cx="386.6" cy="363.4" r="1.3" fill="#FF6A00" opacity="0.16"/><circle cx="399.5" cy="370.9" r="1.3" fill="#FF6A00" opacity="0.11"/><circle cx="412.5" cy="378.4" r="1.3" fill="#FF6A00" opacity="0.06"/><circle cx="425.4" cy="385.9" r="1.3" fill="#FF6A00" opacity="0.06"/><circle cx="438.4" cy="393.3" r="1.3" fill="#FF6A00" opacity="0.06"/><circle cx="192.2" cy="236.3" r="1.7" fill="#FF6A00" opacity="0.26"/><circle cx="205.2" cy="243.7" r="1.7" fill="#FF6A00" opacity="0.31"/><circle cx="218.1" cy="251.2" r="1.7" fill="#FF6A00" opacity="0.36"/><circle cx="231.1" cy="258.7" r="1.7" fill="#FF6A00" opacity="0.40"/><circle cx="244.1" cy="266.2" r="1.7" fill="#FF6A00" opacity="0.43"/><circle cx="257.0" cy="273.7" r="2.2" fill="#FF6A00" opacity="0.46"/><circle cx="270.0" cy="281.1" r="2.2" fill="#FF6A00" opacity="0.48"/><circle cx="282.9" cy="288.6" r="2.2" fill="#FF6A00" opacity="0.49"/><circle cx="295.9" cy="296.1" r="2.2" fill="#FF6A00" opacity="0.48"/><circle cx="308.8" cy="303.6" r="2.2" fill="#FF6A00" opacity="0.46"/><circle cx="321.8" cy="311.1" r="1.7" fill="#FF6A00" opacity="0.43"/><circle cx="334.7" cy="318.5" r="1.7" fill="#FF6A00" opacity="0.40"/><circle cx="347.7" cy="326.0" r="1.7" fill="#FF6A00" opacity="0.35"/><circle cx="360.7" cy="333.5" r="1.7" fill="#FF6A00" opacity="0.31"/><circle cx="373.6" cy="341.0" r="1.7" fill="#FF6A00" opacity="0.26"/><circle cx="386.6" cy="348.5" r="1.7" fill="#FF6A00" opacity="0.21"/><circle cx="399.5" cy="355.9" r="1.3" fill="#FF6A00" opacity="0.16"/><circle cx="412.5" cy="363.4" r="1.3" fill="#FF6A00" opacity="0.10"/><circle cx="425.4" cy="370.9" r="1.3" fill="#FF6A00" opacity="0.06"/><circle cx="438.4" cy="378.4" r="1.3" fill="#FF6A00" opacity="0.06"/><circle cx="192.2" cy="221.3" r="1.7" fill="#FF6A00" opacity="0.26"/><circle cx="205.2" cy="228.8" r="1.7" fill="#FF6A00" opacity="0.31"/><circle cx="218.1" cy="236.3" r="1.7" fill="#FF6A00" opacity="0.36"/><circle cx="231.1" cy="243.7" r="1.7" fill="#FF6A00" opacity="0.41"/><circle cx="244.1" cy="251.2" r="2.2" fill="#FF6A00" opacity="0.46"/><circle cx="257.0" cy="258.7" r="2.2" fill="#FF6A00" opacity="0.49"/><circle cx="270.0" cy="266.2" r="2.2" fill="#FF6A00" opacity="0.52"/><circle cx="282.9" cy="273.7" r="2.2" fill="#FF6A00" opacity="0.54"/><circle cx="295.9" cy="281.1" r="2.2" fill="#FF6A00" opacity="0.54"/><circle cx="308.8" cy="288.6" r="2.2" fill="#FF6A00" opacity="0.52"/><circle cx="321.8" cy="296.1" r="2.2" fill="#FF6A00" opacity="0.49"/><circle cx="334.7" cy="303.6" r="2.2" fill="#FF6A00" opacity="0.45"/><circle cx="347.7" cy="311.1" r="1.7" fill="#FF6A00" opacity="0.41"/><circle cx="360.7" cy="318.5" r="1.7" fill="#FF6A00" opacity="0.36"/><circle cx="373.6" cy="326.0" r="1.7" fill="#FF6A00" opacity="0.31"/><circle cx="386.6" cy="333.5" r="1.7" fill="#FF6A00" opacity="0.26"/><circle cx="399.5" cy="341.0" r="1.7" fill="#FF6A00" opacity="0.20"/><circle cx="412.5" cy="348.5" r="1.3" fill="#FF6A00" opacity="0.15"/><circle cx="425.4" cy="355.9" r="1.3" fill="#FF6A00" opacity="0.09"/><circle cx="438.4" cy="363.4" r="1.3" fill="#FF6A00" opacity="0.06"/><circle cx="192.2" cy="206.3" r="1.7" fill="#FF6A00" opacity="0.25"/><circle cx="205.2" cy="213.8" r="1.7" fill="#FF6A00" opacity="0.31"/><circle cx="218.1" cy="221.3" r="1.7" fill="#FF6A00" opacity="0.36"/><circle cx="231.1" cy="228.8" r="1.7" fill="#FF6A00" opacity="0.42"/><circle cx="244.1" cy="236.3" r="2.2" fill="#FF6A00" opacity="0.47"/><circle cx="257.0" cy="243.7" r="2.2" fill="#FF6A00" opacity="0.51"/><circle cx="270.0" cy="251.2" r="2.2" fill="#FF6A00" opacity="0.55"/><circle cx="282.9" cy="258.7" r="2.2" fill="#FF6A00" opacity="0.58"/><circle cx="295.9" cy="266.2" r="2.2" fill="#FF6A00" opacity="0.59"/><circle cx="308.8" cy="273.7" r="2.2" fill="#FF6A00" opacity="0.58"/><circle cx="321.8" cy="281.1" r="2.2" fill="#FF6A00" opacity="0.55"/><circle cx="334.7" cy="288.6" r="2.2" fill="#FF6A00" opacity="0.51"/><circle cx="347.7" cy="296.1" r="2.2" fill="#FF6A00" opacity="0.46"/><circle cx="360.7" cy="303.6" r="1.7" fill="#FF6A00" opacity="0.41"/><circle cx="373.6" cy="311.1" r="1.7" fill="#FF6A00" opacity="0.36"/><circle cx="386.6" cy="318.5" r="1.7" fill="#FF6A00" opacity="0.31"/><circle cx="399.5" cy="326.0" r="1.7" fill="#FF6A00" opacity="0.25"/><circle cx="412.5" cy="333.5" r="1.3" fill="#FF6A00" opacity="0.19"/><circle cx="425.4" cy="341.0" r="1.3" fill="#FF6A00" opacity="0.14"/><circle cx="438.4" cy="348.5" r="1.3" fill="#FF6A00" opacity="0.08"/><circle cx="192.2" cy="191.4" r="1.7" fill="#FF6A00" opacity="0.24"/><circle cx="205.2" cy="198.9" r="1.7" fill="#FF6A00" opacity="0.30"/><circle cx="218.1" cy="206.3" r="1.7" fill="#FF6A00" opacity="0.35"/><circle cx="231.1" cy="213.8" r="1.7" fill="#FF6A00" opacity="0.41"/><circle cx="244.1" cy="221.3" r="2.2" fill="#FF6A00" opacity="0.46"/><circle cx="257.0" cy="228.8" r="2.2" fill="#FF6A00" opacity="0.52"/><circle cx="270.0" cy="236.3" r="2.2" fill="#FF6A00" opacity="0.57"/><circle cx="282.9" cy="243.7" r="2.2" fill="#FF6A00" opacity="0.61"/><circle cx="295.9" cy="251.2" r="2.2" fill="#FF6A00" opacity="0.64"/><circle cx="308.8" cy="258.7" r="2.2" fill="#FF6A00" opacity="0.64"/><circle cx="321.8" cy="266.2" r="2.2" fill="#FF6A00" opacity="0.61"/><circle cx="334.7" cy="273.7" r="2.2" fill="#FF6A00" opacity="0.57"/><circle cx="347.7" cy="281.1" r="2.2" fill="#FF6A00" opacity="0.52"/><circle cx="360.7" cy="288.6" r="2.2" fill="#FF6A00" opacity="0.46"/><circle cx="373.6" cy="296.1" r="1.7" fill="#FF6A00" opacity="0.41"/><circle cx="386.6" cy="303.6" r="1.7" fill="#FF6A00" opacity="0.35"/><circle cx="399.5" cy="311.1" r="1.7" fill="#FF6A00" opacity="0.29"/><circle cx="412.5" cy="318.5" r="1.7" fill="#FF6A00" opacity="0.23"/><circle cx="425.4" cy="326.0" r="1.3" fill="#FF6A00" opacity="0.18"/><circle cx="438.4" cy="333.5" r="1.3" fill="#FF6A00" opacity="0.12"/><circle cx="192.2" cy="176.4" r="1.7" fill="#FF6A00" opacity="0.22"/><circle cx="205.2" cy="183.9" r="1.7" fill="#FF6A00" opacity="0.28"/><circle cx="218.1" cy="191.4" r="1.7" fill="#FF6A00" opacity="0.33"/><circle cx="231.1" cy="198.9" r="1.7" fill="#FF6A00" opacity="0.39"/><circle cx="244.1" cy="206.3" r="2.2" fill="#FF6A00" opacity="0.45"/><circle cx="257.0" cy="213.8" r="2.2" fill="#FF6A00" opacity="0.51"/><circle cx="270.0" cy="221.3" r="2.2" fill="#FF6A00" opacity="0.56"/><circle cx="282.9" cy="228.8" r="2.2" fill="#FF6A00" opacity="0.62"/><circle cx="295.9" cy="236.3" r="2.2" fill="#FF6A00" opacity="0.67"/><circle cx="308.8" cy="243.7" r="2.2" fill="#FF6A00" opacity="0.69"/><circle cx="321.8" cy="251.2" r="2.2" fill="#FF6A00" opacity="0.67"/><circle cx="334.7" cy="258.7" r="2.2" fill="#FF6A00" opacity="0.62"/><circle cx="347.7" cy="266.2" r="2.2" fill="#FF6A00" opacity="0.56"/><circle cx="360.7" cy="273.7" r="2.2" fill="#FF6A00" opacity="0.51"/><circle cx="373.6" cy="281.1" r="2.2" fill="#FF6A00" opacity="0.45"/><circle cx="386.6" cy="288.6" r="1.7" fill="#FF6A00" opacity="0.39"/><circle cx="399.5" cy="296.1" r="1.7" fill="#FF6A00" opacity="0.33"/><circle cx="412.5" cy="303.6" r="1.7" fill="#FF6A00" opacity="0.27"/><circle cx="425.4" cy="311.1" r="1.7" fill="#FF6A00" opacity="0.21"/><circle cx="438.4" cy="318.5" r="1.3" fill="#FF6A00" opacity="0.16"/><circle cx="192.2" cy="161.5" r="1.3" fill="#FF6A00" opacity="0.19"/><circle cx="205.2" cy="168.9" r="1.7" fill="#FF6A00" opacity="0.25"/><circle cx="218.1" cy="176.4" r="1.7" fill="#FF6A00" opacity="0.31"/><circle cx="231.1" cy="183.9" r="1.7" fill="#FF6A00" opacity="0.37"/><circle cx="244.1" cy="191.4" r="1.7" fill="#FF6A00" opacity="0.43"/><circle cx="257.0" cy="198.9" r="2.2" fill="#FF6A00" opacity="0.49"/><circle cx="270.0" cy="206.3" r="2.2" fill="#FF6A00" opacity="0.54"/><circle cx="282.9" cy="213.8" r="2.2" fill="#FF6A00" opacity="0.60"/><circle cx="295.9" cy="221.3" r="2.2" fill="#FF6A00" opacity="0.66"/><circle cx="308.8" cy="228.8" r="2.2" fill="#FF6A00" opacity="0.72"/><circle cx="321.8" cy="236.3" r="2.2" fill="#FF6A00" opacity="0.72"/><circle cx="334.7" cy="243.7" r="2.2" fill="#FF6A00" opacity="0.66"/><circle cx="347.7" cy="251.2" r="2.2" fill="#FF6A00" opacity="0.60"/><circle cx="360.7" cy="258.7" r="2.2" fill="#FF6A00" opacity="0.54"/><circle cx="373.6" cy="266.2" r="2.2" fill="#FF6A00" opacity="0.48"/><circle cx="386.6" cy="273.7" r="1.7" fill="#FF6A00" opacity="0.42"/><circle cx="399.5" cy="281.1" r="1.7" fill="#FF6A00" opacity="0.36"/><circle cx="412.5" cy="288.6" r="1.7" fill="#FF6A00" opacity="0.31"/><circle cx="425.4" cy="296.1" r="1.7" fill="#FF6A00" opacity="0.25"/><circle cx="438.4" cy="303.6" r="1.3" fill="#FF6A00" opacity="0.19"/><circle cx="192.2" cy="146.5" r="1.3" fill="#FF6A00" opacity="0.16"/><circle cx="205.2" cy="154.0" r="1.7" fill="#FF6A00" opacity="0.22"/><circle cx="218.1" cy="161.5" r="1.7" fill="#FF6A00" opacity="0.28"/><circle cx="231.1" cy="168.9" r="1.7" fill="#FF6A00" opacity="0.34"/><circle cx="244.1" cy="176.4" r="1.7" fill="#FF6A00" opacity="0.39"/><circle cx="257.0" cy="183.9" r="2.2" fill="#FF6A00" opacity="0.45"/><circle cx="270.0" cy="191.4" r="2.2" fill="#FF6A00" opacity="0.51"/><circle cx="282.9" cy="198.9" r="2.2" fill="#FF6A00" opacity="0.57"/><circle cx="295.9" cy="206.3" r="2.2" fill="#FF6A00" opacity="0.63"/><circle cx="308.8" cy="213.8" r="2.2" fill="#FF6A00" opacity="0.68"/><circle cx="321.8" cy="221.3" r="2.2" fill="#FF6A00" opacity="0.71"/><circle cx="334.7" cy="228.8" r="2.2" fill="#FF6A00" opacity="0.68"/><circle cx="347.7" cy="236.3" r="2.2" fill="#FF6A00" opacity="0.62"/><circle cx="360.7" cy="243.7" r="2.2" fill="#FF6A00" opacity="0.57"/><circle cx="373.6" cy="251.2" r="2.2" fill="#FF6A00" opacity="0.51"/><circle cx="386.6" cy="258.7" r="2.2" fill="#FF6A00" opacity="0.45"/><circle cx="399.5" cy="266.2" r="1.7" fill="#FF6A00" opacity="0.39"/><circle cx="412.5" cy="273.7" r="1.7" fill="#FF6A00" opacity="0.33"/><circle cx="425.4" cy="281.1" r="1.7" fill="#FF6A00" opacity="0.27"/><circle cx="438.4" cy="288.6" r="1.7" fill="#FF6A00" opacity="0.22"/><circle cx="192.2" cy="131.5" r="1.3" fill="#FF6A00" opacity="0.12"/><circle cx="205.2" cy="139.0" r="1.3" fill="#FF6A00" opacity="0.18"/><circle cx="218.1" cy="146.5" r="1.7" fill="#FF6A00" opacity="0.24"/><circle cx="231.1" cy="154.0" r="1.7" fill="#FF6A00" opacity="0.30"/><circle cx="244.1" cy="161.5" r="1.7" fill="#FF6A00" opacity="0.36"/><circle cx="257.0" cy="168.9" r="1.7" fill="#FF6A00" opacity="0.41"/><circle cx="270.0" cy="176.4" r="2.2" fill="#FF6A00" opacity="0.47"/><circle cx="282.9" cy="183.9" r="2.2" fill="#FF6A00" opacity="0.52"/><circle cx="295.9" cy="191.4" r="2.2" fill="#FF6A00" opacity="0.58"/><circle cx="308.8" cy="198.9" r="2.2" fill="#FF6A00" opacity="0.62"/><circle cx="321.8" cy="206.3" r="2.2" fill="#FF6A00" opacity="0.65"/><circle cx="334.7" cy="213.8" r="2.2" fill="#FF6A00" opacity="0.65"/><circle cx="347.7" cy="221.3" r="2.2" fill="#FF6A00" opacity="0.62"/><circle cx="360.7" cy="228.8" r="2.2" fill="#FF6A00" opacity="0.57"/><circle cx="373.6" cy="236.3" r="2.2" fill="#FF6A00" opacity="0.52"/><circle cx="386.6" cy="243.7" r="2.2" fill="#FF6A00" opacity="0.47"/><circle cx="399.5" cy="251.2" r="1.7" fill="#FF6A00" opacity="0.41"/><circle cx="412.5" cy="258.7" r="1.7" fill="#FF6A00" opacity="0.35"/><circle cx="425.4" cy="266.2" r="1.7" fill="#FF6A00" opacity="0.30"/><circle cx="438.4" cy="273.7" r="1.7" fill="#FF6A00" opacity="0.24"/><circle cx="192.2" cy="116.6" r="1.3" fill="#FF6A00" opacity="0.09"/><circle cx="205.2" cy="124.1" r="1.3" fill="#FF6A00" opacity="0.14"/><circle cx="218.1" cy="131.5" r="1.7" fill="#FF6A00" opacity="0.20"/><circle cx="231.1" cy="139.0" r="1.7" fill="#FF6A00" opacity="0.26"/><circle cx="244.1" cy="146.5" r="1.7" fill="#FF6A00" opacity="0.31"/><circle cx="257.0" cy="154.0" r="1.7" fill="#FF6A00" opacity="0.37"/><circle cx="270.0" cy="161.5" r="1.7" fill="#FF6A00" opacity="0.42"/><circle cx="282.9" cy="168.9" r="2.2" fill="#FF6A00" opacity="0.47"/><circle cx="295.9" cy="176.4" r="2.2" fill="#FF6A00" opacity="0.52"/><circle cx="308.8" cy="183.9" r="2.2" fill="#FF6A00" opacity="0.56"/><circle cx="321.8" cy="191.4" r="2.2" fill="#FF6A00" opacity="0.59"/><circle cx="334.7" cy="198.9" r="2.2" fill="#FF6A00" opacity="0.60"/><circle cx="347.7" cy="206.3" r="2.2" fill="#FF6A00" opacity="0.59"/><circle cx="360.7" cy="213.8" r="2.2" fill="#FF6A00" opacity="0.56"/><circle cx="373.6" cy="221.3" r="2.2" fill="#FF6A00" opacity="0.52"/><circle cx="386.6" cy="228.8" r="2.2" fill="#FF6A00" opacity="0.47"/><circle cx="399.5" cy="236.3" r="1.7" fill="#FF6A00" opacity="0.42"/><circle cx="412.5" cy="243.7" r="1.7" fill="#FF6A00" opacity="0.37"/><circle cx="425.4" cy="251.2" r="1.7" fill="#FF6A00" opacity="0.31"/><circle cx="438.4" cy="258.7" r="1.7" fill="#FF6A00" opacity="0.25"/><circle cx="192.2" cy="101.6" r="1.3" fill="#FF6A00" opacity="0.06"/><circle cx="205.2" cy="109.1" r="1.3" fill="#FF6A00" opacity="0.10"/><circle cx="218.1" cy="116.6" r="1.3" fill="#FF6A00" opacity="0.16"/><circle cx="231.1" cy="124.1" r="1.7" fill="#FF6A00" opacity="0.21"/><circle cx="244.1" cy="131.5" r="1.7" fill="#FF6A00" opacity="0.27"/><circle cx="257.0" cy="139.0" r="1.7" fill="#FF6A00" opacity="0.32"/><circle cx="270.0" cy="146.5" r="1.7" fill="#FF6A00" opacity="0.37"/><circle cx="282.9" cy="154.0" r="1.7" fill="#FF6A00" opacity="0.42"/><circle cx="295.9" cy="161.5" r="2.2" fill="#FF6A00" opacity="0.47"/><circle cx="308.8" cy="168.9" r="2.2" fill="#FF6A00" opacity="0.50"/><circle cx="321.8" cy="176.4" r="2.2" fill="#FF6A00" opacity="0.53"/><circle cx="334.7" cy="183.9" r="2.2" fill="#FF6A00" opacity="0.55"/><circle cx="347.7" cy="191.4" r="2.2" fill="#FF6A00" opacity="0.55"/><circle cx="360.7" cy="198.9" r="2.2" fill="#FF6A00" opacity="0.53"/><circle cx="373.6" cy="206.3" r="2.2" fill="#FF6A00" opacity="0.50"/><circle cx="386.6" cy="213.8" r="2.2" fill="#FF6A00" opacity="0.46"/><circle cx="399.5" cy="221.3" r="1.7" fill="#FF6A00" opacity="0.42"/><circle cx="412.5" cy="228.8" r="1.7" fill="#FF6A00" opacity="0.37"/><circle cx="425.4" cy="236.3" r="1.7" fill="#FF6A00" opacity="0.32"/><circle cx="438.4" cy="243.7" r="1.7" fill="#FF6A00" opacity="0.26"/><circle cx="192.2" cy="86.7" r="1.3" fill="#FF6A00" opacity="0.06"/><circle cx="205.2" cy="94.1" r="1.3" fill="#FF6A00" opacity="0.06"/><circle cx="218.1" cy="101.6" r="1.3" fill="#FF6A00" opacity="0.11"/><circle cx="231.1" cy="109.1" r="1.3" fill="#FF6A00" opacity="0.16"/><circle cx="244.1" cy="116.6" r="1.7" fill="#FF6A00" opacity="0.22"/><circle cx="257.0" cy="124.1" r="1.7" fill="#FF6A00" opacity="0.27"/><circle cx="270.0" cy="131.5" r="1.7" fill="#FF6A00" opacity="0.32"/><circle cx="282.9" cy="139.0" r="1.7" fill="#FF6A00" opacity="0.36"/><circle cx="295.9" cy="146.5" r="1.7" fill="#FF6A00" opacity="0.41"/><circle cx="308.8" cy="154.0" r="2.2" fill="#FF6A00" opacity="0.45"/><circle cx="321.8" cy="161.5" r="2.2" fill="#FF6A00" opacity="0.48"/><circle cx="334.7" cy="168.9" r="2.2" fill="#FF6A00" opacity="0.49"/><circle cx="347.7" cy="176.4" r="2.2" fill="#FF6A00" opacity="0.50"/><circle cx="360.7" cy="183.9" r="2.2" fill="#FF6A00" opacity="0.49"/><circle cx="373.6" cy="191.4" r="2.2" fill="#FF6A00" opacity="0.47"/><circle cx="386.6" cy="198.9" r="2.2" fill="#FF6A00" opacity="0.44"/><circle cx="399.5" cy="206.3" r="1.7" fill="#FF6A00" opacity="0.41"/><circle cx="412.5" cy="213.8" r="1.7" fill="#FF6A00" opacity="0.36"/><circle cx="425.4" cy="221.3" r="1.7" fill="#FF6A00" opacity="0.32"/><circle cx="438.4" cy="228.8" r="1.7" fill="#FF6A00" opacity="0.27"/><circle cx="192.2" cy="71.7" r="1.3" fill="#FF6A00" opacity="0.06"/><circle cx="205.2" cy="79.2" r="1.3" fill="#FF6A00" opacity="0.06"/><circle cx="218.1" cy="86.7" r="1.3" fill="#FF6A00" opacity="0.06"/><circle cx="231.1" cy="94.1" r="1.3" fill="#FF6A00" opacity="0.12"/><circle cx="244.1" cy="101.6" r="1.3" fill="#FF6A00" opacity="0.17"/><circle cx="257.0" cy="109.1" r="1.7" fill="#FF6A00" opacity="0.22"/><circle cx="270.0" cy="116.6" r="1.7" fill="#FF6A00" opacity="0.26"/><circle cx="282.9" cy="124.1" r="1.7" fill="#FF6A00" opacity="0.31"/><circle cx="295.9" cy="131.5" r="1.7" fill="#FF6A00" opacity="0.35"/><circle cx="308.8" cy="139.0" r="1.7" fill="#FF6A00" opacity="0.39"/><circle cx="321.8" cy="146.5" r="1.7" fill="#FF6A00" opacity="0.42"/><circle cx="334.7" cy="154.0" r="2.2" fill="#FF6A00" opacity="0.44"/><circle cx="347.7" cy="161.5" r="2.2" fill="#FF6A00" opacity="0.45"/><circle cx="360.7" cy="168.9" r="2.2" fill="#FF6A00" opacity="0.45"/><circle cx="373.6" cy="176.4" r="2.2" fill="#FF6A00" opacity="0.44"/><circle cx="386.6" cy="183.9" r="1.7" fill="#FF6A00" opacity="0.42"/><circle cx="399.5" cy="191.4" r="1.7" fill="#FF6A00" opacity="0.39"/><circle cx="412.5" cy="198.9" r="1.7" fill="#FF6A00" opacity="0.35"/><circle cx="425.4" cy="206.3" r="1.7" fill="#FF6A00" opacity="0.31"/><circle cx="438.4" cy="213.8" r="1.7" fill="#FF6A00" opacity="0.26"/>
  <!-- center bloom -->
  <circle cx="315.9" cy="230.8" r="60" fill="#FF6A00" opacity="0.10"/>
  <circle cx="315.9" cy="230.8" r="28" fill="#FF6A00" opacity="0.14"/>
</svg>