<svg xmlns="http://www.w3.org/2000/svg" width="600" height="480" viewBox="0 0 600 480">
  <defs>
    <filter id="sh" x="-20%" y="-20%" width="140%" height="160%">
      <feDropShadow dx="0" dy="6" stdDeviation="14" flood-color="#000" flood-opacity="0.15"/>
    </filter>
  </defs>
  <rect width="600" height="480" fill="#fff"/>
  <ellipse cx="265" cy="371" rx="195" ry="14" fill="#000" opacity="0.05"/>
  <g filter="url(#sh)">
    <!-- top face -->
    <polygon points="443.7,208.0 196.4,65.2 156.3,88.4 403.6,231.2" fill="#17192a"/>
    <!-- left edge -->
    <polygon points="443.7,391.6 443.7,208.0 403.6,231.2 403.6,414.8" fill="#1d1f2f"/>
    <!-- back face (main) -->
    <polygon points="443.7,391.6 196.4,248.8 196.4,65.2 443.7,208.0" fill="#12131e"/>
  </g>
  <polygon points="426.0,361.0 214.0,238.6 214.0,95.8 426.0,218.2" fill="#1a1c2a" stroke="none"/><polygon points="423.1,355.9 217.0,236.9 217.0,100.9 423.1,219.9" fill="#1e2130" stroke="none"/><polygon points="340.6,318.5 299.4,294.7 299.4,268.9 340.6,292.7" fill="#333648" stroke="none"/><circle cx="328.3" cy="298.5" r="7" fill="#555870"/><circle cx="320.0" cy="293.7" r="7" fill="#555870"/><circle cx="311.8" cy="289.0" r="7" fill="#555870"/><polygon points="420.1,364.4 391.9,348.1 391.9,327.7 420.1,344.0" fill="#333648" stroke="none"/><polygon points="420.1,361.7 391.9,345.4 391.9,338.6 420.1,354.9" fill="#444860" stroke="none"/><polygon points="420.1,352.2 391.9,335.9 391.9,330.4 420.1,346.8" fill="#444860" stroke="none"/><circle cx="225.8" cy="242.0" r="12" fill="#2e3145"/><circle cx="225.8" cy="242.0" r="7" fill="#555870"/><circle cx="426.0" cy="361.0" r="8" fill="#222433"/><circle cx="426.0" cy="361.0" r="3" fill="#444860"/><circle cx="214.0" cy="238.6" r="8" fill="#222433"/><circle cx="214.0" cy="238.6" r="3" fill="#444860"/><circle cx="426.0" cy="218.2" r="8" fill="#222433"/><circle cx="426.0" cy="218.2" r="3" fill="#444860"/><circle cx="214.0" cy="95.8" r="8" fill="#222433"/><circle cx="214.0" cy="95.8" r="3" fill="#444860"/><circle cx="320.0" cy="299.8" r="8" fill="#222433"/><circle cx="320.0" cy="299.8" r="3" fill="#444860"/><polygon points="408.4,316.8 231.7,214.8 231.7,211.4 408.4,313.4" fill="#151724" stroke="none"/><polygon points="408.4,306.6 231.7,204.6 231.7,201.2 408.4,303.2" fill="#151724" stroke="none"/><polygon points="408.4,296.4 231.7,194.4 231.7,191.0 408.4,293.0" fill="#151724" stroke="none"/><polygon points="408.4,286.2 231.7,184.2 231.7,180.8 408.4,282.8" fill="#151724" stroke="none"/><polygon points="408.4,276.0 231.7,174.0 231.7,170.6 408.4,272.6" fill="#151724" stroke="none"/><polygon points="408.4,265.8 231.7,163.8 231.7,160.4 408.4,262.4" fill="#151724" stroke="none"/><polygon points="408.4,255.6 231.7,153.6 231.7,150.2 408.4,252.2" fill="#151724" stroke="none"/><polygon points="408.4,245.4 231.7,143.4 231.7,140.0 408.4,242.0" fill="#151724" stroke="none"/><polygon points="408.4,235.2 231.7,133.2 231.7,129.8 408.4,231.8" fill="#151724" stroke="none"/><polygon points="408.4,225.0 231.7,123.0 231.7,119.6 408.4,221.6" fill="#151724" stroke="none"/>
  <!-- series color accent on left edge -->
  <polygon points="443.7,391.6 443.7,208.0 403.6,231.2 403.6,414.8" fill="#FFB020" opacity="0.25"/>
</svg>