<svg xmlns="http://www.w3.org/2000/svg" width="600" height="700" viewBox="0 0 600 700">
  <defs>
    <radialGradient id="bg" cx="50%" cy="50%" r="60%">
      <stop offset="0%" stop-color="#101218"/>
      <stop offset="100%" stop-color="#08090d"/>
    </radialGradient>
    <radialGradient id="glow" cx="50%" cy="50%" r="50%">
      <stop offset="0%" stop-color="#6A5ACD" stop-opacity="0.12"/>
      <stop offset="100%" stop-color="#6A5ACD" stop-opacity="0"/>
    </radialGradient>
    <filter id="bloom" x="-30%" y="-30%" width="160%" height="160%">
      <feGaussianBlur in="SourceGraphic" stdDeviation="3" result="blur"/>
      <feMerge><feMergeNode in="blur"/><feMergeNode in="SourceGraphic"/></feMerge>
    </filter>
  </defs>

  <!-- Background -->
  <rect width="600" height="700" fill="url(#bg)"/>
  <rect x="20" y="30" width="560" height="640" fill="url(#glow)"/>

  <!-- Outer scan lines texture -->
  <line x1="0" y1="0" x2="600" y2="0" stroke="#6A5ACD" stroke-opacity="0.02" stroke-width="1"/><line x1="0" y1="20" x2="600" y2="20" stroke="#6A5ACD" stroke-opacity="0.02" stroke-width="1"/><line x1="0" y1="40" x2="600" y2="40" stroke="#6A5ACD" stroke-opacity="0.02" stroke-width="1"/><line x1="0" y1="60" x2="600" y2="60" stroke="#6A5ACD" stroke-opacity="0.02" stroke-width="1"/><line x1="0" y1="80" x2="600" y2="80" stroke="#6A5ACD" stroke-opacity="0.02" stroke-width="1"/><line x1="0" y1="100" x2="600" y2="100" stroke="#6A5ACD" stroke-opacity="0.02" stroke-width="1"/><line x1="0" y1="120" x2="600" y2="120" stroke="#6A5ACD" stroke-opacity="0.02" stroke-width="1"/><line x1="0" y1="140" x2="600" y2="140" stroke="#6A5ACD" stroke-opacity="0.02" stroke-width="1"/><line x1="0" y1="160" x2="600" y2="160" stroke="#6A5ACD" stroke-opacity="0.02" stroke-width="1"/><line x1="0" y1="180" x2="600" y2="180" stroke="#6A5ACD" stroke-opacity="0.02" stroke-width="1"/><line x1="0" y1="200" x2="600" y2="200" stroke="#6A5ACD" stroke-opacity="0.02" stroke-width="1"/><line x1="0" y1="220" x2="600" y2="220" stroke="#6A5ACD" stroke-opacity="0.02" stroke-width="1"/><line x1="0" y1="240" x2="600" y2="240" stroke="#6A5ACD" stroke-opacity="0.02" stroke-width="1"/><line x1="0" y1="260" x2="600" y2="260" stroke="#6A5ACD" stroke-opacity="0.02" stroke-width="1"/><line x1="0" y1="280" x2="600" y2="280" stroke="#6A5ACD" stroke-opacity="0.02" stroke-width="1"/><line x1="0" y1="300" x2="600" y2="300" stroke="#6A5ACD" stroke-opacity="0.02" stroke-width="1"/><line x1="0" y1="320" x2="600" y2="320" stroke="#6A5ACD" stroke-opacity="0.02" stroke-width="1"/><line x1="0" y1="340" x2="600" y2="340" stroke="#6A5ACD" stroke-opacity="0.02" stroke-width="1"/><line x1="0" y1="360" x2="600" y2="360" stroke="#6A5ACD" stroke-opacity="0.02" stroke-width="1"/><line x1="0" y1="380" x2="600" y2="380" stroke="#6A5ACD" stroke-opacity="0.02" stroke-width="1"/><line x1="0" y1="400" x2="600" y2="400" stroke="#6A5ACD" stroke-opacity="0.02" stroke-width="1"/><line x1="0" y1="420" x2="600" y2="420" stroke="#6A5ACD" stroke-opacity="0.02" stroke-width="1"/><line x1="0" y1="440" x2="600" y2="440" stroke="#6A5ACD" stroke-opacity="0.02" stroke-width="1"/><line x1="0" y1="460" x2="600" y2="460" stroke="#6A5ACD" stroke-opacity="0.02" stroke-width="1"/><line x1="0" y1="480" x2="600" y2="480" stroke="#6A5ACD" stroke-opacity="0.02" stroke-width="1"/><line x1="0" y1="500" x2="600" y2="500" stroke="#6A5ACD" stroke-opacity="0.02" stroke-width="1"/><line x1="0" y1="520" x2="600" y2="520" stroke="#6A5ACD" stroke-opacity="0.02" stroke-width="1"/><line x1="0" y1="540" x2="600" y2="540" stroke="#6A5ACD" stroke-opacity="0.02" stroke-width="1"/><line x1="0" y1="560" x2="600" y2="560" stroke="#6A5ACD" stroke-opacity="0.02" stroke-width="1"/><line x1="0" y1="580" x2="600" y2="580" stroke="#6A5ACD" stroke-opacity="0.02" stroke-width="1"/><line x1="0" y1="600" x2="600" y2="600" stroke="#6A5ACD" stroke-opacity="0.02" stroke-width="1"/><line x1="0" y1="620" x2="600" y2="620" stroke="#6A5ACD" stroke-opacity="0.02" stroke-width="1"/><line x1="0" y1="640" x2="600" y2="640" stroke="#6A5ACD" stroke-opacity="0.02" stroke-width="1"/><line x1="0" y1="660" x2="600" y2="660" stroke="#6A5ACD" stroke-opacity="0.02" stroke-width="1"/><line x1="0" y1="680" x2="600" y2="680" stroke="#6A5ACD" stroke-opacity="0.02" stroke-width="1"/>

  <!-- Panel border -->
  <rect x="40" y="50" width="520" height="600" fill="#0d0e14" stroke="#6A5ACD" stroke-opacity="0.45" stroke-width="1.5" rx="2"/>
  <rect x="44" y="54" width="512" height="592" fill="none" stroke="#6A5ACD" stroke-opacity="0.12" stroke-width="0.5" rx="1"/>

  <!-- LED grid with glow -->
  <g filter="url(#bloom)"><circle cx="82.8" cy="93.3" r="7.16" fill="#6A5ACD" opacity="0.18"/><circle cx="108.3" cy="93.3" r="7.16" fill="#6A5ACD" opacity="0.21"/><circle cx="133.9" cy="93.3" r="7.16" fill="#6A5ACD" opacity="0.24"/><circle cx="159.4" cy="93.3" r="7.16" fill="#6A5ACD" opacity="0.26"/><circle cx="185.0" cy="93.3" r="7.16" fill="#6A5ACD" opacity="0.28"/><circle cx="210.6" cy="93.3" r="7.16" fill="#6A5ACD" opacity="0.30"/><circle cx="236.1" cy="93.3" r="7.16" fill="#6A5ACD" opacity="0.31"/><circle cx="261.7" cy="93.3" r="7.16" fill="#6A5ACD" opacity="0.32"/><circle cx="287.2" cy="93.3" r="7.16" fill="#6A5ACD" opacity="0.32"/><circle cx="312.8" cy="93.3" r="7.16" fill="#6A5ACD" opacity="0.32"/><circle cx="338.3" cy="93.3" r="7.16" fill="#6A5ACD" opacity="0.32"/><circle cx="363.9" cy="93.3" r="7.16" fill="#6A5ACD" opacity="0.31"/><circle cx="389.4" cy="93.3" r="7.16" fill="#6A5ACD" opacity="0.30"/><circle cx="415.0" cy="93.3" r="7.16" fill="#6A5ACD" opacity="0.28"/><circle cx="440.6" cy="93.3" r="7.16" fill="#6A5ACD" opacity="0.26"/><circle cx="466.1" cy="93.3" r="7.16" fill="#6A5ACD" opacity="0.24"/><circle cx="491.7" cy="93.3" r="7.16" fill="#6A5ACD" opacity="0.21"/><circle cx="517.2" cy="93.3" r="7.16" fill="#6A5ACD" opacity="0.18"/><circle cx="82.8" cy="120.0" r="7.16" fill="#6A5ACD" opacity="0.22"/><circle cx="108.3" cy="120.0" r="7.16" fill="#6A5ACD" opacity="0.25"/><circle cx="133.9" cy="120.0" r="7.16" fill="#6A5ACD" opacity="0.28"/><circle cx="159.4" cy="120.0" r="7.16" fill="#6A5ACD" opacity="0.30"/><circle cx="185.0" cy="120.0" r="7.16" fill="#6A5ACD" opacity="0.32"/><circle cx="210.6" cy="120.0" r="7.16" fill="#6A5ACD" opacity="0.34"/><circle cx="236.1" cy="120.0" r="7.16" fill="#6A5ACD" opacity="0.35"/><circle cx="261.7" cy="120.0" r="7.16" fill="#6A5ACD" opacity="0.36"/><circle cx="287.2" cy="120.0" r="7.16" fill="#6A5ACD" opacity="0.37"/><circle cx="312.8" cy="120.0" r="7.16" fill="#6A5ACD" opacity="0.37"/><circle cx="338.3" cy="120.0" r="7.16" fill="#6A5ACD" opacity="0.36"/><circle cx="363.9" cy="120.0" r="7.16" fill="#6A5ACD" opacity="0.35"/><circle cx="389.4" cy="120.0" r="7.16" fill="#6A5ACD" opacity="0.34"/><circle cx="415.0" cy="120.0" r="7.16" fill="#6A5ACD" opacity="0.32"/><circle cx="440.6" cy="120.0" r="7.16" fill="#6A5ACD" opacity="0.30"/><circle cx="466.1" cy="120.0" r="7.16" fill="#6A5ACD" opacity="0.28"/><circle cx="491.7" cy="120.0" r="7.16" fill="#6A5ACD" opacity="0.25"/><circle cx="517.2" cy="120.0" r="7.16" fill="#6A5ACD" opacity="0.22"/><circle cx="82.8" cy="146.7" r="7.16" fill="#6A5ACD" opacity="0.25"/><circle cx="108.3" cy="146.7" r="7.16" fill="#6A5ACD" opacity="0.29"/><circle cx="133.9" cy="146.7" r="7.16" fill="#6A5ACD" opacity="0.31"/><circle cx="159.4" cy="146.7" r="7.16" fill="#6A5ACD" opacity="0.34"/><circle cx="185.0" cy="146.7" r="7.16" fill="#6A5ACD" opacity="0.37"/><circle cx="210.6" cy="146.7" r="7.16" fill="#6A5ACD" opacity="0.39"/><circle cx="236.1" cy="146.7" r="7.16" fill="#6A5ACD" opacity="0.40"/><circle cx="261.7" cy="146.7" r="7.16" fill="#6A5ACD" opacity="0.41"/><circle cx="287.2" cy="146.7" r="7.16" fill="#6A5ACD" opacity="0.42"/><circle cx="312.8" cy="146.7" r="7.16" fill="#6A5ACD" opacity="0.42"/><circle cx="338.3" cy="146.7" r="7.16" fill="#6A5ACD" opacity="0.41"/><circle cx="363.9" cy="146.7" r="7.16" fill="#6A5ACD" opacity="0.40"/><circle cx="389.4" cy="146.7" r="7.16" fill="#6A5ACD" opacity="0.39"/><circle cx="415.0" cy="146.7" r="7.16" fill="#6A5ACD" opacity="0.37"/><circle cx="440.6" cy="146.7" r="7.16" fill="#6A5ACD" opacity="0.34"/><circle cx="466.1" cy="146.7" r="7.16" fill="#6A5ACD" opacity="0.31"/><circle cx="491.7" cy="146.7" r="7.16" fill="#6A5ACD" opacity="0.29"/><circle cx="517.2" cy="146.7" r="7.16" fill="#6A5ACD" opacity="0.25"/><circle cx="82.8" cy="173.3" r="7.16" fill="#6A5ACD" opacity="0.29"/><circle cx="108.3" cy="173.3" r="7.16" fill="#6A5ACD" opacity="0.32"/><circle cx="133.9" cy="173.3" r="7.16" fill="#6A5ACD" opacity="0.35"/><circle cx="159.4" cy="173.3" r="7.16" fill="#6A5ACD" opacity="0.38"/><circle cx="185.0" cy="173.3" r="7.16" fill="#6A5ACD" opacity="0.41"/><circle cx="210.6" cy="173.3" r="7.16" fill="#6A5ACD" opacity="0.43"/><circle cx="236.1" cy="173.3" r="7.16" fill="#6A5ACD" opacity="0.45"/><circle cx="261.7" cy="173.3" r="7.16" fill="#6A5ACD" opacity="0.46"/><circle cx="287.2" cy="173.3" r="7.16" fill="#6A5ACD" opacity="0.46"/><circle cx="312.8" cy="173.3" r="7.16" fill="#6A5ACD" opacity="0.46"/><circle cx="338.3" cy="173.3" r="7.16" fill="#6A5ACD" opacity="0.46"/><circle cx="363.9" cy="173.3" r="7.16" fill="#6A5ACD" opacity="0.45"/><circle cx="389.4" cy="173.3" r="7.16" fill="#6A5ACD" opacity="0.43"/><circle cx="415.0" cy="173.3" r="7.16" fill="#6A5ACD" opacity="0.41"/><circle cx="440.6" cy="173.3" r="7.16" fill="#6A5ACD" opacity="0.38"/><circle cx="466.1" cy="173.3" r="7.16" fill="#6A5ACD" opacity="0.35"/><circle cx="491.7" cy="173.3" r="7.16" fill="#6A5ACD" opacity="0.32"/><circle cx="517.2" cy="173.3" r="7.16" fill="#6A5ACD" opacity="0.29"/><circle cx="82.8" cy="200.0" r="7.16" fill="#6A5ACD" opacity="0.32"/><circle cx="108.3" cy="200.0" r="7.16" fill="#6A5ACD" opacity="0.35"/><circle cx="133.9" cy="200.0" r="7.16" fill="#6A5ACD" opacity="0.39"/><circle cx="159.4" cy="200.0" r="7.16" fill="#6A5ACD" opacity="0.42"/><circle cx="185.0" cy="200.0" r="7.16" fill="#6A5ACD" opacity="0.45"/><circle cx="210.6" cy="200.0" r="7.16" fill="#6A5ACD" opacity="0.47"/><circle cx="236.1" cy="200.0" r="7.16" fill="#6A5ACD" opacity="0.49"/><circle cx="261.7" cy="200.0" r="7.16" fill="#6A5ACD" opacity="0.50"/><circle cx="287.2" cy="200.0" r="7.16" fill="#6A5ACD" opacity="0.51"/><circle cx="312.8" cy="200.0" r="7.16" fill="#6A5ACD" opacity="0.51"/><circle cx="338.3" cy="200.0" r="7.16" fill="#6A5ACD" opacity="0.50"/><circle cx="363.9" cy="200.0" r="7.16" fill="#6A5ACD" opacity="0.49"/><circle cx="389.4" cy="200.0" r="7.16" fill="#6A5ACD" opacity="0.47"/><circle cx="415.0" cy="200.0" r="7.16" fill="#6A5ACD" opacity="0.45"/><circle cx="440.6" cy="200.0" r="7.16" fill="#6A5ACD" opacity="0.42"/><circle cx="466.1" cy="200.0" r="7.16" fill="#6A5ACD" opacity="0.39"/><circle cx="491.7" cy="200.0" r="7.16" fill="#6A5ACD" opacity="0.35"/><circle cx="517.2" cy="200.0" r="7.16" fill="#6A5ACD" opacity="0.32"/><circle cx="82.8" cy="226.7" r="7.16" fill="#6A5ACD" opacity="0.34"/><circle cx="108.3" cy="226.7" r="7.16" fill="#6A5ACD" opacity="0.38"/><circle cx="133.9" cy="226.7" r="7.16" fill="#6A5ACD" opacity="0.42"/><circle cx="159.4" cy="226.7" r="7.16" fill="#6A5ACD" opacity="0.45"/><circle cx="185.0" cy="226.7" r="7.16" fill="#6A5ACD" opacity="0.48"/><circle cx="210.6" cy="226.7" r="7.16" fill="#6A5ACD" opacity="0.51"/><circle cx="236.1" cy="226.7" r="7.16" fill="#6A5ACD" opacity="0.53"/><circle cx="261.7" cy="226.7" r="7.16" fill="#6A5ACD" opacity="0.55"/><circle cx="261.7" cy="226.7" r="17.89" fill="#6A5ACD" opacity="0.083"/><circle cx="287.2" cy="226.7" r="7.16" fill="#6A5ACD" opacity="0.56"/><circle cx="287.2" cy="226.7" r="17.89" fill="#6A5ACD" opacity="0.085"/><circle cx="312.8" cy="226.7" r="7.16" fill="#6A5ACD" opacity="0.56"/><circle cx="312.8" cy="226.7" r="17.89" fill="#6A5ACD" opacity="0.085"/><circle cx="338.3" cy="226.7" r="7.16" fill="#6A5ACD" opacity="0.55"/><circle cx="338.3" cy="226.7" r="17.89" fill="#6A5ACD" opacity="0.083"/><circle cx="363.9" cy="226.7" r="7.16" fill="#6A5ACD" opacity="0.53"/><circle cx="389.4" cy="226.7" r="7.16" fill="#6A5ACD" opacity="0.51"/><circle cx="415.0" cy="226.7" r="7.16" fill="#6A5ACD" opacity="0.48"/><circle cx="440.6" cy="226.7" r="7.16" fill="#6A5ACD" opacity="0.45"/><circle cx="466.1" cy="226.7" r="7.16" fill="#6A5ACD" opacity="0.42"/><circle cx="491.7" cy="226.7" r="7.16" fill="#6A5ACD" opacity="0.38"/><circle cx="517.2" cy="226.7" r="7.16" fill="#6A5ACD" opacity="0.34"/><circle cx="82.8" cy="253.3" r="7.16" fill="#6A5ACD" opacity="0.37"/><circle cx="108.3" cy="253.3" r="7.16" fill="#6A5ACD" opacity="0.41"/><circle cx="133.9" cy="253.3" r="7.16" fill="#6A5ACD" opacity="0.45"/><circle cx="159.4" cy="253.3" r="7.16" fill="#6A5ACD" opacity="0.48"/><circle cx="185.0" cy="253.3" r="7.16" fill="#6A5ACD" opacity="0.52"/><circle cx="210.6" cy="253.3" r="7.16" fill="#6A5ACD" opacity="0.55"/><circle cx="210.6" cy="253.3" r="17.89" fill="#6A5ACD" opacity="0.083"/><circle cx="236.1" cy="253.3" r="7.16" fill="#6A5ACD" opacity="0.58"/><circle cx="236.1" cy="253.3" r="17.89" fill="#6A5ACD" opacity="0.089"/><circle cx="261.7" cy="253.3" r="7.16" fill="#6A5ACD" opacity="0.60"/><circle cx="261.7" cy="253.3" r="17.89" fill="#6A5ACD" opacity="0.093"/><circle cx="287.2" cy="253.3" r="7.16" fill="#6A5ACD" opacity="0.61"/><circle cx="287.2" cy="253.3" r="17.89" fill="#6A5ACD" opacity="0.095"/><circle cx="312.8" cy="253.3" r="7.16" fill="#6A5ACD" opacity="0.61"/><circle cx="312.8" cy="253.3" r="17.89" fill="#6A5ACD" opacity="0.095"/><circle cx="338.3" cy="253.3" r="7.16" fill="#6A5ACD" opacity="0.60"/><circle cx="338.3" cy="253.3" r="17.89" fill="#6A5ACD" opacity="0.093"/><circle cx="363.9" cy="253.3" r="7.16" fill="#6A5ACD" opacity="0.58"/><circle cx="363.9" cy="253.3" r="17.89" fill="#6A5ACD" opacity="0.089"/><circle cx="389.4" cy="253.3" r="7.16" fill="#6A5ACD" opacity="0.55"/><circle cx="389.4" cy="253.3" r="17.89" fill="#6A5ACD" opacity="0.083"/><circle cx="415.0" cy="253.3" r="7.16" fill="#6A5ACD" opacity="0.52"/><circle cx="440.6" cy="253.3" r="7.16" fill="#6A5ACD" opacity="0.48"/><circle cx="466.1" cy="253.3" r="7.16" fill="#6A5ACD" opacity="0.45"/><circle cx="491.7" cy="253.3" r="7.16" fill="#6A5ACD" opacity="0.41"/><circle cx="517.2" cy="253.3" r="7.16" fill="#6A5ACD" opacity="0.37"/><circle cx="82.8" cy="280.0" r="7.16" fill="#6A5ACD" opacity="0.38"/><circle cx="108.3" cy="280.0" r="7.16" fill="#6A5ACD" opacity="0.43"/><circle cx="133.9" cy="280.0" r="7.16" fill="#6A5ACD" opacity="0.47"/><circle cx="159.4" cy="280.0" r="7.16" fill="#6A5ACD" opacity="0.51"/><circle cx="185.0" cy="280.0" r="7.16" fill="#6A5ACD" opacity="0.55"/><circle cx="185.0" cy="280.0" r="17.89" fill="#6A5ACD" opacity="0.083"/><circle cx="210.6" cy="280.0" r="7.16" fill="#6A5ACD" opacity="0.58"/><circle cx="210.6" cy="280.0" r="17.89" fill="#6A5ACD" opacity="0.090"/><circle cx="236.1" cy="280.0" r="7.16" fill="#6A5ACD" opacity="0.62"/><circle cx="236.1" cy="280.0" r="17.89" fill="#6A5ACD" opacity="0.097"/><circle cx="261.7" cy="280.0" r="7.16" fill="#6A5ACD" opacity="0.64"/><circle cx="261.7" cy="280.0" r="17.89" fill="#6A5ACD" opacity="0.102"/><circle cx="287.2" cy="280.0" r="7.16" fill="#6A5ACD" opacity="0.65"/><circle cx="287.2" cy="280.0" r="17.89" fill="#6A5ACD" opacity="0.105"/><circle cx="312.8" cy="280.0" r="7.16" fill="#6A5ACD" opacity="0.65"/><circle cx="312.8" cy="280.0" r="17.89" fill="#6A5ACD" opacity="0.105"/><circle cx="338.3" cy="280.0" r="7.16" fill="#6A5ACD" opacity="0.64"/><circle cx="338.3" cy="280.0" r="17.89" fill="#6A5ACD" opacity="0.102"/><circle cx="363.9" cy="280.0" r="7.16" fill="#6A5ACD" opacity="0.62"/><circle cx="363.9" cy="280.0" r="17.89" fill="#6A5ACD" opacity="0.097"/><circle cx="389.4" cy="280.0" r="7.16" fill="#6A5ACD" opacity="0.58"/><circle cx="389.4" cy="280.0" r="17.89" fill="#6A5ACD" opacity="0.090"/><circle cx="415.0" cy="280.0" r="7.16" fill="#6A5ACD" opacity="0.55"/><circle cx="415.0" cy="280.0" r="17.89" fill="#6A5ACD" opacity="0.083"/><circle cx="440.6" cy="280.0" r="7.16" fill="#6A5ACD" opacity="0.51"/><circle cx="466.1" cy="280.0" r="7.16" fill="#6A5ACD" opacity="0.47"/><circle cx="491.7" cy="280.0" r="7.16" fill="#6A5ACD" opacity="0.43"/><circle cx="517.2" cy="280.0" r="7.16" fill="#6A5ACD" opacity="0.38"/><circle cx="82.8" cy="306.7" r="7.16" fill="#6A5ACD" opacity="0.40"/><circle cx="108.3" cy="306.7" r="7.16" fill="#6A5ACD" opacity="0.44"/><circle cx="133.9" cy="306.7" r="7.16" fill="#6A5ACD" opacity="0.49"/><circle cx="159.4" cy="306.7" r="7.16" fill="#6A5ACD" opacity="0.53"/><circle cx="185.0" cy="306.7" r="7.16" fill="#6A5ACD" opacity="0.57"/><circle cx="185.0" cy="306.7" r="17.89" fill="#6A5ACD" opacity="0.088"/><circle cx="210.6" cy="306.7" r="7.16" fill="#6A5ACD" opacity="0.61"/><circle cx="210.6" cy="306.7" r="17.89" fill="#6A5ACD" opacity="0.096"/><circle cx="236.1" cy="306.7" r="7.16" fill="#6A5ACD" opacity="0.65"/><circle cx="236.1" cy="306.7" r="17.89" fill="#6A5ACD" opacity="0.104"/><circle cx="261.7" cy="306.7" r="7.16" fill="#6A5ACD" opacity="0.68"/><circle cx="261.7" cy="306.7" r="17.89" fill="#6A5ACD" opacity="0.111"/><circle cx="287.2" cy="306.7" r="7.16" fill="#6A5ACD" opacity="0.70"/><circle cx="287.2" cy="306.7" r="17.89" fill="#6A5ACD" opacity="0.115"/><circle cx="312.8" cy="306.7" r="7.16" fill="#6A5ACD" opacity="0.70"/><circle cx="312.8" cy="306.7" r="17.89" fill="#6A5ACD" opacity="0.115"/><circle cx="338.3" cy="306.7" r="7.16" fill="#6A5ACD" opacity="0.68"/><circle cx="338.3" cy="306.7" r="17.89" fill="#6A5ACD" opacity="0.111"/><circle cx="363.9" cy="306.7" r="7.16" fill="#6A5ACD" opacity="0.65"/><circle cx="363.9" cy="306.7" r="17.89" fill="#6A5ACD" opacity="0.104"/><circle cx="389.4" cy="306.7" r="7.16" fill="#6A5ACD" opacity="0.61"/><circle cx="389.4" cy="306.7" r="17.89" fill="#6A5ACD" opacity="0.096"/><circle cx="415.0" cy="306.7" r="7.16" fill="#6A5ACD" opacity="0.57"/><circle cx="415.0" cy="306.7" r="17.89" fill="#6A5ACD" opacity="0.088"/><circle cx="440.6" cy="306.7" r="7.16" fill="#6A5ACD" opacity="0.53"/><circle cx="466.1" cy="306.7" r="7.16" fill="#6A5ACD" opacity="0.49"/><circle cx="491.7" cy="306.7" r="7.16" fill="#6A5ACD" opacity="0.44"/><circle cx="517.2" cy="306.7" r="7.16" fill="#6A5ACD" opacity="0.40"/><circle cx="82.8" cy="333.3" r="7.16" fill="#6A5ACD" opacity="0.41"/><circle cx="108.3" cy="333.3" r="7.16" fill="#6A5ACD" opacity="0.45"/><circle cx="133.9" cy="333.3" r="7.16" fill="#6A5ACD" opacity="0.50"/><circle cx="159.4" cy="333.3" r="7.16" fill="#6A5ACD" opacity="0.54"/><circle cx="159.4" cy="333.3" r="17.89" fill="#6A5ACD" opacity="0.082"/><circle cx="185.0" cy="333.3" r="7.16" fill="#6A5ACD" opacity="0.59"/><circle cx="185.0" cy="333.3" r="17.89" fill="#6A5ACD" opacity="0.091"/><circle cx="210.6" cy="333.3" r="7.16" fill="#6A5ACD" opacity="0.63"/><circle cx="210.6" cy="333.3" r="17.89" fill="#6A5ACD" opacity="0.100"/><circle cx="236.1" cy="333.3" r="7.16" fill="#6A5ACD" opacity="0.68"/><circle cx="236.1" cy="333.3" r="17.89" fill="#6A5ACD" opacity="0.109"/><circle cx="261.7" cy="333.3" r="7.16" fill="#6A5ACD" opacity="0.72"/><circle cx="261.7" cy="333.3" r="17.89" fill="#6A5ACD" opacity="0.118"/><circle cx="287.2" cy="333.3" r="7.16" fill="#6A5ACD" opacity="0.75"/><circle cx="287.2" cy="333.3" r="17.89" fill="#6A5ACD" opacity="0.124"/><circle cx="312.8" cy="333.3" r="7.16" fill="#6A5ACD" opacity="0.75"/><circle cx="312.8" cy="333.3" r="17.89" fill="#6A5ACD" opacity="0.124"/><circle cx="338.3" cy="333.3" r="7.16" fill="#6A5ACD" opacity="0.72"/><circle cx="338.3" cy="333.3" r="17.89" fill="#6A5ACD" opacity="0.118"/><circle cx="363.9" cy="333.3" r="7.16" fill="#6A5ACD" opacity="0.68"/><circle cx="363.9" cy="333.3" r="17.89" fill="#6A5ACD" opacity="0.109"/><circle cx="389.4" cy="333.3" r="7.16" fill="#6A5ACD" opacity="0.63"/><circle cx="389.4" cy="333.3" r="17.89" fill="#6A5ACD" opacity="0.100"/><circle cx="415.0" cy="333.3" r="7.16" fill="#6A5ACD" opacity="0.59"/><circle cx="415.0" cy="333.3" r="17.89" fill="#6A5ACD" opacity="0.091"/><circle cx="440.6" cy="333.3" r="7.16" fill="#6A5ACD" opacity="0.54"/><circle cx="440.6" cy="333.3" r="17.89" fill="#6A5ACD" opacity="0.082"/><circle cx="466.1" cy="333.3" r="7.16" fill="#6A5ACD" opacity="0.50"/><circle cx="491.7" cy="333.3" r="7.16" fill="#6A5ACD" opacity="0.45"/><circle cx="517.2" cy="333.3" r="7.16" fill="#6A5ACD" opacity="0.41"/><circle cx="82.8" cy="360.0" r="7.16" fill="#6A5ACD" opacity="0.41"/><circle cx="108.3" cy="360.0" r="7.16" fill="#6A5ACD" opacity="0.46"/><circle cx="133.9" cy="360.0" r="7.16" fill="#6A5ACD" opacity="0.50"/><circle cx="159.4" cy="360.0" r="7.16" fill="#6A5ACD" opacity="0.55"/><circle cx="159.4" cy="360.0" r="17.89" fill="#6A5ACD" opacity="0.083"/><circle cx="185.0" cy="360.0" r="7.16" fill="#6A5ACD" opacity="0.59"/><circle cx="185.0" cy="360.0" r="17.89" fill="#6A5ACD" opacity="0.092"/><circle cx="210.6" cy="360.0" r="7.16" fill="#6A5ACD" opacity="0.64"/><circle cx="210.6" cy="360.0" r="17.89" fill="#6A5ACD" opacity="0.102"/><circle cx="236.1" cy="360.0" r="7.16" fill="#6A5ACD" opacity="0.69"/><circle cx="236.1" cy="360.0" r="17.89" fill="#6A5ACD" opacity="0.111"/><circle cx="261.7" cy="360.0" r="7.16" fill="#6A5ACD" opacity="0.73"/><circle cx="261.7" cy="360.0" r="17.89" fill="#6A5ACD" opacity="0.121"/><circle cx="287.2" cy="360.0" r="7.16" fill="#6A5ACD" opacity="0.78"/><circle cx="287.2" cy="360.0" r="17.89" fill="#6A5ACD" opacity="0.130"/><circle cx="312.8" cy="360.0" r="7.16" fill="#6A5ACD" opacity="0.78"/><circle cx="312.8" cy="360.0" r="17.89" fill="#6A5ACD" opacity="0.130"/><circle cx="338.3" cy="360.0" r="7.16" fill="#6A5ACD" opacity="0.73"/><circle cx="338.3" cy="360.0" r="17.89" fill="#6A5ACD" opacity="0.121"/><circle cx="363.9" cy="360.0" r="7.16" fill="#6A5ACD" opacity="0.69"/><circle cx="363.9" cy="360.0" r="17.89" fill="#6A5ACD" opacity="0.111"/><circle cx="389.4" cy="360.0" r="7.16" fill="#6A5ACD" opacity="0.64"/><circle cx="389.4" cy="360.0" r="17.89" fill="#6A5ACD" opacity="0.102"/><circle cx="415.0" cy="360.0" r="7.16" fill="#6A5ACD" opacity="0.59"/><circle cx="415.0" cy="360.0" r="17.89" fill="#6A5ACD" opacity="0.092"/><circle cx="440.6" cy="360.0" r="7.16" fill="#6A5ACD" opacity="0.55"/><circle cx="440.6" cy="360.0" r="17.89" fill="#6A5ACD" opacity="0.083"/><circle cx="466.1" cy="360.0" r="7.16" fill="#6A5ACD" opacity="0.50"/><circle cx="491.7" cy="360.0" r="7.16" fill="#6A5ACD" opacity="0.46"/><circle cx="517.2" cy="360.0" r="7.16" fill="#6A5ACD" opacity="0.41"/><circle cx="82.8" cy="386.7" r="7.16" fill="#6A5ACD" opacity="0.41"/><circle cx="108.3" cy="386.7" r="7.16" fill="#6A5ACD" opacity="0.45"/><circle cx="133.9" cy="386.7" r="7.16" fill="#6A5ACD" opacity="0.50"/><circle cx="159.4" cy="386.7" r="7.16" fill="#6A5ACD" opacity="0.54"/><circle cx="159.4" cy="386.7" r="17.89" fill="#6A5ACD" opacity="0.082"/><circle cx="185.0" cy="386.7" r="7.16" fill="#6A5ACD" opacity="0.59"/><circle cx="185.0" cy="386.7" r="17.89" fill="#6A5ACD" opacity="0.091"/><circle cx="210.6" cy="386.7" r="7.16" fill="#6A5ACD" opacity="0.63"/><circle cx="210.6" cy="386.7" r="17.89" fill="#6A5ACD" opacity="0.100"/><circle cx="236.1" cy="386.7" r="7.16" fill="#6A5ACD" opacity="0.68"/><circle cx="236.1" cy="386.7" r="17.89" fill="#6A5ACD" opacity="0.109"/><circle cx="261.7" cy="386.7" r="7.16" fill="#6A5ACD" opacity="0.72"/><circle cx="261.7" cy="386.7" r="17.89" fill="#6A5ACD" opacity="0.118"/><circle cx="287.2" cy="386.7" r="7.16" fill="#6A5ACD" opacity="0.75"/><circle cx="287.2" cy="386.7" r="17.89" fill="#6A5ACD" opacity="0.124"/><circle cx="312.8" cy="386.7" r="7.16" fill="#6A5ACD" opacity="0.75"/><circle cx="312.8" cy="386.7" r="17.89" fill="#6A5ACD" opacity="0.124"/><circle cx="338.3" cy="386.7" r="7.16" fill="#6A5ACD" opacity="0.72"/><circle cx="338.3" cy="386.7" r="17.89" fill="#6A5ACD" opacity="0.118"/><circle cx="363.9" cy="386.7" r="7.16" fill="#6A5ACD" opacity="0.68"/><circle cx="363.9" cy="386.7" r="17.89" fill="#6A5ACD" opacity="0.109"/><circle cx="389.4" cy="386.7" r="7.16" fill="#6A5ACD" opacity="0.63"/><circle cx="389.4" cy="386.7" r="17.89" fill="#6A5ACD" opacity="0.100"/><circle cx="415.0" cy="386.7" r="7.16" fill="#6A5ACD" opacity="0.59"/><circle cx="415.0" cy="386.7" r="17.89" fill="#6A5ACD" opacity="0.091"/><circle cx="440.6" cy="386.7" r="7.16" fill="#6A5ACD" opacity="0.54"/><circle cx="440.6" cy="386.7" r="17.89" fill="#6A5ACD" opacity="0.082"/><circle cx="466.1" cy="386.7" r="7.16" fill="#6A5ACD" opacity="0.50"/><circle cx="491.7" cy="386.7" r="7.16" fill="#6A5ACD" opacity="0.45"/><circle cx="517.2" cy="386.7" r="7.16" fill="#6A5ACD" opacity="0.41"/><circle cx="82.8" cy="413.3" r="7.16" fill="#6A5ACD" opacity="0.40"/><circle cx="108.3" cy="413.3" r="7.16" fill="#6A5ACD" opacity="0.44"/><circle cx="133.9" cy="413.3" r="7.16" fill="#6A5ACD" opacity="0.49"/><circle cx="159.4" cy="413.3" r="7.16" fill="#6A5ACD" opacity="0.53"/><circle cx="185.0" cy="413.3" r="7.16" fill="#6A5ACD" opacity="0.57"/><circle cx="185.0" cy="413.3" r="17.89" fill="#6A5ACD" opacity="0.088"/><circle cx="210.6" cy="413.3" r="7.16" fill="#6A5ACD" opacity="0.61"/><circle cx="210.6" cy="413.3" r="17.89" fill="#6A5ACD" opacity="0.096"/><circle cx="236.1" cy="413.3" r="7.16" fill="#6A5ACD" opacity="0.65"/><circle cx="236.1" cy="413.3" r="17.89" fill="#6A5ACD" opacity="0.104"/><circle cx="261.7" cy="413.3" r="7.16" fill="#6A5ACD" opacity="0.68"/><circle cx="261.7" cy="413.3" r="17.89" fill="#6A5ACD" opacity="0.111"/><circle cx="287.2" cy="413.3" r="7.16" fill="#6A5ACD" opacity="0.70"/><circle cx="287.2" cy="413.3" r="17.89" fill="#6A5ACD" opacity="0.115"/><circle cx="312.8" cy="413.3" r="7.16" fill="#6A5ACD" opacity="0.70"/><circle cx="312.8" cy="413.3" r="17.89" fill="#6A5ACD" opacity="0.115"/><circle cx="338.3" cy="413.3" r="7.16" fill="#6A5ACD" opacity="0.68"/><circle cx="338.3" cy="413.3" r="17.89" fill="#6A5ACD" opacity="0.111"/><circle cx="363.9" cy="413.3" r="7.16" fill="#6A5ACD" opacity="0.65"/><circle cx="363.9" cy="413.3" r="17.89" fill="#6A5ACD" opacity="0.104"/><circle cx="389.4" cy="413.3" r="7.16" fill="#6A5ACD" opacity="0.61"/><circle cx="389.4" cy="413.3" r="17.89" fill="#6A5ACD" opacity="0.096"/><circle cx="415.0" cy="413.3" r="7.16" fill="#6A5ACD" opacity="0.57"/><circle cx="415.0" cy="413.3" r="17.89" fill="#6A5ACD" opacity="0.088"/><circle cx="440.6" cy="413.3" r="7.16" fill="#6A5ACD" opacity="0.53"/><circle cx="466.1" cy="413.3" r="7.16" fill="#6A5ACD" opacity="0.49"/><circle cx="491.7" cy="413.3" r="7.16" fill="#6A5ACD" opacity="0.44"/><circle cx="517.2" cy="413.3" r="7.16" fill="#6A5ACD" opacity="0.40"/><circle cx="82.8" cy="440.0" r="7.16" fill="#6A5ACD" opacity="0.38"/><circle cx="108.3" cy="440.0" r="7.16" fill="#6A5ACD" opacity="0.43"/><circle cx="133.9" cy="440.0" r="7.16" fill="#6A5ACD" opacity="0.47"/><circle cx="159.4" cy="440.0" r="7.16" fill="#6A5ACD" opacity="0.51"/><circle cx="185.0" cy="440.0" r="7.16" fill="#6A5ACD" opacity="0.55"/><circle cx="185.0" cy="440.0" r="17.89" fill="#6A5ACD" opacity="0.083"/><circle cx="210.6" cy="440.0" r="7.16" fill="#6A5ACD" opacity="0.58"/><circle cx="210.6" cy="440.0" r="17.89" fill="#6A5ACD" opacity="0.090"/><circle cx="236.1" cy="440.0" r="7.16" fill="#6A5ACD" opacity="0.62"/><circle cx="236.1" cy="440.0" r="17.89" fill="#6A5ACD" opacity="0.097"/><circle cx="261.7" cy="440.0" r="7.16" fill="#6A5ACD" opacity="0.64"/><circle cx="261.7" cy="440.0" r="17.89" fill="#6A5ACD" opacity="0.102"/><circle cx="287.2" cy="440.0" r="7.16" fill="#6A5ACD" opacity="0.65"/><circle cx="287.2" cy="440.0" r="17.89" fill="#6A5ACD" opacity="0.105"/><circle cx="312.8" cy="440.0" r="7.16" fill="#6A5ACD" opacity="0.65"/><circle cx="312.8" cy="440.0" r="17.89" fill="#6A5ACD" opacity="0.105"/><circle cx="338.3" cy="440.0" r="7.16" fill="#6A5ACD" opacity="0.64"/><circle cx="338.3" cy="440.0" r="17.89" fill="#6A5ACD" opacity="0.102"/><circle cx="363.9" cy="440.0" r="7.16" fill="#6A5ACD" opacity="0.62"/><circle cx="363.9" cy="440.0" r="17.89" fill="#6A5ACD" opacity="0.097"/><circle cx="389.4" cy="440.0" r="7.16" fill="#6A5ACD" opacity="0.58"/><circle cx="389.4" cy="440.0" r="17.89" fill="#6A5ACD" opacity="0.090"/><circle cx="415.0" cy="440.0" r="7.16" fill="#6A5ACD" opacity="0.55"/><circle cx="415.0" cy="440.0" r="17.89" fill="#6A5ACD" opacity="0.083"/><circle cx="440.6" cy="440.0" r="7.16" fill="#6A5ACD" opacity="0.51"/><circle cx="466.1" cy="440.0" r="7.16" fill="#6A5ACD" opacity="0.47"/><circle cx="491.7" cy="440.0" r="7.16" fill="#6A5ACD" opacity="0.43"/><circle cx="517.2" cy="440.0" r="7.16" fill="#6A5ACD" opacity="0.38"/><circle cx="82.8" cy="466.7" r="7.16" fill="#6A5ACD" opacity="0.37"/><circle cx="108.3" cy="466.7" r="7.16" fill="#6A5ACD" opacity="0.41"/><circle cx="133.9" cy="466.7" r="7.16" fill="#6A5ACD" opacity="0.45"/><circle cx="159.4" cy="466.7" r="7.16" fill="#6A5ACD" opacity="0.48"/><circle cx="185.0" cy="466.7" r="7.16" fill="#6A5ACD" opacity="0.52"/><circle cx="210.6" cy="466.7" r="7.16" fill="#6A5ACD" opacity="0.55"/><circle cx="210.6" cy="466.7" r="17.89" fill="#6A5ACD" opacity="0.083"/><circle cx="236.1" cy="466.7" r="7.16" fill="#6A5ACD" opacity="0.58"/><circle cx="236.1" cy="466.7" r="17.89" fill="#6A5ACD" opacity="0.089"/><circle cx="261.7" cy="466.7" r="7.16" fill="#6A5ACD" opacity="0.60"/><circle cx="261.7" cy="466.7" r="17.89" fill="#6A5ACD" opacity="0.093"/><circle cx="287.2" cy="466.7" r="7.16" fill="#6A5ACD" opacity="0.61"/><circle cx="287.2" cy="466.7" r="17.89" fill="#6A5ACD" opacity="0.095"/><circle cx="312.8" cy="466.7" r="7.16" fill="#6A5ACD" opacity="0.61"/><circle cx="312.8" cy="466.7" r="17.89" fill="#6A5ACD" opacity="0.095"/><circle cx="338.3" cy="466.7" r="7.16" fill="#6A5ACD" opacity="0.60"/><circle cx="338.3" cy="466.7" r="17.89" fill="#6A5ACD" opacity="0.093"/><circle cx="363.9" cy="466.7" r="7.16" fill="#6A5ACD" opacity="0.58"/><circle cx="363.9" cy="466.7" r="17.89" fill="#6A5ACD" opacity="0.089"/><circle cx="389.4" cy="466.7" r="7.16" fill="#6A5ACD" opacity="0.55"/><circle cx="389.4" cy="466.7" r="17.89" fill="#6A5ACD" opacity="0.083"/><circle cx="415.0" cy="466.7" r="7.16" fill="#6A5ACD" opacity="0.52"/><circle cx="440.6" cy="466.7" r="7.16" fill="#6A5ACD" opacity="0.48"/><circle cx="466.1" cy="466.7" r="7.16" fill="#6A5ACD" opacity="0.45"/><circle cx="491.7" cy="466.7" r="7.16" fill="#6A5ACD" opacity="0.41"/><circle cx="517.2" cy="466.7" r="7.16" fill="#6A5ACD" opacity="0.37"/><circle cx="82.8" cy="493.3" r="7.16" fill="#6A5ACD" opacity="0.34"/><circle cx="108.3" cy="493.3" r="7.16" fill="#6A5ACD" opacity="0.38"/><circle cx="133.9" cy="493.3" r="7.16" fill="#6A5ACD" opacity="0.42"/><circle cx="159.4" cy="493.3" r="7.16" fill="#6A5ACD" opacity="0.45"/><circle cx="185.0" cy="493.3" r="7.16" fill="#6A5ACD" opacity="0.48"/><circle cx="210.6" cy="493.3" r="7.16" fill="#6A5ACD" opacity="0.51"/><circle cx="236.1" cy="493.3" r="7.16" fill="#6A5ACD" opacity="0.53"/><circle cx="261.7" cy="493.3" r="7.16" fill="#6A5ACD" opacity="0.55"/><circle cx="261.7" cy="493.3" r="17.89" fill="#6A5ACD" opacity="0.083"/><circle cx="287.2" cy="493.3" r="7.16" fill="#6A5ACD" opacity="0.56"/><circle cx="287.2" cy="493.3" r="17.89" fill="#6A5ACD" opacity="0.085"/><circle cx="312.8" cy="493.3" r="7.16" fill="#6A5ACD" opacity="0.56"/><circle cx="312.8" cy="493.3" r="17.89" fill="#6A5ACD" opacity="0.085"/><circle cx="338.3" cy="493.3" r="7.16" fill="#6A5ACD" opacity="0.55"/><circle cx="338.3" cy="493.3" r="17.89" fill="#6A5ACD" opacity="0.083"/><circle cx="363.9" cy="493.3" r="7.16" fill="#6A5ACD" opacity="0.53"/><circle cx="389.4" cy="493.3" r="7.16" fill="#6A5ACD" opacity="0.51"/><circle cx="415.0" cy="493.3" r="7.16" fill="#6A5ACD" opacity="0.48"/><circle cx="440.6" cy="493.3" r="7.16" fill="#6A5ACD" opacity="0.45"/><circle cx="466.1" cy="493.3" r="7.16" fill="#6A5ACD" opacity="0.42"/><circle cx="491.7" cy="493.3" r="7.16" fill="#6A5ACD" opacity="0.38"/><circle cx="517.2" cy="493.3" r="7.16" fill="#6A5ACD" opacity="0.34"/><circle cx="82.8" cy="520.0" r="7.16" fill="#6A5ACD" opacity="0.32"/><circle cx="108.3" cy="520.0" r="7.16" fill="#6A5ACD" opacity="0.35"/><circle cx="133.9" cy="520.0" r="7.16" fill="#6A5ACD" opacity="0.39"/><circle cx="159.4" cy="520.0" r="7.16" fill="#6A5ACD" opacity="0.42"/><circle cx="185.0" cy="520.0" r="7.16" fill="#6A5ACD" opacity="0.45"/><circle cx="210.6" cy="520.0" r="7.16" fill="#6A5ACD" opacity="0.47"/><circle cx="236.1" cy="520.0" r="7.16" fill="#6A5ACD" opacity="0.49"/><circle cx="261.7" cy="520.0" r="7.16" fill="#6A5ACD" opacity="0.50"/><circle cx="287.2" cy="520.0" r="7.16" fill="#6A5ACD" opacity="0.51"/><circle cx="312.8" cy="520.0" r="7.16" fill="#6A5ACD" opacity="0.51"/><circle cx="338.3" cy="520.0" r="7.16" fill="#6A5ACD" opacity="0.50"/><circle cx="363.9" cy="520.0" r="7.16" fill="#6A5ACD" opacity="0.49"/><circle cx="389.4" cy="520.0" r="7.16" fill="#6A5ACD" opacity="0.47"/><circle cx="415.0" cy="520.0" r="7.16" fill="#6A5ACD" opacity="0.45"/><circle cx="440.6" cy="520.0" r="7.16" fill="#6A5ACD" opacity="0.42"/><circle cx="466.1" cy="520.0" r="7.16" fill="#6A5ACD" opacity="0.39"/><circle cx="491.7" cy="520.0" r="7.16" fill="#6A5ACD" opacity="0.35"/><circle cx="517.2" cy="520.0" r="7.16" fill="#6A5ACD" opacity="0.32"/><circle cx="82.8" cy="546.7" r="7.16" fill="#6A5ACD" opacity="0.29"/><circle cx="108.3" cy="546.7" r="7.16" fill="#6A5ACD" opacity="0.32"/><circle cx="133.9" cy="546.7" r="7.16" fill="#6A5ACD" opacity="0.35"/><circle cx="159.4" cy="546.7" r="7.16" fill="#6A5ACD" opacity="0.38"/><circle cx="185.0" cy="546.7" r="7.16" fill="#6A5ACD" opacity="0.41"/><circle cx="210.6" cy="546.7" r="7.16" fill="#6A5ACD" opacity="0.43"/><circle cx="236.1" cy="546.7" r="7.16" fill="#6A5ACD" opacity="0.45"/><circle cx="261.7" cy="546.7" r="7.16" fill="#6A5ACD" opacity="0.46"/><circle cx="287.2" cy="546.7" r="7.16" fill="#6A5ACD" opacity="0.46"/><circle cx="312.8" cy="546.7" r="7.16" fill="#6A5ACD" opacity="0.46"/><circle cx="338.3" cy="546.7" r="7.16" fill="#6A5ACD" opacity="0.46"/><circle cx="363.9" cy="546.7" r="7.16" fill="#6A5ACD" opacity="0.45"/><circle cx="389.4" cy="546.7" r="7.16" fill="#6A5ACD" opacity="0.43"/><circle cx="415.0" cy="546.7" r="7.16" fill="#6A5ACD" opacity="0.41"/><circle cx="440.6" cy="546.7" r="7.16" fill="#6A5ACD" opacity="0.38"/><circle cx="466.1" cy="546.7" r="7.16" fill="#6A5ACD" opacity="0.35"/><circle cx="491.7" cy="546.7" r="7.16" fill="#6A5ACD" opacity="0.32"/><circle cx="517.2" cy="546.7" r="7.16" fill="#6A5ACD" opacity="0.29"/><circle cx="82.8" cy="573.3" r="7.16" fill="#6A5ACD" opacity="0.25"/><circle cx="108.3" cy="573.3" r="7.16" fill="#6A5ACD" opacity="0.29"/><circle cx="133.9" cy="573.3" r="7.16" fill="#6A5ACD" opacity="0.31"/><circle cx="159.4" cy="573.3" r="7.16" fill="#6A5ACD" opacity="0.34"/><circle cx="185.0" cy="573.3" r="7.16" fill="#6A5ACD" opacity="0.37"/><circle cx="210.6" cy="573.3" r="7.16" fill="#6A5ACD" opacity="0.39"/><circle cx="236.1" cy="573.3" r="7.16" fill="#6A5ACD" opacity="0.40"/><circle cx="261.7" cy="573.3" r="7.16" fill="#6A5ACD" opacity="0.41"/><circle cx="287.2" cy="573.3" r="7.16" fill="#6A5ACD" opacity="0.42"/><circle cx="312.8" cy="573.3" r="7.16" fill="#6A5ACD" opacity="0.42"/><circle cx="338.3" cy="573.3" r="7.16" fill="#6A5ACD" opacity="0.41"/><circle cx="363.9" cy="573.3" r="7.16" fill="#6A5ACD" opacity="0.40"/><circle cx="389.4" cy="573.3" r="7.16" fill="#6A5ACD" opacity="0.39"/><circle cx="415.0" cy="573.3" r="7.16" fill="#6A5ACD" opacity="0.37"/><circle cx="440.6" cy="573.3" r="7.16" fill="#6A5ACD" opacity="0.34"/><circle cx="466.1" cy="573.3" r="7.16" fill="#6A5ACD" opacity="0.31"/><circle cx="491.7" cy="573.3" r="7.16" fill="#6A5ACD" opacity="0.29"/><circle cx="517.2" cy="573.3" r="7.16" fill="#6A5ACD" opacity="0.25"/><circle cx="82.8" cy="600.0" r="7.16" fill="#6A5ACD" opacity="0.22"/><circle cx="108.3" cy="600.0" r="7.16" fill="#6A5ACD" opacity="0.25"/><circle cx="133.9" cy="600.0" r="7.16" fill="#6A5ACD" opacity="0.28"/><circle cx="159.4" cy="600.0" r="7.16" fill="#6A5ACD" opacity="0.30"/><circle cx="185.0" cy="600.0" r="7.16" fill="#6A5ACD" opacity="0.32"/><circle cx="210.6" cy="600.0" r="7.16" fill="#6A5ACD" opacity="0.34"/><circle cx="236.1" cy="600.0" r="7.16" fill="#6A5ACD" opacity="0.35"/><circle cx="261.7" cy="600.0" r="7.16" fill="#6A5ACD" opacity="0.36"/><circle cx="287.2" cy="600.0" r="7.16" fill="#6A5ACD" opacity="0.37"/><circle cx="312.8" cy="600.0" r="7.16" fill="#6A5ACD" opacity="0.37"/><circle cx="338.3" cy="600.0" r="7.16" fill="#6A5ACD" opacity="0.36"/><circle cx="363.9" cy="600.0" r="7.16" fill="#6A5ACD" opacity="0.35"/><circle cx="389.4" cy="600.0" r="7.16" fill="#6A5ACD" opacity="0.34"/><circle cx="415.0" cy="600.0" r="7.16" fill="#6A5ACD" opacity="0.32"/><circle cx="440.6" cy="600.0" r="7.16" fill="#6A5ACD" opacity="0.30"/><circle cx="466.1" cy="600.0" r="7.16" fill="#6A5ACD" opacity="0.28"/><circle cx="491.7" cy="600.0" r="7.16" fill="#6A5ACD" opacity="0.25"/><circle cx="517.2" cy="600.0" r="7.16" fill="#6A5ACD" opacity="0.22"/><circle cx="82.8" cy="626.7" r="7.16" fill="#6A5ACD" opacity="0.18"/><circle cx="108.3" cy="626.7" r="7.16" fill="#6A5ACD" opacity="0.21"/><circle cx="133.9" cy="626.7" r="7.16" fill="#6A5ACD" opacity="0.24"/><circle cx="159.4" cy="626.7" r="7.16" fill="#6A5ACD" opacity="0.26"/><circle cx="185.0" cy="626.7" r="7.16" fill="#6A5ACD" opacity="0.28"/><circle cx="210.6" cy="626.7" r="7.16" fill="#6A5ACD" opacity="0.30"/><circle cx="236.1" cy="626.7" r="7.16" fill="#6A5ACD" opacity="0.31"/><circle cx="261.7" cy="626.7" r="7.16" fill="#6A5ACD" opacity="0.32"/><circle cx="287.2" cy="626.7" r="7.16" fill="#6A5ACD" opacity="0.32"/><circle cx="312.8" cy="626.7" r="7.16" fill="#6A5ACD" opacity="0.32"/><circle cx="338.3" cy="626.7" r="7.16" fill="#6A5ACD" opacity="0.32"/><circle cx="363.9" cy="626.7" r="7.16" fill="#6A5ACD" opacity="0.31"/><circle cx="389.4" cy="626.7" r="7.16" fill="#6A5ACD" opacity="0.30"/><circle cx="415.0" cy="626.7" r="7.16" fill="#6A5ACD" opacity="0.28"/><circle cx="440.6" cy="626.7" r="7.16" fill="#6A5ACD" opacity="0.26"/><circle cx="466.1" cy="626.7" r="7.16" fill="#6A5ACD" opacity="0.24"/><circle cx="491.7" cy="626.7" r="7.16" fill="#6A5ACD" opacity="0.21"/><circle cx="517.2" cy="626.7" r="7.16" fill="#6A5ACD" opacity="0.18"/></g>

  <!-- Mount holes -->
  
    <circle cx="60" cy="70" r="7" fill="none" stroke="#6A5ACD60" stroke-width="1.5"/>
    <circle cx="60" cy="70" r="2" fill="#6A5ACD80"/>
    <line x1="49" y1="70" x2="71" y2="70" stroke="#6A5ACD40" stroke-width="0.5"/>
    <line x1="60" y1="59" x2="60" y2="81" stroke="#6A5ACD40" stroke-width="0.5"/>
    <circle cx="540" cy="70" r="7" fill="none" stroke="#6A5ACD60" stroke-width="1.5"/>
    <circle cx="540" cy="70" r="2" fill="#6A5ACD80"/>
    <line x1="529" y1="70" x2="551" y2="70" stroke="#6A5ACD40" stroke-width="0.5"/>
    <line x1="540" y1="59" x2="540" y2="81" stroke="#6A5ACD40" stroke-width="0.5"/>
    <circle cx="60" cy="630" r="7" fill="none" stroke="#6A5ACD60" stroke-width="1.5"/>
    <circle cx="60" cy="630" r="2" fill="#6A5ACD80"/>
    <line x1="49" y1="630" x2="71" y2="630" stroke="#6A5ACD40" stroke-width="0.5"/>
    <line x1="60" y1="619" x2="60" y2="641" stroke="#6A5ACD40" stroke-width="0.5"/>
    <circle cx="540" cy="630" r="7" fill="none" stroke="#6A5ACD60" stroke-width="1.5"/>
    <circle cx="540" cy="630" r="2" fill="#6A5ACD80"/>
    <line x1="529" y1="630" x2="551" y2="630" stroke="#6A5ACD40" stroke-width="0.5"/>
    <line x1="540" y1="619" x2="540" y2="641" stroke="#6A5ACD40" stroke-width="0.5"/>

  <!-- Crosshair -->
  
    <line x1="286" y1="360" x2="314" y2="360" stroke="#6A5ACD50" stroke-width="0.8" stroke-dasharray="2,2"/>
    <line x1="300" y1="346" x2="300" y2="374" stroke="#6A5ACD50" stroke-width="0.8" stroke-dasharray="2,2"/>
    <circle cx="300" cy="360" r="3" fill="none" stroke="#6A5ACD70" stroke-width="1"/>

  <!-- Alignment marks -->
  
    <line x1="292" y1="48" x2="308" y2="48" stroke="#6A5ACD40" stroke-width="1"/>
    <line x1="300" y1="44" x2="300" y2="52" stroke="#6A5ACD40" stroke-width="1"/>
    <line x1="292" y1="652" x2="308" y2="652" stroke="#6A5ACD40" stroke-width="1"/>
    <line x1="300" y1="648" x2="300" y2="656" stroke="#6A5ACD40" stroke-width="1"/>

  <!-- Special overlay -->
  

  <!-- Top label -->
  <text x="40" y="34" font-family="'Courier New',monospace" font-size="11" fill="#6A5ACD" opacity="0.9" letter-spacing="3">ATEMPO DVLED · CX</text>
  <text x="560" y="34" font-family="'Courier New',monospace" font-size="10" fill="#6A5ACD" opacity="0.5" letter-spacing="2" text-anchor="end">FRONT VIEW</text>

  <!-- Bottom labels -->
  <text x="40" y="684" font-family="'Courier New',monospace" font-size="10" fill="#6A5ACD" opacity="0.6" letter-spacing="1.5">PIXEL PITCH: 1.5 – 2.5 mm</text>
  <text x="560" y="684" font-family="'Courier New',monospace" font-size="10" fill="#6A5ACD" opacity="0.4" letter-spacing="1.5" text-anchor="end">INDOOR · STANDARD · IP30</text>

  <!-- Corner brackets -->
  <path d="M34,74 L34,44 L64,44" fill="none" stroke="#6A5ACD" stroke-opacity="0.35" stroke-width="1.5"/>
  <path d="M536,44 L566,44 L566,74" fill="none" stroke="#6A5ACD" stroke-opacity="0.35" stroke-width="1.5"/>
  <path d="M34,626 L34,656 L64,656" fill="none" stroke="#6A5ACD" stroke-opacity="0.35" stroke-width="1.5"/>
  <path d="M536,656 L566,656 L566,626" fill="none" stroke="#6A5ACD" stroke-opacity="0.35" stroke-width="1.5"/>

  <!-- Brightness badge -->
  <rect x="470" y="10" width="120" height="20" rx="2" fill="#6A5ACD" fill-opacity="0.12" stroke="#6A5ACD" stroke-opacity="0.3" stroke-width="0.8"/>
  <text x="530" y="24" font-family="'Courier New',monospace" font-size="10" fill="#6A5ACD" opacity="0.8" text-anchor="middle" letter-spacing="1">800 nit</text>
</svg>