<svg xmlns="http://www.w3.org/2000/svg" width="600" height="700" viewBox="0 0 600 700">
  <defs>
    <radialGradient id="bg" cx="50%" cy="50%" r="60%">
      <stop offset="0%" stop-color="#101218"/>
      <stop offset="100%" stop-color="#08090d"/>
    </radialGradient>
    <radialGradient id="glow" cx="50%" cy="50%" r="50%">
      <stop offset="0%" stop-color="#FFB020" stop-opacity="0.12"/>
      <stop offset="100%" stop-color="#FFB020" stop-opacity="0"/>
    </radialGradient>
    <filter id="bloom" x="-30%" y="-30%" width="160%" height="160%">
      <feGaussianBlur in="SourceGraphic" stdDeviation="3" result="blur"/>
      <feMerge><feMergeNode in="blur"/><feMergeNode in="SourceGraphic"/></feMerge>
    </filter>
  </defs>

  <!-- Background -->
  <rect width="600" height="700" fill="url(#bg)"/>
  <rect x="20" y="30" width="560" height="640" fill="url(#glow)"/>

  <!-- Outer scan lines texture -->
  <line x1="0" y1="0" x2="600" y2="0" stroke="#FFB020" stroke-opacity="0.02" stroke-width="1"/><line x1="0" y1="20" x2="600" y2="20" stroke="#FFB020" stroke-opacity="0.02" stroke-width="1"/><line x1="0" y1="40" x2="600" y2="40" stroke="#FFB020" stroke-opacity="0.02" stroke-width="1"/><line x1="0" y1="60" x2="600" y2="60" stroke="#FFB020" stroke-opacity="0.02" stroke-width="1"/><line x1="0" y1="80" x2="600" y2="80" stroke="#FFB020" stroke-opacity="0.02" stroke-width="1"/><line x1="0" y1="100" x2="600" y2="100" stroke="#FFB020" stroke-opacity="0.02" stroke-width="1"/><line x1="0" y1="120" x2="600" y2="120" stroke="#FFB020" stroke-opacity="0.02" stroke-width="1"/><line x1="0" y1="140" x2="600" y2="140" stroke="#FFB020" stroke-opacity="0.02" stroke-width="1"/><line x1="0" y1="160" x2="600" y2="160" stroke="#FFB020" stroke-opacity="0.02" stroke-width="1"/><line x1="0" y1="180" x2="600" y2="180" stroke="#FFB020" stroke-opacity="0.02" stroke-width="1"/><line x1="0" y1="200" x2="600" y2="200" stroke="#FFB020" stroke-opacity="0.02" stroke-width="1"/><line x1="0" y1="220" x2="600" y2="220" stroke="#FFB020" stroke-opacity="0.02" stroke-width="1"/><line x1="0" y1="240" x2="600" y2="240" stroke="#FFB020" stroke-opacity="0.02" stroke-width="1"/><line x1="0" y1="260" x2="600" y2="260" stroke="#FFB020" stroke-opacity="0.02" stroke-width="1"/><line x1="0" y1="280" x2="600" y2="280" stroke="#FFB020" stroke-opacity="0.02" stroke-width="1"/><line x1="0" y1="300" x2="600" y2="300" stroke="#FFB020" stroke-opacity="0.02" stroke-width="1"/><line x1="0" y1="320" x2="600" y2="320" stroke="#FFB020" stroke-opacity="0.02" stroke-width="1"/><line x1="0" y1="340" x2="600" y2="340" stroke="#FFB020" stroke-opacity="0.02" stroke-width="1"/><line x1="0" y1="360" x2="600" y2="360" stroke="#FFB020" stroke-opacity="0.02" stroke-width="1"/><line x1="0" y1="380" x2="600" y2="380" stroke="#FFB020" stroke-opacity="0.02" stroke-width="1"/><line x1="0" y1="400" x2="600" y2="400" stroke="#FFB020" stroke-opacity="0.02" stroke-width="1"/><line x1="0" y1="420" x2="600" y2="420" stroke="#FFB020" stroke-opacity="0.02" stroke-width="1"/><line x1="0" y1="440" x2="600" y2="440" stroke="#FFB020" stroke-opacity="0.02" stroke-width="1"/><line x1="0" y1="460" x2="600" y2="460" stroke="#FFB020" stroke-opacity="0.02" stroke-width="1"/><line x1="0" y1="480" x2="600" y2="480" stroke="#FFB020" stroke-opacity="0.02" stroke-width="1"/><line x1="0" y1="500" x2="600" y2="500" stroke="#FFB020" stroke-opacity="0.02" stroke-width="1"/><line x1="0" y1="520" x2="600" y2="520" stroke="#FFB020" stroke-opacity="0.02" stroke-width="1"/><line x1="0" y1="540" x2="600" y2="540" stroke="#FFB020" stroke-opacity="0.02" stroke-width="1"/><line x1="0" y1="560" x2="600" y2="560" stroke="#FFB020" stroke-opacity="0.02" stroke-width="1"/><line x1="0" y1="580" x2="600" y2="580" stroke="#FFB020" stroke-opacity="0.02" stroke-width="1"/><line x1="0" y1="600" x2="600" y2="600" stroke="#FFB020" stroke-opacity="0.02" stroke-width="1"/><line x1="0" y1="620" x2="600" y2="620" stroke="#FFB020" stroke-opacity="0.02" stroke-width="1"/><line x1="0" y1="640" x2="600" y2="640" stroke="#FFB020" stroke-opacity="0.02" stroke-width="1"/><line x1="0" y1="660" x2="600" y2="660" stroke="#FFB020" stroke-opacity="0.02" stroke-width="1"/><line x1="0" y1="680" x2="600" y2="680" stroke="#FFB020" stroke-opacity="0.02" stroke-width="1"/>

  <!-- Panel border -->
  <rect x="40" y="50" width="520" height="600" fill="#0d0e14" stroke="#FFB020" stroke-opacity="0.45" stroke-width="1.5" rx="2"/>
  <rect x="44" y="54" width="512" height="592" fill="none" stroke="#FFB020" stroke-opacity="0.12" stroke-width="0.5" rx="1"/>

  <!-- LED grid with glow -->
  <g filter="url(#bloom)"><circle cx="102.9" cy="115.0" r="18.40" fill="#FFB020" opacity="0.24"/><circle cx="168.6" cy="115.0" r="18.40" fill="#FFB020" opacity="0.30"/><circle cx="234.3" cy="115.0" r="18.40" fill="#FFB020" opacity="0.34"/><circle cx="300.0" cy="115.0" r="18.40" fill="#FFB020" opacity="0.36"/><circle cx="365.7" cy="115.0" r="18.40" fill="#FFB020" opacity="0.34"/><circle cx="431.4" cy="115.0" r="18.40" fill="#FFB020" opacity="0.30"/><circle cx="497.1" cy="115.0" r="18.40" fill="#FFB020" opacity="0.24"/><circle cx="102.9" cy="185.0" r="18.40" fill="#FFB020" opacity="0.33"/><circle cx="168.6" cy="185.0" r="18.40" fill="#FFB020" opacity="0.41"/><circle cx="234.3" cy="185.0" r="18.40" fill="#FFB020" opacity="0.46"/><circle cx="300.0" cy="185.0" r="18.40" fill="#FFB020" opacity="0.49"/><circle cx="365.7" cy="185.0" r="18.40" fill="#FFB020" opacity="0.46"/><circle cx="431.4" cy="185.0" r="18.40" fill="#FFB020" opacity="0.41"/><circle cx="497.1" cy="185.0" r="18.40" fill="#FFB020" opacity="0.33"/><circle cx="102.9" cy="255.0" r="18.40" fill="#FFB020" opacity="0.40"/><circle cx="168.6" cy="255.0" r="18.40" fill="#FFB020" opacity="0.50"/><circle cx="234.3" cy="255.0" r="18.40" fill="#FFB020" opacity="0.58"/><circle cx="234.3" cy="255.0" r="46.00" fill="#FFB020" opacity="0.089"/><circle cx="300.0" cy="255.0" r="18.40" fill="#FFB020" opacity="0.61"/><circle cx="300.0" cy="255.0" r="46.00" fill="#FFB020" opacity="0.096"/><circle cx="365.7" cy="255.0" r="18.40" fill="#FFB020" opacity="0.58"/><circle cx="365.7" cy="255.0" r="46.00" fill="#FFB020" opacity="0.089"/><circle cx="431.4" cy="255.0" r="18.40" fill="#FFB020" opacity="0.50"/><circle cx="497.1" cy="255.0" r="18.40" fill="#FFB020" opacity="0.40"/><circle cx="102.9" cy="325.0" r="18.40" fill="#FFB020" opacity="0.44"/><circle cx="168.6" cy="325.0" r="18.40" fill="#FFB020" opacity="0.56"/><circle cx="168.6" cy="325.0" r="46.00" fill="#FFB020" opacity="0.084"/><circle cx="234.3" cy="325.0" r="18.40" fill="#FFB020" opacity="0.67"/><circle cx="234.3" cy="325.0" r="46.00" fill="#FFB020" opacity="0.107"/><circle cx="300.0" cy="325.0" r="18.40" fill="#FFB020" opacity="0.74"/><circle cx="300.0" cy="325.0" r="46.00" fill="#FFB020" opacity="0.122"/><circle cx="365.7" cy="325.0" r="18.40" fill="#FFB020" opacity="0.67"/><circle cx="365.7" cy="325.0" r="46.00" fill="#FFB020" opacity="0.107"/><circle cx="431.4" cy="325.0" r="18.40" fill="#FFB020" opacity="0.56"/><circle cx="431.4" cy="325.0" r="46.00" fill="#FFB020" opacity="0.084"/><circle cx="497.1" cy="325.0" r="18.40" fill="#FFB020" opacity="0.44"/><circle cx="102.9" cy="395.0" r="18.40" fill="#FFB020" opacity="0.44"/><circle cx="168.6" cy="395.0" r="18.40" fill="#FFB020" opacity="0.56"/><circle cx="168.6" cy="395.0" r="46.00" fill="#FFB020" opacity="0.084"/><circle cx="234.3" cy="395.0" r="18.40" fill="#FFB020" opacity="0.67"/><circle cx="234.3" cy="395.0" r="46.00" fill="#FFB020" opacity="0.107"/><circle cx="300.0" cy="395.0" r="18.40" fill="#FFB020" opacity="0.74"/><circle cx="300.0" cy="395.0" r="46.00" fill="#FFB020" opacity="0.122"/><circle cx="365.7" cy="395.0" r="18.40" fill="#FFB020" opacity="0.67"/><circle cx="365.7" cy="395.0" r="46.00" fill="#FFB020" opacity="0.107"/><circle cx="431.4" cy="395.0" r="18.40" fill="#FFB020" opacity="0.56"/><circle cx="431.4" cy="395.0" r="46.00" fill="#FFB020" opacity="0.084"/><circle cx="497.1" cy="395.0" r="18.40" fill="#FFB020" opacity="0.44"/><circle cx="102.9" cy="465.0" r="18.40" fill="#FFB020" opacity="0.40"/><circle cx="168.6" cy="465.0" r="18.40" fill="#FFB020" opacity="0.50"/><circle cx="234.3" cy="465.0" r="18.40" fill="#FFB020" opacity="0.58"/><circle cx="234.3" cy="465.0" r="46.00" fill="#FFB020" opacity="0.089"/><circle cx="300.0" cy="465.0" r="18.40" fill="#FFB020" opacity="0.61"/><circle cx="300.0" cy="465.0" r="46.00" fill="#FFB020" opacity="0.096"/><circle cx="365.7" cy="465.0" r="18.40" fill="#FFB020" opacity="0.58"/><circle cx="365.7" cy="465.0" r="46.00" fill="#FFB020" opacity="0.089"/><circle cx="431.4" cy="465.0" r="18.40" fill="#FFB020" opacity="0.50"/><circle cx="497.1" cy="465.0" r="18.40" fill="#FFB020" opacity="0.40"/><circle cx="102.9" cy="535.0" r="18.40" fill="#FFB020" opacity="0.33"/><circle cx="168.6" cy="535.0" r="18.40" fill="#FFB020" opacity="0.41"/><circle cx="234.3" cy="535.0" r="18.40" fill="#FFB020" opacity="0.46"/><circle cx="300.0" cy="535.0" r="18.40" fill="#FFB020" opacity="0.49"/><circle cx="365.7" cy="535.0" r="18.40" fill="#FFB020" opacity="0.46"/><circle cx="431.4" cy="535.0" r="18.40" fill="#FFB020" opacity="0.41"/><circle cx="497.1" cy="535.0" r="18.40" fill="#FFB020" opacity="0.33"/><circle cx="102.9" cy="605.0" r="18.40" fill="#FFB020" opacity="0.24"/><circle cx="168.6" cy="605.0" r="18.40" fill="#FFB020" opacity="0.30"/><circle cx="234.3" cy="605.0" r="18.40" fill="#FFB020" opacity="0.34"/><circle cx="300.0" cy="605.0" r="18.40" fill="#FFB020" opacity="0.36"/><circle cx="365.7" cy="605.0" r="18.40" fill="#FFB020" opacity="0.34"/><circle cx="431.4" cy="605.0" r="18.40" fill="#FFB020" opacity="0.30"/><circle cx="497.1" cy="605.0" r="18.40" fill="#FFB020" opacity="0.24"/></g>

  <!-- Mount holes -->
  
    <circle cx="60" cy="70" r="7" fill="none" stroke="#FFB02060" stroke-width="1.5"/>
    <circle cx="60" cy="70" r="2" fill="#FFB02080"/>
    <line x1="49" y1="70" x2="71" y2="70" stroke="#FFB02040" stroke-width="0.5"/>
    <line x1="60" y1="59" x2="60" y2="81" stroke="#FFB02040" stroke-width="0.5"/>
    <circle cx="540" cy="70" r="7" fill="none" stroke="#FFB02060" stroke-width="1.5"/>
    <circle cx="540" cy="70" r="2" fill="#FFB02080"/>
    <line x1="529" y1="70" x2="551" y2="70" stroke="#FFB02040" stroke-width="0.5"/>
    <line x1="540" y1="59" x2="540" y2="81" stroke="#FFB02040" stroke-width="0.5"/>
    <circle cx="60" cy="630" r="7" fill="none" stroke="#FFB02060" stroke-width="1.5"/>
    <circle cx="60" cy="630" r="2" fill="#FFB02080"/>
    <line x1="49" y1="630" x2="71" y2="630" stroke="#FFB02040" stroke-width="0.5"/>
    <line x1="60" y1="619" x2="60" y2="641" stroke="#FFB02040" stroke-width="0.5"/>
    <circle cx="540" cy="630" r="7" fill="none" stroke="#FFB02060" stroke-width="1.5"/>
    <circle cx="540" cy="630" r="2" fill="#FFB02080"/>
    <line x1="529" y1="630" x2="551" y2="630" stroke="#FFB02040" stroke-width="0.5"/>
    <line x1="540" y1="619" x2="540" y2="641" stroke="#FFB02040" stroke-width="0.5"/>

  <!-- Crosshair -->
  
    <line x1="286" y1="360" x2="314" y2="360" stroke="#FFB02050" stroke-width="0.8" stroke-dasharray="2,2"/>
    <line x1="300" y1="346" x2="300" y2="374" stroke="#FFB02050" stroke-width="0.8" stroke-dasharray="2,2"/>
    <circle cx="300" cy="360" r="3" fill="none" stroke="#FFB02070" stroke-width="1"/>

  <!-- Alignment marks -->
  
    <line x1="292" y1="48" x2="308" y2="48" stroke="#FFB02040" stroke-width="1"/>
    <line x1="300" y1="44" x2="300" y2="52" stroke="#FFB02040" stroke-width="1"/>
    <line x1="292" y1="652" x2="308" y2="652" stroke="#FFB02040" stroke-width="1"/>
    <line x1="300" y1="648" x2="300" y2="656" stroke="#FFB02040" stroke-width="1"/>

  <!-- Special overlay -->
  

  <!-- Top label -->
  <text x="40" y="34" font-family="'Courier New',monospace" font-size="11" fill="#FFB020" opacity="0.9" letter-spacing="3">ATEMPO DVLED · EX</text>
  <text x="560" y="34" font-family="'Courier New',monospace" font-size="10" fill="#FFB020" opacity="0.5" letter-spacing="2" text-anchor="end">FRONT VIEW</text>

  <!-- Bottom labels -->
  <text x="40" y="684" font-family="'Courier New',monospace" font-size="10" fill="#FFB020" opacity="0.6" letter-spacing="1.5">PIXEL PITCH: 4.0 – 10 mm</text>
  <text x="560" y="684" font-family="'Courier New',monospace" font-size="10" fill="#FFB020" opacity="0.4" letter-spacing="1.5" text-anchor="end">OUTDOOR · IP65</text>

  <!-- Corner brackets -->
  <path d="M34,74 L34,44 L64,44" fill="none" stroke="#FFB020" stroke-opacity="0.35" stroke-width="1.5"/>
  <path d="M536,44 L566,44 L566,74" fill="none" stroke="#FFB020" stroke-opacity="0.35" stroke-width="1.5"/>
  <path d="M34,626 L34,656 L64,656" fill="none" stroke="#FFB020" stroke-opacity="0.35" stroke-width="1.5"/>
  <path d="M536,656 L566,656 L566,626" fill="none" stroke="#FFB020" stroke-opacity="0.35" stroke-width="1.5"/>

  <!-- Brightness badge -->
  <rect x="470" y="10" width="120" height="20" rx="2" fill="#FFB020" fill-opacity="0.12" stroke="#FFB020" stroke-opacity="0.3" stroke-width="0.8"/>
  <text x="530" y="24" font-family="'Courier New',monospace" font-size="10" fill="#FFB020" opacity="0.8" text-anchor="middle" letter-spacing="1">6000 nit</text>
</svg>