<svg xmlns="http://www.w3.org/2000/svg" width="600" height="480" viewBox="0 0 600 480">
  <defs>
    <radialGradient id="fg" cx="320" cy="228" r="200" gradientUnits="userSpaceOnUse">
      <stop offset="0%" stop-color="#FFB020" stop-opacity="0.30"/>
      <stop offset="55%" stop-color="#0c0d14" stop-opacity="1"/>
      <stop offset="100%" stop-color="#080910" stop-opacity="1"/>
    </radialGradient>
    <linearGradient id="rg" x1="443.7,391.6" y1="0" x2="403.6,414.8" y2="0" gradientUnits="userSpaceOnUse">
      <stop offset="0%" stop-color="#FFB020"/>
      <stop offset="100%" stop-color="rgb(115,79,14)"/>
    </linearGradient>
    <filter id="sh" x="-20%" y="-20%" width="140%" height="160%">
      <feDropShadow dx="0" dy="6" stdDeviation="14" flood-color="#FFB020" flood-opacity="0.18"/>
    </filter>
  </defs>
  <rect width="600" height="480" fill="#fff"/>
  <!-- ground shadow -->
  <ellipse cx="NaN" cy="NaN" rx="195" ry="14" fill="#FFB020" opacity="0.07"/>
  <g filter="url(#sh)">
    <!-- top face -->
    <polygon points="196.4,65.2 443.7,208.0 403.6,231.2 156.3,88.4" fill="#17192a" stroke="none"/>
    <!-- right edge accent -->
    <polygon points="443.7,391.6 443.7,208.0 403.6,231.2 403.6,414.8" fill="url(#rg)" stroke="none"/>
    <!-- front face -->
    <polygon points="196.4,248.8 443.7,391.6 443.7,208.0 196.4,65.2" fill="url(#fg)" stroke="none"/>
  </g>
  <circle cx="196.4" cy="248.8" r="1.7" fill="#FFB020" opacity="0.26"/><circle cx="209.3" cy="256.3" r="1.7" fill="#FFB020" opacity="0.30"/><circle cx="222.3" cy="263.8" r="1.7" fill="#FFB020" opacity="0.34"/><circle cx="235.2" cy="271.3" r="1.7" fill="#FFB020" opacity="0.37"/><circle cx="248.2" cy="278.8" r="1.7" fill="#FFB020" opacity="0.40"/><circle cx="261.1" cy="286.2" r="1.7" fill="#FFB020" opacity="0.42"/><circle cx="274.1" cy="293.7" r="2.2" fill="#FFB020" opacity="0.43"/><circle cx="287.0" cy="301.2" r="2.2" fill="#FFB020" opacity="0.43"/><circle cx="300.0" cy="308.7" r="1.7" fill="#FFB020" opacity="0.42"/><circle cx="313.0" cy="316.2" r="1.7" fill="#FFB020" opacity="0.40"/><circle cx="325.9" cy="323.6" r="1.7" fill="#FFB020" opacity="0.37"/><circle cx="338.9" cy="331.1" r="1.7" fill="#FFB020" opacity="0.34"/><circle cx="351.8" cy="338.6" r="1.7" fill="#FFB020" opacity="0.30"/><circle cx="364.8" cy="346.1" r="1.7" fill="#FFB020" opacity="0.25"/><circle cx="377.7" cy="353.6" r="1.7" fill="#FFB020" opacity="0.21"/><circle cx="390.7" cy="361.0" r="1.3" fill="#FFB020" opacity="0.16"/><circle cx="403.6" cy="368.5" r="1.3" fill="#FFB020" opacity="0.11"/><circle cx="416.6" cy="376.0" r="1.3" fill="#FFB020" opacity="0.06"/><circle cx="429.6" cy="383.5" r="1.3" fill="#FFB020" opacity="0.06"/><circle cx="442.5" cy="391.0" r="1.3" fill="#FFB020" opacity="0.06"/><circle cx="196.4" cy="233.9" r="1.7" fill="#FFB020" opacity="0.26"/><circle cx="209.3" cy="241.4" r="1.7" fill="#FFB020" opacity="0.31"/><circle cx="222.3" cy="248.8" r="1.7" fill="#FFB020" opacity="0.36"/><circle cx="235.2" cy="256.3" r="1.7" fill="#FFB020" opacity="0.40"/><circle cx="248.2" cy="263.8" r="1.7" fill="#FFB020" opacity="0.43"/><circle cx="261.1" cy="271.3" r="2.2" fill="#FFB020" opacity="0.46"/><circle cx="274.1" cy="278.8" r="2.2" fill="#FFB020" opacity="0.48"/><circle cx="287.0" cy="286.2" r="2.2" fill="#FFB020" opacity="0.49"/><circle cx="300.0" cy="293.7" r="2.2" fill="#FFB020" opacity="0.48"/><circle cx="313.0" cy="301.2" r="2.2" fill="#FFB020" opacity="0.46"/><circle cx="325.9" cy="308.7" r="1.7" fill="#FFB020" opacity="0.43"/><circle cx="338.9" cy="316.2" r="1.7" fill="#FFB020" opacity="0.40"/><circle cx="351.8" cy="323.6" r="1.7" fill="#FFB020" opacity="0.35"/><circle cx="364.8" cy="331.1" r="1.7" fill="#FFB020" opacity="0.31"/><circle cx="377.7" cy="338.6" r="1.7" fill="#FFB020" opacity="0.26"/><circle cx="390.7" cy="346.1" r="1.7" fill="#FFB020" opacity="0.21"/><circle cx="403.6" cy="353.6" r="1.3" fill="#FFB020" opacity="0.16"/><circle cx="416.6" cy="361.0" r="1.3" fill="#FFB020" opacity="0.10"/><circle cx="429.6" cy="368.5" r="1.3" fill="#FFB020" opacity="0.06"/><circle cx="442.5" cy="376.0" r="1.3" fill="#FFB020" opacity="0.06"/><circle cx="196.4" cy="218.9" r="1.7" fill="#FFB020" opacity="0.26"/><circle cx="209.3" cy="226.4" r="1.7" fill="#FFB020" opacity="0.31"/><circle cx="222.3" cy="233.9" r="1.7" fill="#FFB020" opacity="0.36"/><circle cx="235.2" cy="241.4" r="1.7" fill="#FFB020" opacity="0.41"/><circle cx="248.2" cy="248.8" r="2.2" fill="#FFB020" opacity="0.46"/><circle cx="261.1" cy="256.3" r="2.2" fill="#FFB020" opacity="0.49"/><circle cx="274.1" cy="263.8" r="2.2" fill="#FFB020" opacity="0.52"/><circle cx="287.0" cy="271.3" r="2.2" fill="#FFB020" opacity="0.54"/><circle cx="300.0" cy="278.8" r="2.2" fill="#FFB020" opacity="0.54"/><circle cx="313.0" cy="286.2" r="2.2" fill="#FFB020" opacity="0.52"/><circle cx="325.9" cy="293.7" r="2.2" fill="#FFB020" opacity="0.49"/><circle cx="338.9" cy="301.2" r="2.2" fill="#FFB020" opacity="0.45"/><circle cx="351.8" cy="308.7" r="1.7" fill="#FFB020" opacity="0.41"/><circle cx="364.8" cy="316.2" r="1.7" fill="#FFB020" opacity="0.36"/><circle cx="377.7" cy="323.6" r="1.7" fill="#FFB020" opacity="0.31"/><circle cx="390.7" cy="331.1" r="1.7" fill="#FFB020" opacity="0.26"/><circle cx="403.6" cy="338.6" r="1.7" fill="#FFB020" opacity="0.20"/><circle cx="416.6" cy="346.1" r="1.3" fill="#FFB020" opacity="0.15"/><circle cx="429.6" cy="353.6" r="1.3" fill="#FFB020" opacity="0.09"/><circle cx="442.5" cy="361.0" r="1.3" fill="#FFB020" opacity="0.06"/><circle cx="196.4" cy="204.0" r="1.7" fill="#FFB020" opacity="0.25"/><circle cx="209.3" cy="211.4" r="1.7" fill="#FFB020" opacity="0.31"/><circle cx="222.3" cy="218.9" r="1.7" fill="#FFB020" opacity="0.36"/><circle cx="235.2" cy="226.4" r="1.7" fill="#FFB020" opacity="0.42"/><circle cx="248.2" cy="233.9" r="2.2" fill="#FFB020" opacity="0.47"/><circle cx="261.1" cy="241.4" r="2.2" fill="#FFB020" opacity="0.51"/><circle cx="274.1" cy="248.8" r="2.2" fill="#FFB020" opacity="0.55"/><circle cx="287.0" cy="256.3" r="2.2" fill="#FFB020" opacity="0.58"/><circle cx="300.0" cy="263.8" r="2.2" fill="#FFB020" opacity="0.59"/><circle cx="313.0" cy="271.3" r="2.2" fill="#FFB020" opacity="0.58"/><circle cx="325.9" cy="278.8" r="2.2" fill="#FFB020" opacity="0.55"/><circle cx="338.9" cy="286.2" r="2.2" fill="#FFB020" opacity="0.51"/><circle cx="351.8" cy="293.7" r="2.2" fill="#FFB020" opacity="0.46"/><circle cx="364.8" cy="301.2" r="1.7" fill="#FFB020" opacity="0.41"/><circle cx="377.7" cy="308.7" r="1.7" fill="#FFB020" opacity="0.36"/><circle cx="390.7" cy="316.2" r="1.7" fill="#FFB020" opacity="0.31"/><circle cx="403.6" cy="323.6" r="1.7" fill="#FFB020" opacity="0.25"/><circle cx="416.6" cy="331.1" r="1.3" fill="#FFB020" opacity="0.19"/><circle cx="429.6" cy="338.6" r="1.3" fill="#FFB020" opacity="0.14"/><circle cx="442.5" cy="346.1" r="1.3" fill="#FFB020" opacity="0.08"/><circle cx="196.4" cy="189.0" r="1.7" fill="#FFB020" opacity="0.24"/><circle cx="209.3" cy="196.5" r="1.7" fill="#FFB020" opacity="0.30"/><circle cx="222.3" cy="204.0" r="1.7" fill="#FFB020" opacity="0.35"/><circle cx="235.2" cy="211.4" r="1.7" fill="#FFB020" opacity="0.41"/><circle cx="248.2" cy="218.9" r="2.2" fill="#FFB020" opacity="0.46"/><circle cx="261.1" cy="226.4" r="2.2" fill="#FFB020" opacity="0.52"/><circle cx="274.1" cy="233.9" r="2.2" fill="#FFB020" opacity="0.57"/><circle cx="287.0" cy="241.4" r="2.2" fill="#FFB020" opacity="0.61"/><circle cx="300.0" cy="248.8" r="2.2" fill="#FFB020" opacity="0.64"/><circle cx="313.0" cy="256.3" r="2.2" fill="#FFB020" opacity="0.64"/><circle cx="325.9" cy="263.8" r="2.2" fill="#FFB020" opacity="0.61"/><circle cx="338.9" cy="271.3" r="2.2" fill="#FFB020" opacity="0.57"/><circle cx="351.8" cy="278.8" r="2.2" fill="#FFB020" opacity="0.52"/><circle cx="364.8" cy="286.2" r="2.2" fill="#FFB020" opacity="0.46"/><circle cx="377.7" cy="293.7" r="1.7" fill="#FFB020" opacity="0.41"/><circle cx="390.7" cy="301.2" r="1.7" fill="#FFB020" opacity="0.35"/><circle cx="403.6" cy="308.7" r="1.7" fill="#FFB020" opacity="0.29"/><circle cx="416.6" cy="316.2" r="1.7" fill="#FFB020" opacity="0.23"/><circle cx="429.6" cy="323.6" r="1.3" fill="#FFB020" opacity="0.18"/><circle cx="442.5" cy="331.1" r="1.3" fill="#FFB020" opacity="0.12"/><circle cx="196.4" cy="174.0" r="1.7" fill="#FFB020" opacity="0.22"/><circle cx="209.3" cy="181.5" r="1.7" fill="#FFB020" opacity="0.28"/><circle cx="222.3" cy="189.0" r="1.7" fill="#FFB020" opacity="0.33"/><circle cx="235.2" cy="196.5" r="1.7" fill="#FFB020" opacity="0.39"/><circle cx="248.2" cy="204.0" r="2.2" fill="#FFB020" opacity="0.45"/><circle cx="261.1" cy="211.4" r="2.2" fill="#FFB020" opacity="0.51"/><circle cx="274.1" cy="218.9" r="2.2" fill="#FFB020" opacity="0.56"/><circle cx="287.0" cy="226.4" r="2.2" fill="#FFB020" opacity="0.62"/><circle cx="300.0" cy="233.9" r="2.2" fill="#FFB020" opacity="0.67"/><circle cx="313.0" cy="241.4" r="2.2" fill="#FFB020" opacity="0.69"/><circle cx="325.9" cy="248.8" r="2.2" fill="#FFB020" opacity="0.67"/><circle cx="338.9" cy="256.3" r="2.2" fill="#FFB020" opacity="0.62"/><circle cx="351.8" cy="263.8" r="2.2" fill="#FFB020" opacity="0.56"/><circle cx="364.8" cy="271.3" r="2.2" fill="#FFB020" opacity="0.51"/><circle cx="377.7" cy="278.8" r="2.2" fill="#FFB020" opacity="0.45"/><circle cx="390.7" cy="286.2" r="1.7" fill="#FFB020" opacity="0.39"/><circle cx="403.6" cy="293.7" r="1.7" fill="#FFB020" opacity="0.33"/><circle cx="416.6" cy="301.2" r="1.7" fill="#FFB020" opacity="0.27"/><circle cx="429.6" cy="308.7" r="1.7" fill="#FFB020" opacity="0.21"/><circle cx="442.5" cy="316.2" r="1.3" fill="#FFB020" opacity="0.16"/><circle cx="196.4" cy="159.1" r="1.3" fill="#FFB020" opacity="0.19"/><circle cx="209.3" cy="166.6" r="1.7" fill="#FFB020" opacity="0.25"/><circle cx="222.3" cy="174.0" r="1.7" fill="#FFB020" opacity="0.31"/><circle cx="235.2" cy="181.5" r="1.7" fill="#FFB020" opacity="0.37"/><circle cx="248.2" cy="189.0" r="1.7" fill="#FFB020" opacity="0.43"/><circle cx="261.1" cy="196.5" r="2.2" fill="#FFB020" opacity="0.49"/><circle cx="274.1" cy="204.0" r="2.2" fill="#FFB020" opacity="0.54"/><circle cx="287.0" cy="211.4" r="2.2" fill="#FFB020" opacity="0.60"/><circle cx="300.0" cy="218.9" r="2.2" fill="#FFB020" opacity="0.66"/><circle cx="313.0" cy="226.4" r="2.2" fill="#FFB020" opacity="0.72"/><circle cx="325.9" cy="233.9" r="2.2" fill="#FFB020" opacity="0.72"/><circle cx="338.9" cy="241.4" r="2.2" fill="#FFB020" opacity="0.66"/><circle cx="351.8" cy="248.8" r="2.2" fill="#FFB020" opacity="0.60"/><circle cx="364.8" cy="256.3" r="2.2" fill="#FFB020" opacity="0.54"/><circle cx="377.7" cy="263.8" r="2.2" fill="#FFB020" opacity="0.48"/><circle cx="390.7" cy="271.3" r="1.7" fill="#FFB020" opacity="0.42"/><circle cx="403.6" cy="278.8" r="1.7" fill="#FFB020" opacity="0.36"/><circle cx="416.6" cy="286.2" r="1.7" fill="#FFB020" opacity="0.31"/><circle cx="429.6" cy="293.7" r="1.7" fill="#FFB020" opacity="0.25"/><circle cx="442.5" cy="301.2" r="1.3" fill="#FFB020" opacity="0.19"/><circle cx="196.4" cy="144.1" r="1.3" fill="#FFB020" opacity="0.16"/><circle cx="209.3" cy="151.6" r="1.7" fill="#FFB020" opacity="0.22"/><circle cx="222.3" cy="159.1" r="1.7" fill="#FFB020" opacity="0.28"/><circle cx="235.2" cy="166.6" r="1.7" fill="#FFB020" opacity="0.34"/><circle cx="248.2" cy="174.0" r="1.7" fill="#FFB020" opacity="0.39"/><circle cx="261.1" cy="181.5" r="2.2" fill="#FFB020" opacity="0.45"/><circle cx="274.1" cy="189.0" r="2.2" fill="#FFB020" opacity="0.51"/><circle cx="287.0" cy="196.5" r="2.2" fill="#FFB020" opacity="0.57"/><circle cx="300.0" cy="204.0" r="2.2" fill="#FFB020" opacity="0.63"/><circle cx="313.0" cy="211.4" r="2.2" fill="#FFB020" opacity="0.68"/><circle cx="325.9" cy="218.9" r="2.2" fill="#FFB020" opacity="0.71"/><circle cx="338.9" cy="226.4" r="2.2" fill="#FFB020" opacity="0.68"/><circle cx="351.8" cy="233.9" r="2.2" fill="#FFB020" opacity="0.62"/><circle cx="364.8" cy="241.4" r="2.2" fill="#FFB020" opacity="0.57"/><circle cx="377.7" cy="248.8" r="2.2" fill="#FFB020" opacity="0.51"/><circle cx="390.7" cy="256.3" r="2.2" fill="#FFB020" opacity="0.45"/><circle cx="403.6" cy="263.8" r="1.7" fill="#FFB020" opacity="0.39"/><circle cx="416.6" cy="271.3" r="1.7" fill="#FFB020" opacity="0.33"/><circle cx="429.6" cy="278.8" r="1.7" fill="#FFB020" opacity="0.27"/><circle cx="442.5" cy="286.2" r="1.7" fill="#FFB020" opacity="0.22"/><circle cx="196.4" cy="129.2" r="1.3" fill="#FFB020" opacity="0.12"/><circle cx="209.3" cy="136.6" r="1.3" fill="#FFB020" opacity="0.18"/><circle cx="222.3" cy="144.1" r="1.7" fill="#FFB020" opacity="0.24"/><circle cx="235.2" cy="151.6" r="1.7" fill="#FFB020" opacity="0.30"/><circle cx="248.2" cy="159.1" r="1.7" fill="#FFB020" opacity="0.36"/><circle cx="261.1" cy="166.6" r="1.7" fill="#FFB020" opacity="0.41"/><circle cx="274.1" cy="174.0" r="2.2" fill="#FFB020" opacity="0.47"/><circle cx="287.0" cy="181.5" r="2.2" fill="#FFB020" opacity="0.52"/><circle cx="300.0" cy="189.0" r="2.2" fill="#FFB020" opacity="0.58"/><circle cx="313.0" cy="196.5" r="2.2" fill="#FFB020" opacity="0.62"/><circle cx="325.9" cy="204.0" r="2.2" fill="#FFB020" opacity="0.65"/><circle cx="338.9" cy="211.4" r="2.2" fill="#FFB020" opacity="0.65"/><circle cx="351.8" cy="218.9" r="2.2" fill="#FFB020" opacity="0.62"/><circle cx="364.8" cy="226.4" r="2.2" fill="#FFB020" opacity="0.57"/><circle cx="377.7" cy="233.9" r="2.2" fill="#FFB020" opacity="0.52"/><circle cx="390.7" cy="241.4" r="2.2" fill="#FFB020" opacity="0.47"/><circle cx="403.6" cy="248.8" r="1.7" fill="#FFB020" opacity="0.41"/><circle cx="416.6" cy="256.3" r="1.7" fill="#FFB020" opacity="0.35"/><circle cx="429.6" cy="263.8" r="1.7" fill="#FFB020" opacity="0.30"/><circle cx="442.5" cy="271.3" r="1.7" fill="#FFB020" opacity="0.24"/><circle cx="196.4" cy="114.2" r="1.3" fill="#FFB020" opacity="0.09"/><circle cx="209.3" cy="121.7" r="1.3" fill="#FFB020" opacity="0.14"/><circle cx="222.3" cy="129.2" r="1.7" fill="#FFB020" opacity="0.20"/><circle cx="235.2" cy="136.6" r="1.7" fill="#FFB020" opacity="0.26"/><circle cx="248.2" cy="144.1" r="1.7" fill="#FFB020" opacity="0.31"/><circle cx="261.1" cy="151.6" r="1.7" fill="#FFB020" opacity="0.37"/><circle cx="274.1" cy="159.1" r="1.7" fill="#FFB020" opacity="0.42"/><circle cx="287.0" cy="166.6" r="2.2" fill="#FFB020" opacity="0.47"/><circle cx="300.0" cy="174.0" r="2.2" fill="#FFB020" opacity="0.52"/><circle cx="313.0" cy="181.5" r="2.2" fill="#FFB020" opacity="0.56"/><circle cx="325.9" cy="189.0" r="2.2" fill="#FFB020" opacity="0.59"/><circle cx="338.9" cy="196.5" r="2.2" fill="#FFB020" opacity="0.60"/><circle cx="351.8" cy="204.0" r="2.2" fill="#FFB020" opacity="0.59"/><circle cx="364.8" cy="211.4" r="2.2" fill="#FFB020" opacity="0.56"/><circle cx="377.7" cy="218.9" r="2.2" fill="#FFB020" opacity="0.52"/><circle cx="390.7" cy="226.4" r="2.2" fill="#FFB020" opacity="0.47"/><circle cx="403.6" cy="233.9" r="1.7" fill="#FFB020" opacity="0.42"/><circle cx="416.6" cy="241.4" r="1.7" fill="#FFB020" opacity="0.37"/><circle cx="429.6" cy="248.8" r="1.7" fill="#FFB020" opacity="0.31"/><circle cx="442.5" cy="256.3" r="1.7" fill="#FFB020" opacity="0.25"/><circle cx="196.4" cy="99.2" r="1.3" fill="#FFB020" opacity="0.06"/><circle cx="209.3" cy="106.7" r="1.3" fill="#FFB020" opacity="0.10"/><circle cx="222.3" cy="114.2" r="1.3" fill="#FFB020" opacity="0.16"/><circle cx="235.2" cy="121.7" r="1.7" fill="#FFB020" opacity="0.21"/><circle cx="248.2" cy="129.2" r="1.7" fill="#FFB020" opacity="0.27"/><circle cx="261.1" cy="136.6" r="1.7" fill="#FFB020" opacity="0.32"/><circle cx="274.1" cy="144.1" r="1.7" fill="#FFB020" opacity="0.37"/><circle cx="287.0" cy="151.6" r="1.7" fill="#FFB020" opacity="0.42"/><circle cx="300.0" cy="159.1" r="2.2" fill="#FFB020" opacity="0.47"/><circle cx="313.0" cy="166.6" r="2.2" fill="#FFB020" opacity="0.50"/><circle cx="325.9" cy="174.0" r="2.2" fill="#FFB020" opacity="0.53"/><circle cx="338.9" cy="181.5" r="2.2" fill="#FFB020" opacity="0.55"/><circle cx="351.8" cy="189.0" r="2.2" fill="#FFB020" opacity="0.55"/><circle cx="364.8" cy="196.5" r="2.2" fill="#FFB020" opacity="0.53"/><circle cx="377.7" cy="204.0" r="2.2" fill="#FFB020" opacity="0.50"/><circle cx="390.7" cy="211.4" r="2.2" fill="#FFB020" opacity="0.46"/><circle cx="403.6" cy="218.9" r="1.7" fill="#FFB020" opacity="0.42"/><circle cx="416.6" cy="226.4" r="1.7" fill="#FFB020" opacity="0.37"/><circle cx="429.6" cy="233.9" r="1.7" fill="#FFB020" opacity="0.32"/><circle cx="442.5" cy="241.4" r="1.7" fill="#FFB020" opacity="0.26"/><circle cx="196.4" cy="84.3" r="1.3" fill="#FFB020" opacity="0.06"/><circle cx="209.3" cy="91.8" r="1.3" fill="#FFB020" opacity="0.06"/><circle cx="222.3" cy="99.2" r="1.3" fill="#FFB020" opacity="0.11"/><circle cx="235.2" cy="106.7" r="1.3" fill="#FFB020" opacity="0.16"/><circle cx="248.2" cy="114.2" r="1.7" fill="#FFB020" opacity="0.22"/><circle cx="261.1" cy="121.7" r="1.7" fill="#FFB020" opacity="0.27"/><circle cx="274.1" cy="129.2" r="1.7" fill="#FFB020" opacity="0.32"/><circle cx="287.0" cy="136.6" r="1.7" fill="#FFB020" opacity="0.36"/><circle cx="300.0" cy="144.1" r="1.7" fill="#FFB020" opacity="0.41"/><circle cx="313.0" cy="151.6" r="2.2" fill="#FFB020" opacity="0.45"/><circle cx="325.9" cy="159.1" r="2.2" fill="#FFB020" opacity="0.48"/><circle cx="338.9" cy="166.6" r="2.2" fill="#FFB020" opacity="0.49"/><circle cx="351.8" cy="174.0" r="2.2" fill="#FFB020" opacity="0.50"/><circle cx="364.8" cy="181.5" r="2.2" fill="#FFB020" opacity="0.49"/><circle cx="377.7" cy="189.0" r="2.2" fill="#FFB020" opacity="0.47"/><circle cx="390.7" cy="196.5" r="2.2" fill="#FFB020" opacity="0.44"/><circle cx="403.6" cy="204.0" r="1.7" fill="#FFB020" opacity="0.41"/><circle cx="416.6" cy="211.4" r="1.7" fill="#FFB020" opacity="0.36"/><circle cx="429.6" cy="218.9" r="1.7" fill="#FFB020" opacity="0.32"/><circle cx="442.5" cy="226.4" r="1.7" fill="#FFB020" opacity="0.27"/><circle cx="196.4" cy="69.3" r="1.3" fill="#FFB020" opacity="0.06"/><circle cx="209.3" cy="76.8" r="1.3" fill="#FFB020" opacity="0.06"/><circle cx="222.3" cy="84.3" r="1.3" fill="#FFB020" opacity="0.06"/><circle cx="235.2" cy="91.8" r="1.3" fill="#FFB020" opacity="0.12"/><circle cx="248.2" cy="99.2" r="1.3" fill="#FFB020" opacity="0.17"/><circle cx="261.1" cy="106.7" r="1.7" fill="#FFB020" opacity="0.22"/><circle cx="274.1" cy="114.2" r="1.7" fill="#FFB020" opacity="0.26"/><circle cx="287.0" cy="121.7" r="1.7" fill="#FFB020" opacity="0.31"/><circle cx="300.0" cy="129.2" r="1.7" fill="#FFB020" opacity="0.35"/><circle cx="313.0" cy="136.6" r="1.7" fill="#FFB020" opacity="0.39"/><circle cx="325.9" cy="144.1" r="1.7" fill="#FFB020" opacity="0.42"/><circle cx="338.9" cy="151.6" r="2.2" fill="#FFB020" opacity="0.44"/><circle cx="351.8" cy="159.1" r="2.2" fill="#FFB020" opacity="0.45"/><circle cx="364.8" cy="166.6" r="2.2" fill="#FFB020" opacity="0.45"/><circle cx="377.7" cy="174.0" r="2.2" fill="#FFB020" opacity="0.44"/><circle cx="390.7" cy="181.5" r="1.7" fill="#FFB020" opacity="0.42"/><circle cx="403.6" cy="189.0" r="1.7" fill="#FFB020" opacity="0.39"/><circle cx="416.6" cy="196.5" r="1.7" fill="#FFB020" opacity="0.35"/><circle cx="429.6" cy="204.0" r="1.7" fill="#FFB020" opacity="0.31"/><circle cx="442.5" cy="211.4" r="1.7" fill="#FFB020" opacity="0.26"/>
  <!-- center bloom -->
  <circle cx="320.0" cy="228.4" r="60" fill="#FFB020" opacity="0.10"/>
  <circle cx="320.0" cy="228.4" r="28" fill="#FFB020" opacity="0.14"/>
</svg>