<svg xmlns="http://www.w3.org/2000/svg" width="600" height="700" viewBox="0 0 600 700">
  <defs>
    <radialGradient id="bg" cx="50%" cy="50%" r="70%">
      <stop offset="0%" stop-color="#0e0f16"/>
      <stop offset="100%" stop-color="#08090d"/>
    </radialGradient>
  </defs>

  <rect width="600" height="700" fill="url(#bg)"/>
  <line x1="0" y1="0" x2="600" y2="0" stroke="#FFB020" stroke-opacity="0.015" stroke-width="1"/><line x1="0" y1="20" x2="600" y2="20" stroke="#FFB020" stroke-opacity="0.015" stroke-width="1"/><line x1="0" y1="40" x2="600" y2="40" stroke="#FFB020" stroke-opacity="0.015" stroke-width="1"/><line x1="0" y1="60" x2="600" y2="60" stroke="#FFB020" stroke-opacity="0.015" stroke-width="1"/><line x1="0" y1="80" x2="600" y2="80" stroke="#FFB020" stroke-opacity="0.015" stroke-width="1"/><line x1="0" y1="100" x2="600" y2="100" stroke="#FFB020" stroke-opacity="0.015" stroke-width="1"/><line x1="0" y1="120" x2="600" y2="120" stroke="#FFB020" stroke-opacity="0.015" stroke-width="1"/><line x1="0" y1="140" x2="600" y2="140" stroke="#FFB020" stroke-opacity="0.015" stroke-width="1"/><line x1="0" y1="160" x2="600" y2="160" stroke="#FFB020" stroke-opacity="0.015" stroke-width="1"/><line x1="0" y1="180" x2="600" y2="180" stroke="#FFB020" stroke-opacity="0.015" stroke-width="1"/><line x1="0" y1="200" x2="600" y2="200" stroke="#FFB020" stroke-opacity="0.015" stroke-width="1"/><line x1="0" y1="220" x2="600" y2="220" stroke="#FFB020" stroke-opacity="0.015" stroke-width="1"/><line x1="0" y1="240" x2="600" y2="240" stroke="#FFB020" stroke-opacity="0.015" stroke-width="1"/><line x1="0" y1="260" x2="600" y2="260" stroke="#FFB020" stroke-opacity="0.015" stroke-width="1"/><line x1="0" y1="280" x2="600" y2="280" stroke="#FFB020" stroke-opacity="0.015" stroke-width="1"/><line x1="0" y1="300" x2="600" y2="300" stroke="#FFB020" stroke-opacity="0.015" stroke-width="1"/><line x1="0" y1="320" x2="600" y2="320" stroke="#FFB020" stroke-opacity="0.015" stroke-width="1"/><line x1="0" y1="340" x2="600" y2="340" stroke="#FFB020" stroke-opacity="0.015" stroke-width="1"/><line x1="0" y1="360" x2="600" y2="360" stroke="#FFB020" stroke-opacity="0.015" stroke-width="1"/><line x1="0" y1="380" x2="600" y2="380" stroke="#FFB020" stroke-opacity="0.015" stroke-width="1"/><line x1="0" y1="400" x2="600" y2="400" stroke="#FFB020" stroke-opacity="0.015" stroke-width="1"/><line x1="0" y1="420" x2="600" y2="420" stroke="#FFB020" stroke-opacity="0.015" stroke-width="1"/><line x1="0" y1="440" x2="600" y2="440" stroke="#FFB020" stroke-opacity="0.015" stroke-width="1"/><line x1="0" y1="460" x2="600" y2="460" stroke="#FFB020" stroke-opacity="0.015" stroke-width="1"/><line x1="0" y1="480" x2="600" y2="480" stroke="#FFB020" stroke-opacity="0.015" stroke-width="1"/><line x1="0" y1="500" x2="600" y2="500" stroke="#FFB020" stroke-opacity="0.015" stroke-width="1"/><line x1="0" y1="520" x2="600" y2="520" stroke="#FFB020" stroke-opacity="0.015" stroke-width="1"/><line x1="0" y1="540" x2="600" y2="540" stroke="#FFB020" stroke-opacity="0.015" stroke-width="1"/><line x1="0" y1="560" x2="600" y2="560" stroke="#FFB020" stroke-opacity="0.015" stroke-width="1"/><line x1="0" y1="580" x2="600" y2="580" stroke="#FFB020" stroke-opacity="0.015" stroke-width="1"/><line x1="0" y1="600" x2="600" y2="600" stroke="#FFB020" stroke-opacity="0.015" stroke-width="1"/><line x1="0" y1="620" x2="600" y2="620" stroke="#FFB020" stroke-opacity="0.015" stroke-width="1"/><line x1="0" y1="640" x2="600" y2="640" stroke="#FFB020" stroke-opacity="0.015" stroke-width="1"/><line x1="0" y1="660" x2="600" y2="660" stroke="#FFB020" stroke-opacity="0.015" stroke-width="1"/><line x1="0" y1="680" x2="600" y2="680" stroke="#FFB020" stroke-opacity="0.015" stroke-width="1"/>

  <!-- Cabinet plate -->
  <rect x="50" y="50" width="500" height="600" fill="#0b0c13" stroke="#FFB020" stroke-opacity="0.3" stroke-width="1.5" rx="3"/>
  <rect x="56" y="56" width="488" height="588" fill="none" stroke="#FFB020" stroke-opacity="0.08" stroke-width="0.8" rx="2"/>

  <!-- Cooling vents -->
  <rect x="162.5" y="90.0" width="275.0" height="3" rx="1.5" fill="#FFB020" fill-opacity="0.08" stroke="#FFB020" stroke-opacity="0.2" stroke-width="0.5"/><rect x="162.5" y="116.7" width="275.0" height="3" rx="1.5" fill="#FFB020" fill-opacity="0.08" stroke="#FFB020" stroke-opacity="0.2" stroke-width="0.5"/><rect x="162.5" y="143.3" width="275.0" height="3" rx="1.5" fill="#FFB020" fill-opacity="0.08" stroke="#FFB020" stroke-opacity="0.2" stroke-width="0.5"/><rect x="162.5" y="170.0" width="275.0" height="3" rx="1.5" fill="#FFB020" fill-opacity="0.08" stroke="#FFB020" stroke-opacity="0.2" stroke-width="0.5"/><rect x="162.5" y="196.7" width="275.0" height="3" rx="1.5" fill="#FFB020" fill-opacity="0.08" stroke="#FFB020" stroke-opacity="0.2" stroke-width="0.5"/><rect x="162.5" y="223.3" width="275.0" height="3" rx="1.5" fill="#FFB020" fill-opacity="0.08" stroke="#FFB020" stroke-opacity="0.2" stroke-width="0.5"/><rect x="162.5" y="250.0" width="275.0" height="3" rx="1.5" fill="#FFB020" fill-opacity="0.08" stroke="#FFB020" stroke-opacity="0.2" stroke-width="0.5"/><rect x="162.5" y="276.7" width="275.0" height="3" rx="1.5" fill="#FFB020" fill-opacity="0.08" stroke="#FFB020" stroke-opacity="0.2" stroke-width="0.5"/><rect x="162.5" y="303.3" width="275.0" height="3" rx="1.5" fill="#FFB020" fill-opacity="0.08" stroke="#FFB020" stroke-opacity="0.2" stroke-width="0.5"/><rect x="162.5" y="330.0" width="275.0" height="3" rx="1.5" fill="#FFB020" fill-opacity="0.08" stroke="#FFB020" stroke-opacity="0.2" stroke-width="0.5"/><rect x="162.5" y="356.7" width="275.0" height="3" rx="1.5" fill="#FFB020" fill-opacity="0.08" stroke="#FFB020" stroke-opacity="0.2" stroke-width="0.5"/><rect x="162.5" y="383.3" width="275.0" height="3" rx="1.5" fill="#FFB020" fill-opacity="0.08" stroke="#FFB020" stroke-opacity="0.2" stroke-width="0.5"/><rect x="162.5" y="410.0" width="275.0" height="3" rx="1.5" fill="#FFB020" fill-opacity="0.08" stroke="#FFB020" stroke-opacity="0.2" stroke-width="0.5"/><rect x="162.5" y="436.7" width="275.0" height="3" rx="1.5" fill="#FFB020" fill-opacity="0.08" stroke="#FFB020" stroke-opacity="0.2" stroke-width="0.5"/><rect x="162.5" y="463.3" width="275.0" height="3" rx="1.5" fill="#FFB020" fill-opacity="0.08" stroke="#FFB020" stroke-opacity="0.2" stroke-width="0.5"/><rect x="162.5" y="490.0" width="275.0" height="3" rx="1.5" fill="#FFB020" fill-opacity="0.08" stroke="#FFB020" stroke-opacity="0.2" stroke-width="0.5"/><rect x="162.5" y="516.7" width="275.0" height="3" rx="1.5" fill="#FFB020" fill-opacity="0.08" stroke="#FFB020" stroke-opacity="0.2" stroke-width="0.5"/><rect x="162.5" y="543.3" width="275.0" height="3" rx="1.5" fill="#FFB020" fill-opacity="0.08" stroke="#FFB020" stroke-opacity="0.2" stroke-width="0.5"/>

  <!-- Mount holes -->
  
    <circle cx="72" cy="72" r="8" fill="#0a0b10" stroke="#FFB02060" stroke-width="1.5"/>
    <circle cx="72" cy="72" r="3.2" fill="#FFB02030"/>
    <circle cx="72" cy="72" r="8" fill="none" stroke="#FFB02020" stroke-width="4"/>
    <circle cx="528" cy="72" r="8" fill="#0a0b10" stroke="#FFB02060" stroke-width="1.5"/>
    <circle cx="528" cy="72" r="3.2" fill="#FFB02030"/>
    <circle cx="528" cy="72" r="8" fill="none" stroke="#FFB02020" stroke-width="4"/>
    <circle cx="72" cy="628" r="8" fill="#0a0b10" stroke="#FFB02060" stroke-width="1.5"/>
    <circle cx="72" cy="628" r="3.2" fill="#FFB02030"/>
    <circle cx="72" cy="628" r="8" fill="none" stroke="#FFB02020" stroke-width="4"/>
    <circle cx="528" cy="628" r="8" fill="#0a0b10" stroke="#FFB02060" stroke-width="1.5"/>
    <circle cx="528" cy="628" r="3.2" fill="#FFB02030"/>
    <circle cx="528" cy="628" r="8" fill="none" stroke="#FFB02020" stroke-width="4"/>
    <circle cx="300" cy="72" r="8" fill="#0a0b10" stroke="#FFB02060" stroke-width="1.5"/>
    <circle cx="300" cy="72" r="3.2" fill="#FFB02030"/>
    <circle cx="300" cy="72" r="8" fill="none" stroke="#FFB02020" stroke-width="4"/>

  <!-- Handles -->
  

  <!-- Drain/special -->
  <circle cx="130" cy="635" r="3" fill="#080910" stroke="#FFB02030" stroke-width="1"/><circle cx="210" cy="635" r="3" fill="#080910" stroke="#FFB02030" stroke-width="1"/><circle cx="290" cy="635" r="3" fill="#080910" stroke="#FFB02030" stroke-width="1"/><circle cx="370" cy="635" r="3" fill="#080910" stroke="#FFB02030" stroke-width="1"/><circle cx="450" cy="635" r="3" fill="#080910" stroke="#FFB02030" stroke-width="1"/><rect x="58" y="58" width="484" height="584" rx="3" fill="none" stroke="#FFB02015" stroke-width="2" stroke-dasharray="6,4"/>

  <!-- Model label -->
  
    <rect x="230" y="322" width="140" height="45" rx="3" fill="#FFB02006" stroke="#FFB02018" stroke-width="0.8"/>
    <text x="300" y="340" font-family="'Courier New',monospace" font-size="10" fill="#FFB020" opacity="0.5" text-anchor="middle" letter-spacing="2">ATEMPO DVLED</text>
    <text x="300" y="354" font-family="'Courier New',monospace" font-size="12" fill="#FFB020" opacity="0.7" text-anchor="middle" letter-spacing="3">EX SERIES</text>
    <text x="300" y="370" font-family="'Courier New',monospace" font-size="8" fill="#FFB020" opacity="0.25" text-anchor="middle" letter-spacing="1">S/N: XXXXXXXXXX</text>

  <!-- Data connectors -->
  
      <rect x="80" y="560" width="50" height="70" rx="3" fill="#0a0c14" stroke="#FFB02035" stroke-width="1"/>
      <rect x="87" y="570" width="16" height="20" rx="2" fill="#080910" stroke="#FFB02050" stroke-width="1.2"/>
      <rect x="87" y="598" width="16" height="20" rx="2" fill="#080910" stroke="#FFB02050" stroke-width="1.2"/>
      <text x="108" y="583" font-family="'Courier New',monospace" font-size="7" fill="#FFB020" opacity="0.5">DATA IN</text>
      <text x="108" y="611" font-family="'Courier New',monospace" font-size="7" fill="#FFB020" opacity="0.4">DATA OUT</text>
      <text x="108" y="624" font-family="'Courier New',monospace" font-size="7" fill="#FFB020" opacity="0.35">RJ-45</text>

  <!-- Power connector -->
  
      <rect x="240" y="565" width="120" height="60" rx="4" fill="#0a0c14" stroke="#FFB02040" stroke-width="1"/>
      <circle cx="300" cy="595" r="20" fill="#080910" stroke="#FFB02050" stroke-width="1.5"/>
      <circle cx="300" cy="588" r="4" fill="#FFB02060"/>
      <circle cx="291" cy="600" r="4" fill="#FFB02040"/>
      <circle cx="309" cy="600" r="4" fill="#FFB02040"/>
      <text x="300" y="639" font-family="'Courier New',monospace" font-size="8" fill="#FFB020" opacity="0.5" text-anchor="middle" letter-spacing="1">POWER INPUT</text>

  <!-- Ground lug -->
  
    <circle cx="495" cy="575" r="12" fill="#0a0c14" stroke="#FFB02040" stroke-width="1.2"/>
    <text x="495" y="579" font-family="'Courier New',monospace" font-size="10" fill="#FFB020" opacity="0.6" text-anchor="middle">⏚</text>
    <text x="495" y="597" font-family="'Courier New',monospace" font-size="7" fill="#FFB020" opacity="0.35" text-anchor="middle">GND</text>

  <!-- Corner brackets -->
  <path d="M44,74 L44,44 L74,44" fill="none" stroke="#FFB020" stroke-opacity="0.3" stroke-width="1.5"/>
  <path d="M526,44 L556,44 L556,74" fill="none" stroke="#FFB020" stroke-opacity="0.3" stroke-width="1.5"/>
  <path d="M44,626 L44,656 L74,656" fill="none" stroke="#FFB020" stroke-opacity="0.3" stroke-width="1.5"/>
  <path d="M526,656 L556,656 L556,626" fill="none" stroke="#FFB020" stroke-opacity="0.3" stroke-width="1.5"/>

  <!-- Labels -->
  <text x="50" y="34" font-family="'Courier New',monospace" font-size="11" fill="#FFB020" opacity="0.9" letter-spacing="3">ATEMPO DVLED · EX</text>
  <text x="550" y="34" font-family="'Courier New',monospace" font-size="10" fill="#FFB020" opacity="0.5" letter-spacing="2" text-anchor="end">REAR VIEW</text>
  <text x="50" y="684" font-family="'Courier New',monospace" font-size="10" fill="#FFB020" opacity="0.6" letter-spacing="1.5">IP65 · OUTDOOR</text>
  <text x="550" y="684" font-family="'Courier New',monospace" font-size="10" fill="#FFB020" opacity="0.4" letter-spacing="1.5" text-anchor="end">MODULE 500×500mm</text>

  <!-- Brightness badge -->
  <rect x="470" y="10" width="120" height="20" rx="2" fill="#FFB020" fill-opacity="0.12" stroke="#FFB020" stroke-opacity="0.3" stroke-width="0.8"/>
  <text x="530" y="24" font-family="'Courier New',monospace" font-size="10" fill="#FFB020" opacity="0.8" text-anchor="middle" letter-spacing="1">6000 nit</text>
</svg>