<svg xmlns="http://www.w3.org/2000/svg" width="600" height="480" viewBox="0 0 600 480">
  <defs>
    <radialGradient id="fg" cx="313" cy="233" r="200" gradientUnits="userSpaceOnUse">
      <stop offset="0%" stop-color="#00E5FF" stop-opacity="0.30"/>
      <stop offset="55%" stop-color="#0c0d14" stop-opacity="1"/>
      <stop offset="100%" stop-color="#080910" stop-opacity="1"/>
    </radialGradient>
    <linearGradient id="rg" x1="436.6,395.7" y1="0" x2="410.7,410.7" y2="0" gradientUnits="userSpaceOnUse">
      <stop offset="0%" stop-color="#00E5FF"/>
      <stop offset="100%" stop-color="rgb(0,103,115)"/>
    </linearGradient>
    <filter id="sh" x="-20%" y="-20%" width="140%" height="160%">
      <feDropShadow dx="0" dy="6" stdDeviation="14" flood-color="#00E5FF" flood-opacity="0.18"/>
    </filter>
  </defs>
  <rect width="600" height="480" fill="#fff"/>
  <!-- ground shadow -->
  <ellipse cx="NaN" cy="NaN" rx="195" ry="14" fill="#00E5FF" opacity="0.07"/>
  <g filter="url(#sh)">
    <!-- top face -->
    <polygon points="189.3,69.3 436.6,212.1 410.7,227.1 163.4,84.3" fill="#17192a" stroke="none"/>
    <!-- right edge accent -->
    <polygon points="436.6,395.7 436.6,212.1 410.7,227.1 410.7,410.7" fill="url(#rg)" stroke="none"/>
    <!-- front face -->
    <polygon points="189.3,252.9 436.6,395.7 436.6,212.1 189.3,69.3" fill="url(#fg)" stroke="none"/>
  </g>
  <circle cx="189.3" cy="252.9" r="1.7" fill="#00E5FF" opacity="0.26"/><circle cx="202.2" cy="260.4" r="1.7" fill="#00E5FF" opacity="0.30"/><circle cx="215.2" cy="267.9" r="1.7" fill="#00E5FF" opacity="0.34"/><circle cx="228.2" cy="275.4" r="1.7" fill="#00E5FF" opacity="0.37"/><circle cx="241.1" cy="282.8" r="1.7" fill="#00E5FF" opacity="0.40"/><circle cx="254.1" cy="290.3" r="1.7" fill="#00E5FF" opacity="0.42"/><circle cx="267.0" cy="297.8" r="2.2" fill="#00E5FF" opacity="0.43"/><circle cx="280.0" cy="305.3" r="2.2" fill="#00E5FF" opacity="0.43"/><circle cx="292.9" cy="312.8" r="1.7" fill="#00E5FF" opacity="0.42"/><circle cx="305.9" cy="320.2" r="1.7" fill="#00E5FF" opacity="0.40"/><circle cx="318.8" cy="327.7" r="1.7" fill="#00E5FF" opacity="0.37"/><circle cx="331.8" cy="335.2" r="1.7" fill="#00E5FF" opacity="0.34"/><circle cx="344.8" cy="342.7" r="1.7" fill="#00E5FF" opacity="0.30"/><circle cx="357.7" cy="350.2" r="1.7" fill="#00E5FF" opacity="0.25"/><circle cx="370.7" cy="357.6" r="1.7" fill="#00E5FF" opacity="0.21"/><circle cx="383.6" cy="365.1" r="1.3" fill="#00E5FF" opacity="0.16"/><circle cx="396.6" cy="372.6" r="1.3" fill="#00E5FF" opacity="0.11"/><circle cx="409.5" cy="380.1" r="1.3" fill="#00E5FF" opacity="0.06"/><circle cx="422.5" cy="387.6" r="1.3" fill="#00E5FF" opacity="0.06"/><circle cx="435.4" cy="395.0" r="1.3" fill="#00E5FF" opacity="0.06"/><circle cx="189.3" cy="238.0" r="1.7" fill="#00E5FF" opacity="0.26"/><circle cx="202.2" cy="245.4" r="1.7" fill="#00E5FF" opacity="0.31"/><circle cx="215.2" cy="252.9" r="1.7" fill="#00E5FF" opacity="0.36"/><circle cx="228.2" cy="260.4" r="1.7" fill="#00E5FF" opacity="0.40"/><circle cx="241.1" cy="267.9" r="1.7" fill="#00E5FF" opacity="0.43"/><circle cx="254.1" cy="275.4" r="2.2" fill="#00E5FF" opacity="0.46"/><circle cx="267.0" cy="282.8" r="2.2" fill="#00E5FF" opacity="0.48"/><circle cx="280.0" cy="290.3" r="2.2" fill="#00E5FF" opacity="0.49"/><circle cx="292.9" cy="297.8" r="2.2" fill="#00E5FF" opacity="0.48"/><circle cx="305.9" cy="305.3" r="2.2" fill="#00E5FF" opacity="0.46"/><circle cx="318.8" cy="312.8" r="1.7" fill="#00E5FF" opacity="0.43"/><circle cx="331.8" cy="320.2" r="1.7" fill="#00E5FF" opacity="0.40"/><circle cx="344.8" cy="327.7" r="1.7" fill="#00E5FF" opacity="0.35"/><circle cx="357.7" cy="335.2" r="1.7" fill="#00E5FF" opacity="0.31"/><circle cx="370.7" cy="342.7" r="1.7" fill="#00E5FF" opacity="0.26"/><circle cx="383.6" cy="350.2" r="1.7" fill="#00E5FF" opacity="0.21"/><circle cx="396.6" cy="357.6" r="1.3" fill="#00E5FF" opacity="0.16"/><circle cx="409.5" cy="365.1" r="1.3" fill="#00E5FF" opacity="0.10"/><circle cx="422.5" cy="372.6" r="1.3" fill="#00E5FF" opacity="0.06"/><circle cx="435.4" cy="380.1" r="1.3" fill="#00E5FF" opacity="0.06"/><circle cx="189.3" cy="223.0" r="1.7" fill="#00E5FF" opacity="0.26"/><circle cx="202.2" cy="230.5" r="1.7" fill="#00E5FF" opacity="0.31"/><circle cx="215.2" cy="238.0" r="1.7" fill="#00E5FF" opacity="0.36"/><circle cx="228.2" cy="245.4" r="1.7" fill="#00E5FF" opacity="0.41"/><circle cx="241.1" cy="252.9" r="2.2" fill="#00E5FF" opacity="0.46"/><circle cx="254.1" cy="260.4" r="2.2" fill="#00E5FF" opacity="0.49"/><circle cx="267.0" cy="267.9" r="2.2" fill="#00E5FF" opacity="0.52"/><circle cx="280.0" cy="275.4" r="2.2" fill="#00E5FF" opacity="0.54"/><circle cx="292.9" cy="282.8" r="2.2" fill="#00E5FF" opacity="0.54"/><circle cx="305.9" cy="290.3" r="2.2" fill="#00E5FF" opacity="0.52"/><circle cx="318.8" cy="297.8" r="2.2" fill="#00E5FF" opacity="0.49"/><circle cx="331.8" cy="305.3" r="2.2" fill="#00E5FF" opacity="0.45"/><circle cx="344.8" cy="312.8" r="1.7" fill="#00E5FF" opacity="0.41"/><circle cx="357.7" cy="320.2" r="1.7" fill="#00E5FF" opacity="0.36"/><circle cx="370.7" cy="327.7" r="1.7" fill="#00E5FF" opacity="0.31"/><circle cx="383.6" cy="335.2" r="1.7" fill="#00E5FF" opacity="0.26"/><circle cx="396.6" cy="342.7" r="1.7" fill="#00E5FF" opacity="0.20"/><circle cx="409.5" cy="350.2" r="1.3" fill="#00E5FF" opacity="0.15"/><circle cx="422.5" cy="357.6" r="1.3" fill="#00E5FF" opacity="0.09"/><circle cx="435.4" cy="365.1" r="1.3" fill="#00E5FF" opacity="0.06"/><circle cx="189.3" cy="208.0" r="1.7" fill="#00E5FF" opacity="0.25"/><circle cx="202.2" cy="215.5" r="1.7" fill="#00E5FF" opacity="0.31"/><circle cx="215.2" cy="223.0" r="1.7" fill="#00E5FF" opacity="0.36"/><circle cx="228.2" cy="230.5" r="1.7" fill="#00E5FF" opacity="0.42"/><circle cx="241.1" cy="238.0" r="2.2" fill="#00E5FF" opacity="0.47"/><circle cx="254.1" cy="245.4" r="2.2" fill="#00E5FF" opacity="0.51"/><circle cx="267.0" cy="252.9" r="2.2" fill="#00E5FF" opacity="0.55"/><circle cx="280.0" cy="260.4" r="2.2" fill="#00E5FF" opacity="0.58"/><circle cx="292.9" cy="267.9" r="2.2" fill="#00E5FF" opacity="0.59"/><circle cx="305.9" cy="275.4" r="2.2" fill="#00E5FF" opacity="0.58"/><circle cx="318.8" cy="282.8" r="2.2" fill="#00E5FF" opacity="0.55"/><circle cx="331.8" cy="290.3" r="2.2" fill="#00E5FF" opacity="0.51"/><circle cx="344.8" cy="297.8" r="2.2" fill="#00E5FF" opacity="0.46"/><circle cx="357.7" cy="305.3" r="1.7" fill="#00E5FF" opacity="0.41"/><circle cx="370.7" cy="312.8" r="1.7" fill="#00E5FF" opacity="0.36"/><circle cx="383.6" cy="320.2" r="1.7" fill="#00E5FF" opacity="0.31"/><circle cx="396.6" cy="327.7" r="1.7" fill="#00E5FF" opacity="0.25"/><circle cx="409.5" cy="335.2" r="1.3" fill="#00E5FF" opacity="0.19"/><circle cx="422.5" cy="342.7" r="1.3" fill="#00E5FF" opacity="0.14"/><circle cx="435.4" cy="350.2" r="1.3" fill="#00E5FF" opacity="0.08"/><circle cx="189.3" cy="193.1" r="1.7" fill="#00E5FF" opacity="0.24"/><circle cx="202.2" cy="200.6" r="1.7" fill="#00E5FF" opacity="0.30"/><circle cx="215.2" cy="208.0" r="1.7" fill="#00E5FF" opacity="0.35"/><circle cx="228.2" cy="215.5" r="1.7" fill="#00E5FF" opacity="0.41"/><circle cx="241.1" cy="223.0" r="2.2" fill="#00E5FF" opacity="0.46"/><circle cx="254.1" cy="230.5" r="2.2" fill="#00E5FF" opacity="0.52"/><circle cx="267.0" cy="238.0" r="2.2" fill="#00E5FF" opacity="0.57"/><circle cx="280.0" cy="245.4" r="2.2" fill="#00E5FF" opacity="0.61"/><circle cx="292.9" cy="252.9" r="2.2" fill="#00E5FF" opacity="0.64"/><circle cx="305.9" cy="260.4" r="2.2" fill="#00E5FF" opacity="0.64"/><circle cx="318.8" cy="267.9" r="2.2" fill="#00E5FF" opacity="0.61"/><circle cx="331.8" cy="275.4" r="2.2" fill="#00E5FF" opacity="0.57"/><circle cx="344.8" cy="282.8" r="2.2" fill="#00E5FF" opacity="0.52"/><circle cx="357.7" cy="290.3" r="2.2" fill="#00E5FF" opacity="0.46"/><circle cx="370.7" cy="297.8" r="1.7" fill="#00E5FF" opacity="0.41"/><circle cx="383.6" cy="305.3" r="1.7" fill="#00E5FF" opacity="0.35"/><circle cx="396.6" cy="312.8" r="1.7" fill="#00E5FF" opacity="0.29"/><circle cx="409.5" cy="320.2" r="1.7" fill="#00E5FF" opacity="0.23"/><circle cx="422.5" cy="327.7" r="1.3" fill="#00E5FF" opacity="0.18"/><circle cx="435.4" cy="335.2" r="1.3" fill="#00E5FF" opacity="0.12"/><circle cx="189.3" cy="178.1" r="1.7" fill="#00E5FF" opacity="0.22"/><circle cx="202.2" cy="185.6" r="1.7" fill="#00E5FF" opacity="0.28"/><circle cx="215.2" cy="193.1" r="1.7" fill="#00E5FF" opacity="0.33"/><circle cx="228.2" cy="200.6" r="1.7" fill="#00E5FF" opacity="0.39"/><circle cx="241.1" cy="208.0" r="2.2" fill="#00E5FF" opacity="0.45"/><circle cx="254.1" cy="215.5" r="2.2" fill="#00E5FF" opacity="0.51"/><circle cx="267.0" cy="223.0" r="2.2" fill="#00E5FF" opacity="0.56"/><circle cx="280.0" cy="230.5" r="2.2" fill="#00E5FF" opacity="0.62"/><circle cx="292.9" cy="238.0" r="2.2" fill="#00E5FF" opacity="0.67"/><circle cx="305.9" cy="245.4" r="2.2" fill="#00E5FF" opacity="0.69"/><circle cx="318.8" cy="252.9" r="2.2" fill="#00E5FF" opacity="0.67"/><circle cx="331.8" cy="260.4" r="2.2" fill="#00E5FF" opacity="0.62"/><circle cx="344.8" cy="267.9" r="2.2" fill="#00E5FF" opacity="0.56"/><circle cx="357.7" cy="275.4" r="2.2" fill="#00E5FF" opacity="0.51"/><circle cx="370.7" cy="282.8" r="2.2" fill="#00E5FF" opacity="0.45"/><circle cx="383.6" cy="290.3" r="1.7" fill="#00E5FF" opacity="0.39"/><circle cx="396.6" cy="297.8" r="1.7" fill="#00E5FF" opacity="0.33"/><circle cx="409.5" cy="305.3" r="1.7" fill="#00E5FF" opacity="0.27"/><circle cx="422.5" cy="312.8" r="1.7" fill="#00E5FF" opacity="0.21"/><circle cx="435.4" cy="320.2" r="1.3" fill="#00E5FF" opacity="0.16"/><circle cx="189.3" cy="163.2" r="1.3" fill="#00E5FF" opacity="0.19"/><circle cx="202.2" cy="170.6" r="1.7" fill="#00E5FF" opacity="0.25"/><circle cx="215.2" cy="178.1" r="1.7" fill="#00E5FF" opacity="0.31"/><circle cx="228.2" cy="185.6" r="1.7" fill="#00E5FF" opacity="0.37"/><circle cx="241.1" cy="193.1" r="1.7" fill="#00E5FF" opacity="0.43"/><circle cx="254.1" cy="200.6" r="2.2" fill="#00E5FF" opacity="0.49"/><circle cx="267.0" cy="208.0" r="2.2" fill="#00E5FF" opacity="0.54"/><circle cx="280.0" cy="215.5" r="2.2" fill="#00E5FF" opacity="0.60"/><circle cx="292.9" cy="223.0" r="2.2" fill="#00E5FF" opacity="0.66"/><circle cx="305.9" cy="230.5" r="2.2" fill="#00E5FF" opacity="0.72"/><circle cx="318.8" cy="238.0" r="2.2" fill="#00E5FF" opacity="0.72"/><circle cx="331.8" cy="245.4" r="2.2" fill="#00E5FF" opacity="0.66"/><circle cx="344.8" cy="252.9" r="2.2" fill="#00E5FF" opacity="0.60"/><circle cx="357.7" cy="260.4" r="2.2" fill="#00E5FF" opacity="0.54"/><circle cx="370.7" cy="267.9" r="2.2" fill="#00E5FF" opacity="0.48"/><circle cx="383.6" cy="275.4" r="1.7" fill="#00E5FF" opacity="0.42"/><circle cx="396.6" cy="282.8" r="1.7" fill="#00E5FF" opacity="0.36"/><circle cx="409.5" cy="290.3" r="1.7" fill="#00E5FF" opacity="0.31"/><circle cx="422.5" cy="297.8" r="1.7" fill="#00E5FF" opacity="0.25"/><circle cx="435.4" cy="305.3" r="1.3" fill="#00E5FF" opacity="0.19"/><circle cx="189.3" cy="148.2" r="1.3" fill="#00E5FF" opacity="0.16"/><circle cx="202.2" cy="155.7" r="1.7" fill="#00E5FF" opacity="0.22"/><circle cx="215.2" cy="163.2" r="1.7" fill="#00E5FF" opacity="0.28"/><circle cx="228.2" cy="170.6" r="1.7" fill="#00E5FF" opacity="0.34"/><circle cx="241.1" cy="178.1" r="1.7" fill="#00E5FF" opacity="0.39"/><circle cx="254.1" cy="185.6" r="2.2" fill="#00E5FF" opacity="0.45"/><circle cx="267.0" cy="193.1" r="2.2" fill="#00E5FF" opacity="0.51"/><circle cx="280.0" cy="200.6" r="2.2" fill="#00E5FF" opacity="0.57"/><circle cx="292.9" cy="208.0" r="2.2" fill="#00E5FF" opacity="0.63"/><circle cx="305.9" cy="215.5" r="2.2" fill="#00E5FF" opacity="0.68"/><circle cx="318.8" cy="223.0" r="2.2" fill="#00E5FF" opacity="0.71"/><circle cx="331.8" cy="230.5" r="2.2" fill="#00E5FF" opacity="0.68"/><circle cx="344.8" cy="238.0" r="2.2" fill="#00E5FF" opacity="0.62"/><circle cx="357.7" cy="245.4" r="2.2" fill="#00E5FF" opacity="0.57"/><circle cx="370.7" cy="252.9" r="2.2" fill="#00E5FF" opacity="0.51"/><circle cx="383.6" cy="260.4" r="2.2" fill="#00E5FF" opacity="0.45"/><circle cx="396.6" cy="267.9" r="1.7" fill="#00E5FF" opacity="0.39"/><circle cx="409.5" cy="275.4" r="1.7" fill="#00E5FF" opacity="0.33"/><circle cx="422.5" cy="282.8" r="1.7" fill="#00E5FF" opacity="0.27"/><circle cx="435.4" cy="290.3" r="1.7" fill="#00E5FF" opacity="0.22"/><circle cx="189.3" cy="133.2" r="1.3" fill="#00E5FF" opacity="0.12"/><circle cx="202.2" cy="140.7" r="1.3" fill="#00E5FF" opacity="0.18"/><circle cx="215.2" cy="148.2" r="1.7" fill="#00E5FF" opacity="0.24"/><circle cx="228.2" cy="155.7" r="1.7" fill="#00E5FF" opacity="0.30"/><circle cx="241.1" cy="163.2" r="1.7" fill="#00E5FF" opacity="0.36"/><circle cx="254.1" cy="170.6" r="1.7" fill="#00E5FF" opacity="0.41"/><circle cx="267.0" cy="178.1" r="2.2" fill="#00E5FF" opacity="0.47"/><circle cx="280.0" cy="185.6" r="2.2" fill="#00E5FF" opacity="0.52"/><circle cx="292.9" cy="193.1" r="2.2" fill="#00E5FF" opacity="0.58"/><circle cx="305.9" cy="200.6" r="2.2" fill="#00E5FF" opacity="0.62"/><circle cx="318.8" cy="208.0" r="2.2" fill="#00E5FF" opacity="0.65"/><circle cx="331.8" cy="215.5" r="2.2" fill="#00E5FF" opacity="0.65"/><circle cx="344.8" cy="223.0" r="2.2" fill="#00E5FF" opacity="0.62"/><circle cx="357.7" cy="230.5" r="2.2" fill="#00E5FF" opacity="0.57"/><circle cx="370.7" cy="238.0" r="2.2" fill="#00E5FF" opacity="0.52"/><circle cx="383.6" cy="245.4" r="2.2" fill="#00E5FF" opacity="0.47"/><circle cx="396.6" cy="252.9" r="1.7" fill="#00E5FF" opacity="0.41"/><circle cx="409.5" cy="260.4" r="1.7" fill="#00E5FF" opacity="0.35"/><circle cx="422.5" cy="267.9" r="1.7" fill="#00E5FF" opacity="0.30"/><circle cx="435.4" cy="275.4" r="1.7" fill="#00E5FF" opacity="0.24"/><circle cx="189.3" cy="118.3" r="1.3" fill="#00E5FF" opacity="0.09"/><circle cx="202.2" cy="125.8" r="1.3" fill="#00E5FF" opacity="0.14"/><circle cx="215.2" cy="133.2" r="1.7" fill="#00E5FF" opacity="0.20"/><circle cx="228.2" cy="140.7" r="1.7" fill="#00E5FF" opacity="0.26"/><circle cx="241.1" cy="148.2" r="1.7" fill="#00E5FF" opacity="0.31"/><circle cx="254.1" cy="155.7" r="1.7" fill="#00E5FF" opacity="0.37"/><circle cx="267.0" cy="163.2" r="1.7" fill="#00E5FF" opacity="0.42"/><circle cx="280.0" cy="170.6" r="2.2" fill="#00E5FF" opacity="0.47"/><circle cx="292.9" cy="178.1" r="2.2" fill="#00E5FF" opacity="0.52"/><circle cx="305.9" cy="185.6" r="2.2" fill="#00E5FF" opacity="0.56"/><circle cx="318.8" cy="193.1" r="2.2" fill="#00E5FF" opacity="0.59"/><circle cx="331.8" cy="200.6" r="2.2" fill="#00E5FF" opacity="0.60"/><circle cx="344.8" cy="208.0" r="2.2" fill="#00E5FF" opacity="0.59"/><circle cx="357.7" cy="215.5" r="2.2" fill="#00E5FF" opacity="0.56"/><circle cx="370.7" cy="223.0" r="2.2" fill="#00E5FF" opacity="0.52"/><circle cx="383.6" cy="230.5" r="2.2" fill="#00E5FF" opacity="0.47"/><circle cx="396.6" cy="238.0" r="1.7" fill="#00E5FF" opacity="0.42"/><circle cx="409.5" cy="245.4" r="1.7" fill="#00E5FF" opacity="0.37"/><circle cx="422.5" cy="252.9" r="1.7" fill="#00E5FF" opacity="0.31"/><circle cx="435.4" cy="260.4" r="1.7" fill="#00E5FF" opacity="0.25"/><circle cx="189.3" cy="103.3" r="1.3" fill="#00E5FF" opacity="0.06"/><circle cx="202.2" cy="110.8" r="1.3" fill="#00E5FF" opacity="0.10"/><circle cx="215.2" cy="118.3" r="1.3" fill="#00E5FF" opacity="0.16"/><circle cx="228.2" cy="125.8" r="1.7" fill="#00E5FF" opacity="0.21"/><circle cx="241.1" cy="133.2" r="1.7" fill="#00E5FF" opacity="0.27"/><circle cx="254.1" cy="140.7" r="1.7" fill="#00E5FF" opacity="0.32"/><circle cx="267.0" cy="148.2" r="1.7" fill="#00E5FF" opacity="0.37"/><circle cx="280.0" cy="155.7" r="1.7" fill="#00E5FF" opacity="0.42"/><circle cx="292.9" cy="163.2" r="2.2" fill="#00E5FF" opacity="0.47"/><circle cx="305.9" cy="170.6" r="2.2" fill="#00E5FF" opacity="0.50"/><circle cx="318.8" cy="178.1" r="2.2" fill="#00E5FF" opacity="0.53"/><circle cx="331.8" cy="185.6" r="2.2" fill="#00E5FF" opacity="0.55"/><circle cx="344.8" cy="193.1" r="2.2" fill="#00E5FF" opacity="0.55"/><circle cx="357.7" cy="200.6" r="2.2" fill="#00E5FF" opacity="0.53"/><circle cx="370.7" cy="208.0" r="2.2" fill="#00E5FF" opacity="0.50"/><circle cx="383.6" cy="215.5" r="2.2" fill="#00E5FF" opacity="0.46"/><circle cx="396.6" cy="223.0" r="1.7" fill="#00E5FF" opacity="0.42"/><circle cx="409.5" cy="230.5" r="1.7" fill="#00E5FF" opacity="0.37"/><circle cx="422.5" cy="238.0" r="1.7" fill="#00E5FF" opacity="0.32"/><circle cx="435.4" cy="245.4" r="1.7" fill="#00E5FF" opacity="0.26"/><circle cx="189.3" cy="88.4" r="1.3" fill="#00E5FF" opacity="0.06"/><circle cx="202.2" cy="95.8" r="1.3" fill="#00E5FF" opacity="0.06"/><circle cx="215.2" cy="103.3" r="1.3" fill="#00E5FF" opacity="0.11"/><circle cx="228.2" cy="110.8" r="1.3" fill="#00E5FF" opacity="0.16"/><circle cx="241.1" cy="118.3" r="1.7" fill="#00E5FF" opacity="0.22"/><circle cx="254.1" cy="125.8" r="1.7" fill="#00E5FF" opacity="0.27"/><circle cx="267.0" cy="133.2" r="1.7" fill="#00E5FF" opacity="0.32"/><circle cx="280.0" cy="140.7" r="1.7" fill="#00E5FF" opacity="0.36"/><circle cx="292.9" cy="148.2" r="1.7" fill="#00E5FF" opacity="0.41"/><circle cx="305.9" cy="155.7" r="2.2" fill="#00E5FF" opacity="0.45"/><circle cx="318.8" cy="163.2" r="2.2" fill="#00E5FF" opacity="0.48"/><circle cx="331.8" cy="170.6" r="2.2" fill="#00E5FF" opacity="0.49"/><circle cx="344.8" cy="178.1" r="2.2" fill="#00E5FF" opacity="0.50"/><circle cx="357.7" cy="185.6" r="2.2" fill="#00E5FF" opacity="0.49"/><circle cx="370.7" cy="193.1" r="2.2" fill="#00E5FF" opacity="0.47"/><circle cx="383.6" cy="200.6" r="2.2" fill="#00E5FF" opacity="0.44"/><circle cx="396.6" cy="208.0" r="1.7" fill="#00E5FF" opacity="0.41"/><circle cx="409.5" cy="215.5" r="1.7" fill="#00E5FF" opacity="0.36"/><circle cx="422.5" cy="223.0" r="1.7" fill="#00E5FF" opacity="0.32"/><circle cx="435.4" cy="230.5" r="1.7" fill="#00E5FF" opacity="0.27"/><circle cx="189.3" cy="73.4" r="1.3" fill="#00E5FF" opacity="0.06"/><circle cx="202.2" cy="80.9" r="1.3" fill="#00E5FF" opacity="0.06"/><circle cx="215.2" cy="88.4" r="1.3" fill="#00E5FF" opacity="0.06"/><circle cx="228.2" cy="95.8" r="1.3" fill="#00E5FF" opacity="0.12"/><circle cx="241.1" cy="103.3" r="1.3" fill="#00E5FF" opacity="0.17"/><circle cx="254.1" cy="110.8" r="1.7" fill="#00E5FF" opacity="0.22"/><circle cx="267.0" cy="118.3" r="1.7" fill="#00E5FF" opacity="0.26"/><circle cx="280.0" cy="125.8" r="1.7" fill="#00E5FF" opacity="0.31"/><circle cx="292.9" cy="133.2" r="1.7" fill="#00E5FF" opacity="0.35"/><circle cx="305.9" cy="140.7" r="1.7" fill="#00E5FF" opacity="0.39"/><circle cx="318.8" cy="148.2" r="1.7" fill="#00E5FF" opacity="0.42"/><circle cx="331.8" cy="155.7" r="2.2" fill="#00E5FF" opacity="0.44"/><circle cx="344.8" cy="163.2" r="2.2" fill="#00E5FF" opacity="0.45"/><circle cx="357.7" cy="170.6" r="2.2" fill="#00E5FF" opacity="0.45"/><circle cx="370.7" cy="178.1" r="2.2" fill="#00E5FF" opacity="0.44"/><circle cx="383.6" cy="185.6" r="1.7" fill="#00E5FF" opacity="0.42"/><circle cx="396.6" cy="193.1" r="1.7" fill="#00E5FF" opacity="0.39"/><circle cx="409.5" cy="200.6" r="1.7" fill="#00E5FF" opacity="0.35"/><circle cx="422.5" cy="208.0" r="1.7" fill="#00E5FF" opacity="0.31"/><circle cx="435.4" cy="215.5" r="1.7" fill="#00E5FF" opacity="0.26"/>
  <!-- center bloom -->
  <circle cx="313.0" cy="232.5" r="60" fill="#00E5FF" opacity="0.10"/>
  <circle cx="313.0" cy="232.5" r="28" fill="#00E5FF" opacity="0.14"/>
</svg>