<svg xmlns="http://www.w3.org/2000/svg" width="600" height="480" viewBox="0 0 600 480">
  <defs>
    <radialGradient id="fg" cx="314" cy="232" r="200" gradientUnits="userSpaceOnUse">
      <stop offset="0%" stop-color="#6A5ACD" stop-opacity="0.30"/>
      <stop offset="55%" stop-color="#0c0d14" stop-opacity="1"/>
      <stop offset="100%" stop-color="#080910" stop-opacity="1"/>
    </radialGradient>
    <linearGradient id="rg" x1="437.8,395.0" y1="0" x2="409.5,411.4" y2="0" gradientUnits="userSpaceOnUse">
      <stop offset="0%" stop-color="#6A5ACD"/>
      <stop offset="100%" stop-color="rgb(48,41,92)"/>
    </linearGradient>
    <filter id="sh" x="-20%" y="-20%" width="140%" height="160%">
      <feDropShadow dx="0" dy="6" stdDeviation="14" flood-color="#6A5ACD" flood-opacity="0.18"/>
    </filter>
  </defs>
  <rect width="600" height="480" fill="#fff"/>
  <!-- ground shadow -->
  <ellipse cx="NaN" cy="NaN" rx="195" ry="14" fill="#6A5ACD" opacity="0.07"/>
  <g filter="url(#sh)">
    <!-- top face -->
    <polygon points="190.5,68.6 437.8,211.4 409.5,227.8 162.2,85.0" fill="#17192a" stroke="none"/>
    <!-- right edge accent -->
    <polygon points="437.8,395.0 437.8,211.4 409.5,227.8 409.5,411.4" fill="url(#rg)" stroke="none"/>
    <!-- front face -->
    <polygon points="190.5,252.2 437.8,395.0 437.8,211.4 190.5,68.6" fill="url(#fg)" stroke="none"/>
  </g>
  <circle cx="190.5" cy="252.2" r="1.7" fill="#6A5ACD" opacity="0.26"/><circle cx="203.4" cy="259.7" r="1.7" fill="#6A5ACD" opacity="0.30"/><circle cx="216.4" cy="267.2" r="1.7" fill="#6A5ACD" opacity="0.34"/><circle cx="229.3" cy="274.7" r="1.7" fill="#6A5ACD" opacity="0.37"/><circle cx="242.3" cy="282.2" r="1.7" fill="#6A5ACD" opacity="0.40"/><circle cx="255.2" cy="289.6" r="1.7" fill="#6A5ACD" opacity="0.42"/><circle cx="268.2" cy="297.1" r="2.2" fill="#6A5ACD" opacity="0.43"/><circle cx="281.2" cy="304.6" r="2.2" fill="#6A5ACD" opacity="0.43"/><circle cx="294.1" cy="312.1" r="1.7" fill="#6A5ACD" opacity="0.42"/><circle cx="307.1" cy="319.6" r="1.7" fill="#6A5ACD" opacity="0.40"/><circle cx="320.0" cy="327.0" r="1.7" fill="#6A5ACD" opacity="0.37"/><circle cx="333.0" cy="334.5" r="1.7" fill="#6A5ACD" opacity="0.34"/><circle cx="345.9" cy="342.0" r="1.7" fill="#6A5ACD" opacity="0.30"/><circle cx="358.9" cy="349.5" r="1.7" fill="#6A5ACD" opacity="0.25"/><circle cx="371.8" cy="357.0" r="1.7" fill="#6A5ACD" opacity="0.21"/><circle cx="384.8" cy="364.4" r="1.3" fill="#6A5ACD" opacity="0.16"/><circle cx="397.8" cy="371.9" r="1.3" fill="#6A5ACD" opacity="0.11"/><circle cx="410.7" cy="379.4" r="1.3" fill="#6A5ACD" opacity="0.06"/><circle cx="423.7" cy="386.9" r="1.3" fill="#6A5ACD" opacity="0.06"/><circle cx="436.6" cy="394.4" r="1.3" fill="#6A5ACD" opacity="0.06"/><circle cx="190.5" cy="237.3" r="1.7" fill="#6A5ACD" opacity="0.26"/><circle cx="203.4" cy="244.8" r="1.7" fill="#6A5ACD" opacity="0.31"/><circle cx="216.4" cy="252.2" r="1.7" fill="#6A5ACD" opacity="0.36"/><circle cx="229.3" cy="259.7" r="1.7" fill="#6A5ACD" opacity="0.40"/><circle cx="242.3" cy="267.2" r="1.7" fill="#6A5ACD" opacity="0.43"/><circle cx="255.2" cy="274.7" r="2.2" fill="#6A5ACD" opacity="0.46"/><circle cx="268.2" cy="282.2" r="2.2" fill="#6A5ACD" opacity="0.48"/><circle cx="281.2" cy="289.6" r="2.2" fill="#6A5ACD" opacity="0.49"/><circle cx="294.1" cy="297.1" r="2.2" fill="#6A5ACD" opacity="0.48"/><circle cx="307.1" cy="304.6" r="2.2" fill="#6A5ACD" opacity="0.46"/><circle cx="320.0" cy="312.1" r="1.7" fill="#6A5ACD" opacity="0.43"/><circle cx="333.0" cy="319.6" r="1.7" fill="#6A5ACD" opacity="0.40"/><circle cx="345.9" cy="327.0" r="1.7" fill="#6A5ACD" opacity="0.35"/><circle cx="358.9" cy="334.5" r="1.7" fill="#6A5ACD" opacity="0.31"/><circle cx="371.8" cy="342.0" r="1.7" fill="#6A5ACD" opacity="0.26"/><circle cx="384.8" cy="349.5" r="1.7" fill="#6A5ACD" opacity="0.21"/><circle cx="397.8" cy="357.0" r="1.3" fill="#6A5ACD" opacity="0.16"/><circle cx="410.7" cy="364.4" r="1.3" fill="#6A5ACD" opacity="0.10"/><circle cx="423.7" cy="371.9" r="1.3" fill="#6A5ACD" opacity="0.06"/><circle cx="436.6" cy="379.4" r="1.3" fill="#6A5ACD" opacity="0.06"/><circle cx="190.5" cy="222.3" r="1.7" fill="#6A5ACD" opacity="0.26"/><circle cx="203.4" cy="229.8" r="1.7" fill="#6A5ACD" opacity="0.31"/><circle cx="216.4" cy="237.3" r="1.7" fill="#6A5ACD" opacity="0.36"/><circle cx="229.3" cy="244.8" r="1.7" fill="#6A5ACD" opacity="0.41"/><circle cx="242.3" cy="252.2" r="2.2" fill="#6A5ACD" opacity="0.46"/><circle cx="255.2" cy="259.7" r="2.2" fill="#6A5ACD" opacity="0.49"/><circle cx="268.2" cy="267.2" r="2.2" fill="#6A5ACD" opacity="0.52"/><circle cx="281.2" cy="274.7" r="2.2" fill="#6A5ACD" opacity="0.54"/><circle cx="294.1" cy="282.2" r="2.2" fill="#6A5ACD" opacity="0.54"/><circle cx="307.1" cy="289.6" r="2.2" fill="#6A5ACD" opacity="0.52"/><circle cx="320.0" cy="297.1" r="2.2" fill="#6A5ACD" opacity="0.49"/><circle cx="333.0" cy="304.6" r="2.2" fill="#6A5ACD" opacity="0.45"/><circle cx="345.9" cy="312.1" r="1.7" fill="#6A5ACD" opacity="0.41"/><circle cx="358.9" cy="319.6" r="1.7" fill="#6A5ACD" opacity="0.36"/><circle cx="371.8" cy="327.0" r="1.7" fill="#6A5ACD" opacity="0.31"/><circle cx="384.8" cy="334.5" r="1.7" fill="#6A5ACD" opacity="0.26"/><circle cx="397.8" cy="342.0" r="1.7" fill="#6A5ACD" opacity="0.20"/><circle cx="410.7" cy="349.5" r="1.3" fill="#6A5ACD" opacity="0.15"/><circle cx="423.7" cy="357.0" r="1.3" fill="#6A5ACD" opacity="0.09"/><circle cx="436.6" cy="364.4" r="1.3" fill="#6A5ACD" opacity="0.06"/><circle cx="190.5" cy="207.4" r="1.7" fill="#6A5ACD" opacity="0.25"/><circle cx="203.4" cy="214.8" r="1.7" fill="#6A5ACD" opacity="0.31"/><circle cx="216.4" cy="222.3" r="1.7" fill="#6A5ACD" opacity="0.36"/><circle cx="229.3" cy="229.8" r="1.7" fill="#6A5ACD" opacity="0.42"/><circle cx="242.3" cy="237.3" r="2.2" fill="#6A5ACD" opacity="0.47"/><circle cx="255.2" cy="244.8" r="2.2" fill="#6A5ACD" opacity="0.51"/><circle cx="268.2" cy="252.2" r="2.2" fill="#6A5ACD" opacity="0.55"/><circle cx="281.2" cy="259.7" r="2.2" fill="#6A5ACD" opacity="0.58"/><circle cx="294.1" cy="267.2" r="2.2" fill="#6A5ACD" opacity="0.59"/><circle cx="307.1" cy="274.7" r="2.2" fill="#6A5ACD" opacity="0.58"/><circle cx="320.0" cy="282.2" r="2.2" fill="#6A5ACD" opacity="0.55"/><circle cx="333.0" cy="289.6" r="2.2" fill="#6A5ACD" opacity="0.51"/><circle cx="345.9" cy="297.1" r="2.2" fill="#6A5ACD" opacity="0.46"/><circle cx="358.9" cy="304.6" r="1.7" fill="#6A5ACD" opacity="0.41"/><circle cx="371.8" cy="312.1" r="1.7" fill="#6A5ACD" opacity="0.36"/><circle cx="384.8" cy="319.6" r="1.7" fill="#6A5ACD" opacity="0.31"/><circle cx="397.8" cy="327.0" r="1.7" fill="#6A5ACD" opacity="0.25"/><circle cx="410.7" cy="334.5" r="1.3" fill="#6A5ACD" opacity="0.19"/><circle cx="423.7" cy="342.0" r="1.3" fill="#6A5ACD" opacity="0.14"/><circle cx="436.6" cy="349.5" r="1.3" fill="#6A5ACD" opacity="0.08"/><circle cx="190.5" cy="192.4" r="1.7" fill="#6A5ACD" opacity="0.24"/><circle cx="203.4" cy="199.9" r="1.7" fill="#6A5ACD" opacity="0.30"/><circle cx="216.4" cy="207.4" r="1.7" fill="#6A5ACD" opacity="0.35"/><circle cx="229.3" cy="214.8" r="1.7" fill="#6A5ACD" opacity="0.41"/><circle cx="242.3" cy="222.3" r="2.2" fill="#6A5ACD" opacity="0.46"/><circle cx="255.2" cy="229.8" r="2.2" fill="#6A5ACD" opacity="0.52"/><circle cx="268.2" cy="237.3" r="2.2" fill="#6A5ACD" opacity="0.57"/><circle cx="281.2" cy="244.8" r="2.2" fill="#6A5ACD" opacity="0.61"/><circle cx="294.1" cy="252.2" r="2.2" fill="#6A5ACD" opacity="0.64"/><circle cx="307.1" cy="259.7" r="2.2" fill="#6A5ACD" opacity="0.64"/><circle cx="320.0" cy="267.2" r="2.2" fill="#6A5ACD" opacity="0.61"/><circle cx="333.0" cy="274.7" r="2.2" fill="#6A5ACD" opacity="0.57"/><circle cx="345.9" cy="282.2" r="2.2" fill="#6A5ACD" opacity="0.52"/><circle cx="358.9" cy="289.6" r="2.2" fill="#6A5ACD" opacity="0.46"/><circle cx="371.8" cy="297.1" r="1.7" fill="#6A5ACD" opacity="0.41"/><circle cx="384.8" cy="304.6" r="1.7" fill="#6A5ACD" opacity="0.35"/><circle cx="397.8" cy="312.1" r="1.7" fill="#6A5ACD" opacity="0.29"/><circle cx="410.7" cy="319.6" r="1.7" fill="#6A5ACD" opacity="0.23"/><circle cx="423.7" cy="327.0" r="1.3" fill="#6A5ACD" opacity="0.18"/><circle cx="436.6" cy="334.5" r="1.3" fill="#6A5ACD" opacity="0.12"/><circle cx="190.5" cy="177.4" r="1.7" fill="#6A5ACD" opacity="0.22"/><circle cx="203.4" cy="184.9" r="1.7" fill="#6A5ACD" opacity="0.28"/><circle cx="216.4" cy="192.4" r="1.7" fill="#6A5ACD" opacity="0.33"/><circle cx="229.3" cy="199.9" r="1.7" fill="#6A5ACD" opacity="0.39"/><circle cx="242.3" cy="207.4" r="2.2" fill="#6A5ACD" opacity="0.45"/><circle cx="255.2" cy="214.8" r="2.2" fill="#6A5ACD" opacity="0.51"/><circle cx="268.2" cy="222.3" r="2.2" fill="#6A5ACD" opacity="0.56"/><circle cx="281.2" cy="229.8" r="2.2" fill="#6A5ACD" opacity="0.62"/><circle cx="294.1" cy="237.3" r="2.2" fill="#6A5ACD" opacity="0.67"/><circle cx="307.1" cy="244.8" r="2.2" fill="#6A5ACD" opacity="0.69"/><circle cx="320.0" cy="252.2" r="2.2" fill="#6A5ACD" opacity="0.67"/><circle cx="333.0" cy="259.7" r="2.2" fill="#6A5ACD" opacity="0.62"/><circle cx="345.9" cy="267.2" r="2.2" fill="#6A5ACD" opacity="0.56"/><circle cx="358.9" cy="274.7" r="2.2" fill="#6A5ACD" opacity="0.51"/><circle cx="371.8" cy="282.2" r="2.2" fill="#6A5ACD" opacity="0.45"/><circle cx="384.8" cy="289.6" r="1.7" fill="#6A5ACD" opacity="0.39"/><circle cx="397.8" cy="297.1" r="1.7" fill="#6A5ACD" opacity="0.33"/><circle cx="410.7" cy="304.6" r="1.7" fill="#6A5ACD" opacity="0.27"/><circle cx="423.7" cy="312.1" r="1.7" fill="#6A5ACD" opacity="0.21"/><circle cx="436.6" cy="319.6" r="1.3" fill="#6A5ACD" opacity="0.16"/><circle cx="190.5" cy="162.5" r="1.3" fill="#6A5ACD" opacity="0.19"/><circle cx="203.4" cy="170.0" r="1.7" fill="#6A5ACD" opacity="0.25"/><circle cx="216.4" cy="177.4" r="1.7" fill="#6A5ACD" opacity="0.31"/><circle cx="229.3" cy="184.9" r="1.7" fill="#6A5ACD" opacity="0.37"/><circle cx="242.3" cy="192.4" r="1.7" fill="#6A5ACD" opacity="0.43"/><circle cx="255.2" cy="199.9" r="2.2" fill="#6A5ACD" opacity="0.49"/><circle cx="268.2" cy="207.4" r="2.2" fill="#6A5ACD" opacity="0.54"/><circle cx="281.2" cy="214.8" r="2.2" fill="#6A5ACD" opacity="0.60"/><circle cx="294.1" cy="222.3" r="2.2" fill="#6A5ACD" opacity="0.66"/><circle cx="307.1" cy="229.8" r="2.2" fill="#6A5ACD" opacity="0.72"/><circle cx="320.0" cy="237.3" r="2.2" fill="#6A5ACD" opacity="0.72"/><circle cx="333.0" cy="244.8" r="2.2" fill="#6A5ACD" opacity="0.66"/><circle cx="345.9" cy="252.2" r="2.2" fill="#6A5ACD" opacity="0.60"/><circle cx="358.9" cy="259.7" r="2.2" fill="#6A5ACD" opacity="0.54"/><circle cx="371.8" cy="267.2" r="2.2" fill="#6A5ACD" opacity="0.48"/><circle cx="384.8" cy="274.7" r="1.7" fill="#6A5ACD" opacity="0.42"/><circle cx="397.8" cy="282.2" r="1.7" fill="#6A5ACD" opacity="0.36"/><circle cx="410.7" cy="289.6" r="1.7" fill="#6A5ACD" opacity="0.31"/><circle cx="423.7" cy="297.1" r="1.7" fill="#6A5ACD" opacity="0.25"/><circle cx="436.6" cy="304.6" r="1.3" fill="#6A5ACD" opacity="0.19"/><circle cx="190.5" cy="147.5" r="1.3" fill="#6A5ACD" opacity="0.16"/><circle cx="203.4" cy="155.0" r="1.7" fill="#6A5ACD" opacity="0.22"/><circle cx="216.4" cy="162.5" r="1.7" fill="#6A5ACD" opacity="0.28"/><circle cx="229.3" cy="170.0" r="1.7" fill="#6A5ACD" opacity="0.34"/><circle cx="242.3" cy="177.4" r="1.7" fill="#6A5ACD" opacity="0.39"/><circle cx="255.2" cy="184.9" r="2.2" fill="#6A5ACD" opacity="0.45"/><circle cx="268.2" cy="192.4" r="2.2" fill="#6A5ACD" opacity="0.51"/><circle cx="281.2" cy="199.9" r="2.2" fill="#6A5ACD" opacity="0.57"/><circle cx="294.1" cy="207.4" r="2.2" fill="#6A5ACD" opacity="0.63"/><circle cx="307.1" cy="214.8" r="2.2" fill="#6A5ACD" opacity="0.68"/><circle cx="320.0" cy="222.3" r="2.2" fill="#6A5ACD" opacity="0.71"/><circle cx="333.0" cy="229.8" r="2.2" fill="#6A5ACD" opacity="0.68"/><circle cx="345.9" cy="237.3" r="2.2" fill="#6A5ACD" opacity="0.62"/><circle cx="358.9" cy="244.8" r="2.2" fill="#6A5ACD" opacity="0.57"/><circle cx="371.8" cy="252.2" r="2.2" fill="#6A5ACD" opacity="0.51"/><circle cx="384.8" cy="259.7" r="2.2" fill="#6A5ACD" opacity="0.45"/><circle cx="397.8" cy="267.2" r="1.7" fill="#6A5ACD" opacity="0.39"/><circle cx="410.7" cy="274.7" r="1.7" fill="#6A5ACD" opacity="0.33"/><circle cx="423.7" cy="282.2" r="1.7" fill="#6A5ACD" opacity="0.27"/><circle cx="436.6" cy="289.6" r="1.7" fill="#6A5ACD" opacity="0.22"/><circle cx="190.5" cy="132.6" r="1.3" fill="#6A5ACD" opacity="0.12"/><circle cx="203.4" cy="140.0" r="1.3" fill="#6A5ACD" opacity="0.18"/><circle cx="216.4" cy="147.5" r="1.7" fill="#6A5ACD" opacity="0.24"/><circle cx="229.3" cy="155.0" r="1.7" fill="#6A5ACD" opacity="0.30"/><circle cx="242.3" cy="162.5" r="1.7" fill="#6A5ACD" opacity="0.36"/><circle cx="255.2" cy="170.0" r="1.7" fill="#6A5ACD" opacity="0.41"/><circle cx="268.2" cy="177.4" r="2.2" fill="#6A5ACD" opacity="0.47"/><circle cx="281.2" cy="184.9" r="2.2" fill="#6A5ACD" opacity="0.52"/><circle cx="294.1" cy="192.4" r="2.2" fill="#6A5ACD" opacity="0.58"/><circle cx="307.1" cy="199.9" r="2.2" fill="#6A5ACD" opacity="0.62"/><circle cx="320.0" cy="207.4" r="2.2" fill="#6A5ACD" opacity="0.65"/><circle cx="333.0" cy="214.8" r="2.2" fill="#6A5ACD" opacity="0.65"/><circle cx="345.9" cy="222.3" r="2.2" fill="#6A5ACD" opacity="0.62"/><circle cx="358.9" cy="229.8" r="2.2" fill="#6A5ACD" opacity="0.57"/><circle cx="371.8" cy="237.3" r="2.2" fill="#6A5ACD" opacity="0.52"/><circle cx="384.8" cy="244.8" r="2.2" fill="#6A5ACD" opacity="0.47"/><circle cx="397.8" cy="252.2" r="1.7" fill="#6A5ACD" opacity="0.41"/><circle cx="410.7" cy="259.7" r="1.7" fill="#6A5ACD" opacity="0.35"/><circle cx="423.7" cy="267.2" r="1.7" fill="#6A5ACD" opacity="0.30"/><circle cx="436.6" cy="274.7" r="1.7" fill="#6A5ACD" opacity="0.24"/><circle cx="190.5" cy="117.6" r="1.3" fill="#6A5ACD" opacity="0.09"/><circle cx="203.4" cy="125.1" r="1.3" fill="#6A5ACD" opacity="0.14"/><circle cx="216.4" cy="132.6" r="1.7" fill="#6A5ACD" opacity="0.20"/><circle cx="229.3" cy="140.0" r="1.7" fill="#6A5ACD" opacity="0.26"/><circle cx="242.3" cy="147.5" r="1.7" fill="#6A5ACD" opacity="0.31"/><circle cx="255.2" cy="155.0" r="1.7" fill="#6A5ACD" opacity="0.37"/><circle cx="268.2" cy="162.5" r="1.7" fill="#6A5ACD" opacity="0.42"/><circle cx="281.2" cy="170.0" r="2.2" fill="#6A5ACD" opacity="0.47"/><circle cx="294.1" cy="177.4" r="2.2" fill="#6A5ACD" opacity="0.52"/><circle cx="307.1" cy="184.9" r="2.2" fill="#6A5ACD" opacity="0.56"/><circle cx="320.0" cy="192.4" r="2.2" fill="#6A5ACD" opacity="0.59"/><circle cx="333.0" cy="199.9" r="2.2" fill="#6A5ACD" opacity="0.60"/><circle cx="345.9" cy="207.4" r="2.2" fill="#6A5ACD" opacity="0.59"/><circle cx="358.9" cy="214.8" r="2.2" fill="#6A5ACD" opacity="0.56"/><circle cx="371.8" cy="222.3" r="2.2" fill="#6A5ACD" opacity="0.52"/><circle cx="384.8" cy="229.8" r="2.2" fill="#6A5ACD" opacity="0.47"/><circle cx="397.8" cy="237.3" r="1.7" fill="#6A5ACD" opacity="0.42"/><circle cx="410.7" cy="244.8" r="1.7" fill="#6A5ACD" opacity="0.37"/><circle cx="423.7" cy="252.2" r="1.7" fill="#6A5ACD" opacity="0.31"/><circle cx="436.6" cy="259.7" r="1.7" fill="#6A5ACD" opacity="0.25"/><circle cx="190.5" cy="102.6" r="1.3" fill="#6A5ACD" opacity="0.06"/><circle cx="203.4" cy="110.1" r="1.3" fill="#6A5ACD" opacity="0.10"/><circle cx="216.4" cy="117.6" r="1.3" fill="#6A5ACD" opacity="0.16"/><circle cx="229.3" cy="125.1" r="1.7" fill="#6A5ACD" opacity="0.21"/><circle cx="242.3" cy="132.6" r="1.7" fill="#6A5ACD" opacity="0.27"/><circle cx="255.2" cy="140.0" r="1.7" fill="#6A5ACD" opacity="0.32"/><circle cx="268.2" cy="147.5" r="1.7" fill="#6A5ACD" opacity="0.37"/><circle cx="281.2" cy="155.0" r="1.7" fill="#6A5ACD" opacity="0.42"/><circle cx="294.1" cy="162.5" r="2.2" fill="#6A5ACD" opacity="0.47"/><circle cx="307.1" cy="170.0" r="2.2" fill="#6A5ACD" opacity="0.50"/><circle cx="320.0" cy="177.4" r="2.2" fill="#6A5ACD" opacity="0.53"/><circle cx="333.0" cy="184.9" r="2.2" fill="#6A5ACD" opacity="0.55"/><circle cx="345.9" cy="192.4" r="2.2" fill="#6A5ACD" opacity="0.55"/><circle cx="358.9" cy="199.9" r="2.2" fill="#6A5ACD" opacity="0.53"/><circle cx="371.8" cy="207.4" r="2.2" fill="#6A5ACD" opacity="0.50"/><circle cx="384.8" cy="214.8" r="2.2" fill="#6A5ACD" opacity="0.46"/><circle cx="397.8" cy="222.3" r="1.7" fill="#6A5ACD" opacity="0.42"/><circle cx="410.7" cy="229.8" r="1.7" fill="#6A5ACD" opacity="0.37"/><circle cx="423.7" cy="237.3" r="1.7" fill="#6A5ACD" opacity="0.32"/><circle cx="436.6" cy="244.8" r="1.7" fill="#6A5ACD" opacity="0.26"/><circle cx="190.5" cy="87.7" r="1.3" fill="#6A5ACD" opacity="0.06"/><circle cx="203.4" cy="95.2" r="1.3" fill="#6A5ACD" opacity="0.06"/><circle cx="216.4" cy="102.6" r="1.3" fill="#6A5ACD" opacity="0.11"/><circle cx="229.3" cy="110.1" r="1.3" fill="#6A5ACD" opacity="0.16"/><circle cx="242.3" cy="117.6" r="1.7" fill="#6A5ACD" opacity="0.22"/><circle cx="255.2" cy="125.1" r="1.7" fill="#6A5ACD" opacity="0.27"/><circle cx="268.2" cy="132.6" r="1.7" fill="#6A5ACD" opacity="0.32"/><circle cx="281.2" cy="140.0" r="1.7" fill="#6A5ACD" opacity="0.36"/><circle cx="294.1" cy="147.5" r="1.7" fill="#6A5ACD" opacity="0.41"/><circle cx="307.1" cy="155.0" r="2.2" fill="#6A5ACD" opacity="0.45"/><circle cx="320.0" cy="162.5" r="2.2" fill="#6A5ACD" opacity="0.48"/><circle cx="333.0" cy="170.0" r="2.2" fill="#6A5ACD" opacity="0.49"/><circle cx="345.9" cy="177.4" r="2.2" fill="#6A5ACD" opacity="0.50"/><circle cx="358.9" cy="184.9" r="2.2" fill="#6A5ACD" opacity="0.49"/><circle cx="371.8" cy="192.4" r="2.2" fill="#6A5ACD" opacity="0.47"/><circle cx="384.8" cy="199.9" r="2.2" fill="#6A5ACD" opacity="0.44"/><circle cx="397.8" cy="207.4" r="1.7" fill="#6A5ACD" opacity="0.41"/><circle cx="410.7" cy="214.8" r="1.7" fill="#6A5ACD" opacity="0.36"/><circle cx="423.7" cy="222.3" r="1.7" fill="#6A5ACD" opacity="0.32"/><circle cx="436.6" cy="229.8" r="1.7" fill="#6A5ACD" opacity="0.27"/><circle cx="190.5" cy="72.7" r="1.3" fill="#6A5ACD" opacity="0.06"/><circle cx="203.4" cy="80.2" r="1.3" fill="#6A5ACD" opacity="0.06"/><circle cx="216.4" cy="87.7" r="1.3" fill="#6A5ACD" opacity="0.06"/><circle cx="229.3" cy="95.2" r="1.3" fill="#6A5ACD" opacity="0.12"/><circle cx="242.3" cy="102.6" r="1.3" fill="#6A5ACD" opacity="0.17"/><circle cx="255.2" cy="110.1" r="1.7" fill="#6A5ACD" opacity="0.22"/><circle cx="268.2" cy="117.6" r="1.7" fill="#6A5ACD" opacity="0.26"/><circle cx="281.2" cy="125.1" r="1.7" fill="#6A5ACD" opacity="0.31"/><circle cx="294.1" cy="132.6" r="1.7" fill="#6A5ACD" opacity="0.35"/><circle cx="307.1" cy="140.0" r="1.7" fill="#6A5ACD" opacity="0.39"/><circle cx="320.0" cy="147.5" r="1.7" fill="#6A5ACD" opacity="0.42"/><circle cx="333.0" cy="155.0" r="2.2" fill="#6A5ACD" opacity="0.44"/><circle cx="345.9" cy="162.5" r="2.2" fill="#6A5ACD" opacity="0.45"/><circle cx="358.9" cy="170.0" r="2.2" fill="#6A5ACD" opacity="0.45"/><circle cx="371.8" cy="177.4" r="2.2" fill="#6A5ACD" opacity="0.44"/><circle cx="384.8" cy="184.9" r="1.7" fill="#6A5ACD" opacity="0.42"/><circle cx="397.8" cy="192.4" r="1.7" fill="#6A5ACD" opacity="0.39"/><circle cx="410.7" cy="199.9" r="1.7" fill="#6A5ACD" opacity="0.35"/><circle cx="423.7" cy="207.4" r="1.7" fill="#6A5ACD" opacity="0.31"/><circle cx="436.6" cy="214.8" r="1.7" fill="#6A5ACD" opacity="0.26"/>
  <!-- center bloom -->
  <circle cx="314.1" cy="231.8" r="60" fill="#6A5ACD" opacity="0.10"/>
  <circle cx="314.1" cy="231.8" r="28" fill="#6A5ACD" opacity="0.14"/>
</svg>