<svg xmlns="http://www.w3.org/2000/svg" width="600" height="480" viewBox="0 0 600 480">
  <defs>
    <filter id="sh" x="-20%" y="-20%" width="140%" height="160%">
      <feDropShadow dx="0" dy="6" stdDeviation="14" flood-color="#000" flood-opacity="0.15"/>
    </filter>
  </defs>
  <rect width="600" height="480" fill="#fff"/>
  <ellipse cx="263" cy="362" rx="195" ry="14" fill="#000" opacity="0.05"/>
  <g filter="url(#sh)">
    <!-- top face -->
    <polygon points="434.9,213.1 187.5,70.3 165.1,83.3 412.5,226.1" fill="#17192a"/>
    <!-- left edge -->
    <polygon points="434.9,396.7 434.9,213.1 412.5,226.1 412.5,409.7" fill="#1d1f2f"/>
    <!-- back face (main) -->
    <polygon points="434.9,396.7 187.5,253.9 187.5,70.3 434.9,213.1" fill="#12131e"/>
  </g>
  <polygon points="417.2,366.1 205.2,243.7 205.2,100.9 417.2,223.3" fill="#1a1c2a" stroke="none"/><polygon points="414.2,361.0 208.1,242.0 208.1,106.0 414.2,225.0" fill="#1e2130" stroke="none"/><polygon points="331.8,323.6 290.6,299.8 290.6,274.0 331.8,297.8" fill="#333648" stroke="none"/><circle cx="319.4" cy="303.6" r="7" fill="#555870"/><circle cx="311.2" cy="298.8" r="7" fill="#555870"/><circle cx="302.9" cy="294.1" r="7" fill="#555870"/><polygon points="411.3,369.5 383.0,353.2 383.0,332.8 411.3,349.1" fill="#333648" stroke="none"/><polygon points="411.3,366.8 383.0,350.5 383.0,343.7 411.3,360.0" fill="#444860" stroke="none"/><polygon points="411.3,357.3 383.0,341.0 383.0,335.5 411.3,351.9" fill="#444860" stroke="none"/><circle cx="217.0" cy="247.1" r="12" fill="#2e3145"/><circle cx="217.0" cy="247.1" r="7" fill="#555870"/><circle cx="417.2" cy="366.1" r="8" fill="#222433"/><circle cx="417.2" cy="366.1" r="3" fill="#444860"/><circle cx="205.2" cy="243.7" r="8" fill="#222433"/><circle cx="205.2" cy="243.7" r="3" fill="#444860"/><circle cx="417.2" cy="223.3" r="8" fill="#222433"/><circle cx="417.2" cy="223.3" r="3" fill="#444860"/><circle cx="205.2" cy="100.9" r="8" fill="#222433"/><circle cx="205.2" cy="100.9" r="3" fill="#444860"/><circle cx="311.2" cy="304.9" r="8" fill="#222433"/><circle cx="311.2" cy="304.9" r="3" fill="#444860"/><polygon points="399.5,321.9 222.9,219.9 222.9,216.5 399.5,318.5" fill="#151724" stroke="none"/><polygon points="399.5,311.7 222.9,209.7 222.9,206.3 399.5,308.3" fill="#151724" stroke="none"/><polygon points="399.5,301.5 222.9,199.5 222.9,196.1 399.5,298.1" fill="#151724" stroke="none"/><polygon points="399.5,291.3 222.9,189.3 222.9,185.9 399.5,287.9" fill="#151724" stroke="none"/><polygon points="399.5,281.1 222.9,179.1 222.9,175.7 399.5,277.7" fill="#151724" stroke="none"/><polygon points="399.5,270.9 222.9,168.9 222.9,165.5 399.5,267.5" fill="#151724" stroke="none"/><polygon points="399.5,260.7 222.9,158.7 222.9,155.3 399.5,257.3" fill="#151724" stroke="none"/><polygon points="399.5,250.5 222.9,148.5 222.9,145.1 399.5,247.1" fill="#151724" stroke="none"/><polygon points="399.5,240.3 222.9,138.3 222.9,134.9 399.5,236.9" fill="#151724" stroke="none"/><polygon points="399.5,230.1 222.9,128.1 222.9,124.7 399.5,226.7" fill="#151724" stroke="none"/>
  <!-- series color accent on left edge -->
  <polygon points="434.9,396.7 434.9,213.1 412.5,226.1 412.5,409.7" fill="#9333EA" opacity="0.25"/>
</svg>