<svg xmlns="http://www.w3.org/2000/svg" width="600" height="480" viewBox="0 0 600 480">
  <defs>
    <filter id="sh" x="-20%" y="-20%" width="140%" height="160%">
      <feDropShadow dx="0" dy="6" stdDeviation="14" flood-color="#000" flood-opacity="0.15"/>
    </filter>
  </defs>
  <rect width="600" height="480" fill="#fff"/>
  <ellipse cx="263" cy="365" rx="195" ry="14" fill="#000" opacity="0.05"/>
  <g filter="url(#sh)">
    <!-- top face -->
    <polygon points="437.8,211.4 190.5,68.6 162.2,85.0 409.5,227.8" fill="#17192a"/>
    <!-- left edge -->
    <polygon points="437.8,395.0 437.8,211.4 409.5,227.8 409.5,411.4" fill="#1d1f2f"/>
    <!-- back face (main) -->
    <polygon points="437.8,395.0 190.5,252.2 190.5,68.6 437.8,211.4" fill="#12131e"/>
  </g>
  <polygon points="420.1,364.4 208.1,242.0 208.1,99.2 420.1,221.6" fill="#1a1c2a" stroke="none"/><polygon points="417.2,359.3 211.1,240.3 211.1,104.3 417.2,223.3" fill="#1e2130" stroke="none"/><polygon points="334.7,321.9 293.5,298.1 293.5,272.3 334.7,296.1" fill="#333648" stroke="none"/><circle cx="322.4" cy="301.9" r="7" fill="#555870"/><circle cx="314.1" cy="297.1" r="7" fill="#555870"/><circle cx="305.9" cy="292.4" r="7" fill="#555870"/><polygon points="414.2,367.8 386.0,351.5 386.0,331.1 414.2,347.4" fill="#333648" stroke="none"/><polygon points="414.2,365.1 386.0,348.8 386.0,342.0 414.2,358.3" fill="#444860" stroke="none"/><polygon points="414.2,355.6 386.0,339.3 386.0,333.8 414.2,350.2" fill="#444860" stroke="none"/><circle cx="219.9" cy="245.4" r="12" fill="#2e3145"/><circle cx="219.9" cy="245.4" r="7" fill="#555870"/><circle cx="420.1" cy="364.4" r="8" fill="#222433"/><circle cx="420.1" cy="364.4" r="3" fill="#444860"/><circle cx="208.1" cy="242.0" r="8" fill="#222433"/><circle cx="208.1" cy="242.0" r="3" fill="#444860"/><circle cx="420.1" cy="221.6" r="8" fill="#222433"/><circle cx="420.1" cy="221.6" r="3" fill="#444860"/><circle cx="208.1" cy="99.2" r="8" fill="#222433"/><circle cx="208.1" cy="99.2" r="3" fill="#444860"/><circle cx="314.1" cy="303.2" r="8" fill="#222433"/><circle cx="314.1" cy="303.2" r="3" fill="#444860"/><polygon points="402.5,320.2 225.8,218.2 225.8,214.8 402.5,316.8" fill="#151724" stroke="none"/><polygon points="402.5,310.0 225.8,208.0 225.8,204.6 402.5,306.6" fill="#151724" stroke="none"/><polygon points="402.5,299.8 225.8,197.8 225.8,194.4 402.5,296.4" fill="#151724" stroke="none"/><polygon points="402.5,289.6 225.8,187.6 225.8,184.2 402.5,286.2" fill="#151724" stroke="none"/><polygon points="402.5,279.4 225.8,177.4 225.8,174.0 402.5,276.0" fill="#151724" stroke="none"/><polygon points="402.5,269.2 225.8,167.2 225.8,163.8 402.5,265.8" fill="#151724" stroke="none"/><polygon points="402.5,259.0 225.8,157.0 225.8,153.6 402.5,255.6" fill="#151724" stroke="none"/><polygon points="402.5,248.8 225.8,146.8 225.8,143.4 402.5,245.4" fill="#151724" stroke="none"/><polygon points="402.5,238.6 225.8,136.6 225.8,133.2 402.5,235.2" fill="#151724" stroke="none"/><polygon points="402.5,228.4 225.8,126.4 225.8,123.0 402.5,225.0" fill="#151724" stroke="none"/>
  <!-- series color accent on left edge -->
  <polygon points="437.8,395.0 437.8,211.4 409.5,227.8 409.5,411.4" fill="#6A5ACD" opacity="0.25"/>
</svg>