<svg xmlns="http://www.w3.org/2000/svg" width="600" height="700" viewBox="0 0 600 700">
  <defs>
    <radialGradient id="bg" cx="50%" cy="50%" r="60%">
      <stop offset="0%" stop-color="#101218"/>
      <stop offset="100%" stop-color="#08090d"/>
    </radialGradient>
    <radialGradient id="glow" cx="50%" cy="50%" r="50%">
      <stop offset="0%" stop-color="#FF6A00" stop-opacity="0.12"/>
      <stop offset="100%" stop-color="#FF6A00" stop-opacity="0"/>
    </radialGradient>
    <filter id="bloom" x="-30%" y="-30%" width="160%" height="160%">
      <feGaussianBlur in="SourceGraphic" stdDeviation="3" result="blur"/>
      <feMerge><feMergeNode in="blur"/><feMergeNode in="SourceGraphic"/></feMerge>
    </filter>
  </defs>

  <!-- Background -->
  <rect width="600" height="700" fill="url(#bg)"/>
  <rect x="20" y="30" width="560" height="640" fill="url(#glow)"/>

  <!-- Outer scan lines texture -->
  <line x1="0" y1="0" x2="600" y2="0" stroke="#FF6A00" stroke-opacity="0.02" stroke-width="1"/><line x1="0" y1="20" x2="600" y2="20" stroke="#FF6A00" stroke-opacity="0.02" stroke-width="1"/><line x1="0" y1="40" x2="600" y2="40" stroke="#FF6A00" stroke-opacity="0.02" stroke-width="1"/><line x1="0" y1="60" x2="600" y2="60" stroke="#FF6A00" stroke-opacity="0.02" stroke-width="1"/><line x1="0" y1="80" x2="600" y2="80" stroke="#FF6A00" stroke-opacity="0.02" stroke-width="1"/><line x1="0" y1="100" x2="600" y2="100" stroke="#FF6A00" stroke-opacity="0.02" stroke-width="1"/><line x1="0" y1="120" x2="600" y2="120" stroke="#FF6A00" stroke-opacity="0.02" stroke-width="1"/><line x1="0" y1="140" x2="600" y2="140" stroke="#FF6A00" stroke-opacity="0.02" stroke-width="1"/><line x1="0" y1="160" x2="600" y2="160" stroke="#FF6A00" stroke-opacity="0.02" stroke-width="1"/><line x1="0" y1="180" x2="600" y2="180" stroke="#FF6A00" stroke-opacity="0.02" stroke-width="1"/><line x1="0" y1="200" x2="600" y2="200" stroke="#FF6A00" stroke-opacity="0.02" stroke-width="1"/><line x1="0" y1="220" x2="600" y2="220" stroke="#FF6A00" stroke-opacity="0.02" stroke-width="1"/><line x1="0" y1="240" x2="600" y2="240" stroke="#FF6A00" stroke-opacity="0.02" stroke-width="1"/><line x1="0" y1="260" x2="600" y2="260" stroke="#FF6A00" stroke-opacity="0.02" stroke-width="1"/><line x1="0" y1="280" x2="600" y2="280" stroke="#FF6A00" stroke-opacity="0.02" stroke-width="1"/><line x1="0" y1="300" x2="600" y2="300" stroke="#FF6A00" stroke-opacity="0.02" stroke-width="1"/><line x1="0" y1="320" x2="600" y2="320" stroke="#FF6A00" stroke-opacity="0.02" stroke-width="1"/><line x1="0" y1="340" x2="600" y2="340" stroke="#FF6A00" stroke-opacity="0.02" stroke-width="1"/><line x1="0" y1="360" x2="600" y2="360" stroke="#FF6A00" stroke-opacity="0.02" stroke-width="1"/><line x1="0" y1="380" x2="600" y2="380" stroke="#FF6A00" stroke-opacity="0.02" stroke-width="1"/><line x1="0" y1="400" x2="600" y2="400" stroke="#FF6A00" stroke-opacity="0.02" stroke-width="1"/><line x1="0" y1="420" x2="600" y2="420" stroke="#FF6A00" stroke-opacity="0.02" stroke-width="1"/><line x1="0" y1="440" x2="600" y2="440" stroke="#FF6A00" stroke-opacity="0.02" stroke-width="1"/><line x1="0" y1="460" x2="600" y2="460" stroke="#FF6A00" stroke-opacity="0.02" stroke-width="1"/><line x1="0" y1="480" x2="600" y2="480" stroke="#FF6A00" stroke-opacity="0.02" stroke-width="1"/><line x1="0" y1="500" x2="600" y2="500" stroke="#FF6A00" stroke-opacity="0.02" stroke-width="1"/><line x1="0" y1="520" x2="600" y2="520" stroke="#FF6A00" stroke-opacity="0.02" stroke-width="1"/><line x1="0" y1="540" x2="600" y2="540" stroke="#FF6A00" stroke-opacity="0.02" stroke-width="1"/><line x1="0" y1="560" x2="600" y2="560" stroke="#FF6A00" stroke-opacity="0.02" stroke-width="1"/><line x1="0" y1="580" x2="600" y2="580" stroke="#FF6A00" stroke-opacity="0.02" stroke-width="1"/><line x1="0" y1="600" x2="600" y2="600" stroke="#FF6A00" stroke-opacity="0.02" stroke-width="1"/><line x1="0" y1="620" x2="600" y2="620" stroke="#FF6A00" stroke-opacity="0.02" stroke-width="1"/><line x1="0" y1="640" x2="600" y2="640" stroke="#FF6A00" stroke-opacity="0.02" stroke-width="1"/><line x1="0" y1="660" x2="600" y2="660" stroke="#FF6A00" stroke-opacity="0.02" stroke-width="1"/><line x1="0" y1="680" x2="600" y2="680" stroke="#FF6A00" stroke-opacity="0.02" stroke-width="1"/>

  <!-- Panel border -->
  <rect x="40" y="50" width="520" height="600" fill="#0d0e14" stroke="#FF6A00" stroke-opacity="0.45" stroke-width="1.5" rx="2"/>
  <rect x="44" y="54" width="512" height="592" fill="none" stroke="#FF6A00" stroke-opacity="0.12" stroke-width="0.5" rx="1"/>

  <!-- LED grid with glow -->
  <g filter="url(#bloom)"><circle cx="89.2" cy="100.0" r="10.73" fill="#FF6A00" opacity="0.20"/><circle cx="127.5" cy="100.0" r="10.73" fill="#FF6A00" opacity="0.24"/><circle cx="165.8" cy="100.0" r="10.73" fill="#FF6A00" opacity="0.28"/><circle cx="204.2" cy="100.0" r="10.73" fill="#FF6A00" opacity="0.30"/><circle cx="242.5" cy="100.0" r="10.73" fill="#FF6A00" opacity="0.32"/><circle cx="280.8" cy="100.0" r="10.73" fill="#FF6A00" opacity="0.33"/><circle cx="319.2" cy="100.0" r="10.73" fill="#FF6A00" opacity="0.33"/><circle cx="357.5" cy="100.0" r="10.73" fill="#FF6A00" opacity="0.32"/><circle cx="395.8" cy="100.0" r="10.73" fill="#FF6A00" opacity="0.30"/><circle cx="434.2" cy="100.0" r="10.73" fill="#FF6A00" opacity="0.28"/><circle cx="472.5" cy="100.0" r="10.73" fill="#FF6A00" opacity="0.24"/><circle cx="510.8" cy="100.0" r="10.73" fill="#FF6A00" opacity="0.20"/><circle cx="89.2" cy="140.0" r="10.73" fill="#FF6A00" opacity="0.25"/><circle cx="127.5" cy="140.0" r="10.73" fill="#FF6A00" opacity="0.30"/><circle cx="165.8" cy="140.0" r="10.73" fill="#FF6A00" opacity="0.34"/><circle cx="204.2" cy="140.0" r="10.73" fill="#FF6A00" opacity="0.37"/><circle cx="242.5" cy="140.0" r="10.73" fill="#FF6A00" opacity="0.39"/><circle cx="280.8" cy="140.0" r="10.73" fill="#FF6A00" opacity="0.40"/><circle cx="319.2" cy="140.0" r="10.73" fill="#FF6A00" opacity="0.40"/><circle cx="357.5" cy="140.0" r="10.73" fill="#FF6A00" opacity="0.39"/><circle cx="395.8" cy="140.0" r="10.73" fill="#FF6A00" opacity="0.37"/><circle cx="434.2" cy="140.0" r="10.73" fill="#FF6A00" opacity="0.34"/><circle cx="472.5" cy="140.0" r="10.73" fill="#FF6A00" opacity="0.30"/><circle cx="510.8" cy="140.0" r="10.73" fill="#FF6A00" opacity="0.25"/><circle cx="89.2" cy="180.0" r="10.73" fill="#FF6A00" opacity="0.30"/><circle cx="127.5" cy="180.0" r="10.73" fill="#FF6A00" opacity="0.35"/><circle cx="165.8" cy="180.0" r="10.73" fill="#FF6A00" opacity="0.40"/><circle cx="204.2" cy="180.0" r="10.73" fill="#FF6A00" opacity="0.43"/><circle cx="242.5" cy="180.0" r="10.73" fill="#FF6A00" opacity="0.46"/><circle cx="280.8" cy="180.0" r="10.73" fill="#FF6A00" opacity="0.48"/><circle cx="319.2" cy="180.0" r="10.73" fill="#FF6A00" opacity="0.48"/><circle cx="357.5" cy="180.0" r="10.73" fill="#FF6A00" opacity="0.46"/><circle cx="395.8" cy="180.0" r="10.73" fill="#FF6A00" opacity="0.43"/><circle cx="434.2" cy="180.0" r="10.73" fill="#FF6A00" opacity="0.40"/><circle cx="472.5" cy="180.0" r="10.73" fill="#FF6A00" opacity="0.35"/><circle cx="510.8" cy="180.0" r="10.73" fill="#FF6A00" opacity="0.30"/><circle cx="89.2" cy="220.0" r="10.73" fill="#FF6A00" opacity="0.35"/><circle cx="127.5" cy="220.0" r="10.73" fill="#FF6A00" opacity="0.40"/><circle cx="165.8" cy="220.0" r="10.73" fill="#FF6A00" opacity="0.45"/><circle cx="204.2" cy="220.0" r="10.73" fill="#FF6A00" opacity="0.50"/><circle cx="242.5" cy="220.0" r="10.73" fill="#FF6A00" opacity="0.53"/><circle cx="280.8" cy="220.0" r="10.73" fill="#FF6A00" opacity="0.55"/><circle cx="280.8" cy="220.0" r="26.83" fill="#FF6A00" opacity="0.082"/><circle cx="319.2" cy="220.0" r="10.73" fill="#FF6A00" opacity="0.55"/><circle cx="319.2" cy="220.0" r="26.83" fill="#FF6A00" opacity="0.082"/><circle cx="357.5" cy="220.0" r="10.73" fill="#FF6A00" opacity="0.53"/><circle cx="395.8" cy="220.0" r="10.73" fill="#FF6A00" opacity="0.50"/><circle cx="434.2" cy="220.0" r="10.73" fill="#FF6A00" opacity="0.45"/><circle cx="472.5" cy="220.0" r="10.73" fill="#FF6A00" opacity="0.40"/><circle cx="510.8" cy="220.0" r="10.73" fill="#FF6A00" opacity="0.35"/><circle cx="89.2" cy="260.0" r="10.73" fill="#FF6A00" opacity="0.38"/><circle cx="127.5" cy="260.0" r="10.73" fill="#FF6A00" opacity="0.44"/><circle cx="165.8" cy="260.0" r="10.73" fill="#FF6A00" opacity="0.50"/><circle cx="204.2" cy="260.0" r="10.73" fill="#FF6A00" opacity="0.55"/><circle cx="204.2" cy="260.0" r="26.83" fill="#FF6A00" opacity="0.083"/><circle cx="242.5" cy="260.0" r="10.73" fill="#FF6A00" opacity="0.59"/><circle cx="242.5" cy="260.0" r="26.83" fill="#FF6A00" opacity="0.092"/><circle cx="280.8" cy="260.0" r="10.73" fill="#FF6A00" opacity="0.62"/><circle cx="280.8" cy="260.0" r="26.83" fill="#FF6A00" opacity="0.097"/><circle cx="319.2" cy="260.0" r="10.73" fill="#FF6A00" opacity="0.62"/><circle cx="319.2" cy="260.0" r="26.83" fill="#FF6A00" opacity="0.097"/><circle cx="357.5" cy="260.0" r="10.73" fill="#FF6A00" opacity="0.59"/><circle cx="357.5" cy="260.0" r="26.83" fill="#FF6A00" opacity="0.092"/><circle cx="395.8" cy="260.0" r="10.73" fill="#FF6A00" opacity="0.55"/><circle cx="395.8" cy="260.0" r="26.83" fill="#FF6A00" opacity="0.083"/><circle cx="434.2" cy="260.0" r="10.73" fill="#FF6A00" opacity="0.50"/><circle cx="472.5" cy="260.0" r="10.73" fill="#FF6A00" opacity="0.44"/><circle cx="510.8" cy="260.0" r="10.73" fill="#FF6A00" opacity="0.38"/><circle cx="89.2" cy="300.0" r="10.73" fill="#FF6A00" opacity="0.41"/><circle cx="127.5" cy="300.0" r="10.73" fill="#FF6A00" opacity="0.47"/><circle cx="165.8" cy="300.0" r="10.73" fill="#FF6A00" opacity="0.54"/><circle cx="204.2" cy="300.0" r="10.73" fill="#FF6A00" opacity="0.60"/><circle cx="204.2" cy="300.0" r="26.83" fill="#FF6A00" opacity="0.093"/><circle cx="242.5" cy="300.0" r="10.73" fill="#FF6A00" opacity="0.65"/><circle cx="242.5" cy="300.0" r="26.83" fill="#FF6A00" opacity="0.104"/><circle cx="280.8" cy="300.0" r="10.73" fill="#FF6A00" opacity="0.69"/><circle cx="280.8" cy="300.0" r="26.83" fill="#FF6A00" opacity="0.112"/><circle cx="319.2" cy="300.0" r="10.73" fill="#FF6A00" opacity="0.69"/><circle cx="319.2" cy="300.0" r="26.83" fill="#FF6A00" opacity="0.112"/><circle cx="357.5" cy="300.0" r="10.73" fill="#FF6A00" opacity="0.65"/><circle cx="357.5" cy="300.0" r="26.83" fill="#FF6A00" opacity="0.104"/><circle cx="395.8" cy="300.0" r="10.73" fill="#FF6A00" opacity="0.60"/><circle cx="395.8" cy="300.0" r="26.83" fill="#FF6A00" opacity="0.093"/><circle cx="434.2" cy="300.0" r="10.73" fill="#FF6A00" opacity="0.54"/><circle cx="472.5" cy="300.0" r="10.73" fill="#FF6A00" opacity="0.47"/><circle cx="510.8" cy="300.0" r="10.73" fill="#FF6A00" opacity="0.41"/><circle cx="89.2" cy="340.0" r="10.73" fill="#FF6A00" opacity="0.42"/><circle cx="127.5" cy="340.0" r="10.73" fill="#FF6A00" opacity="0.49"/><circle cx="165.8" cy="340.0" r="10.73" fill="#FF6A00" opacity="0.56"/><circle cx="165.8" cy="340.0" r="26.83" fill="#FF6A00" opacity="0.084"/><circle cx="204.2" cy="340.0" r="10.73" fill="#FF6A00" opacity="0.62"/><circle cx="204.2" cy="340.0" r="26.83" fill="#FF6A00" opacity="0.099"/><circle cx="242.5" cy="340.0" r="10.73" fill="#FF6A00" opacity="0.69"/><circle cx="242.5" cy="340.0" r="26.83" fill="#FF6A00" opacity="0.112"/><circle cx="280.8" cy="340.0" r="10.73" fill="#FF6A00" opacity="0.75"/><circle cx="280.8" cy="340.0" r="26.83" fill="#FF6A00" opacity="0.125"/><circle cx="319.2" cy="340.0" r="10.73" fill="#FF6A00" opacity="0.75"/><circle cx="319.2" cy="340.0" r="26.83" fill="#FF6A00" opacity="0.125"/><circle cx="357.5" cy="340.0" r="10.73" fill="#FF6A00" opacity="0.69"/><circle cx="357.5" cy="340.0" r="26.83" fill="#FF6A00" opacity="0.112"/><circle cx="395.8" cy="340.0" r="10.73" fill="#FF6A00" opacity="0.62"/><circle cx="395.8" cy="340.0" r="26.83" fill="#FF6A00" opacity="0.099"/><circle cx="434.2" cy="340.0" r="10.73" fill="#FF6A00" opacity="0.56"/><circle cx="434.2" cy="340.0" r="26.83" fill="#FF6A00" opacity="0.084"/><circle cx="472.5" cy="340.0" r="10.73" fill="#FF6A00" opacity="0.49"/><circle cx="510.8" cy="340.0" r="10.73" fill="#FF6A00" opacity="0.42"/><circle cx="89.2" cy="380.0" r="10.73" fill="#FF6A00" opacity="0.42"/><circle cx="127.5" cy="380.0" r="10.73" fill="#FF6A00" opacity="0.49"/><circle cx="165.8" cy="380.0" r="10.73" fill="#FF6A00" opacity="0.56"/><circle cx="165.8" cy="380.0" r="26.83" fill="#FF6A00" opacity="0.084"/><circle cx="204.2" cy="380.0" r="10.73" fill="#FF6A00" opacity="0.62"/><circle cx="204.2" cy="380.0" r="26.83" fill="#FF6A00" opacity="0.099"/><circle cx="242.5" cy="380.0" r="10.73" fill="#FF6A00" opacity="0.69"/><circle cx="242.5" cy="380.0" r="26.83" fill="#FF6A00" opacity="0.112"/><circle cx="280.8" cy="380.0" r="10.73" fill="#FF6A00" opacity="0.75"/><circle cx="280.8" cy="380.0" r="26.83" fill="#FF6A00" opacity="0.125"/><circle cx="319.2" cy="380.0" r="10.73" fill="#FF6A00" opacity="0.75"/><circle cx="319.2" cy="380.0" r="26.83" fill="#FF6A00" opacity="0.125"/><circle cx="357.5" cy="380.0" r="10.73" fill="#FF6A00" opacity="0.69"/><circle cx="357.5" cy="380.0" r="26.83" fill="#FF6A00" opacity="0.112"/><circle cx="395.8" cy="380.0" r="10.73" fill="#FF6A00" opacity="0.62"/><circle cx="395.8" cy="380.0" r="26.83" fill="#FF6A00" opacity="0.099"/><circle cx="434.2" cy="380.0" r="10.73" fill="#FF6A00" opacity="0.56"/><circle cx="434.2" cy="380.0" r="26.83" fill="#FF6A00" opacity="0.084"/><circle cx="472.5" cy="380.0" r="10.73" fill="#FF6A00" opacity="0.49"/><circle cx="510.8" cy="380.0" r="10.73" fill="#FF6A00" opacity="0.42"/><circle cx="89.2" cy="420.0" r="10.73" fill="#FF6A00" opacity="0.41"/><circle cx="127.5" cy="420.0" r="10.73" fill="#FF6A00" opacity="0.47"/><circle cx="165.8" cy="420.0" r="10.73" fill="#FF6A00" opacity="0.54"/><circle cx="204.2" cy="420.0" r="10.73" fill="#FF6A00" opacity="0.60"/><circle cx="204.2" cy="420.0" r="26.83" fill="#FF6A00" opacity="0.093"/><circle cx="242.5" cy="420.0" r="10.73" fill="#FF6A00" opacity="0.65"/><circle cx="242.5" cy="420.0" r="26.83" fill="#FF6A00" opacity="0.104"/><circle cx="280.8" cy="420.0" r="10.73" fill="#FF6A00" opacity="0.69"/><circle cx="280.8" cy="420.0" r="26.83" fill="#FF6A00" opacity="0.112"/><circle cx="319.2" cy="420.0" r="10.73" fill="#FF6A00" opacity="0.69"/><circle cx="319.2" cy="420.0" r="26.83" fill="#FF6A00" opacity="0.112"/><circle cx="357.5" cy="420.0" r="10.73" fill="#FF6A00" opacity="0.65"/><circle cx="357.5" cy="420.0" r="26.83" fill="#FF6A00" opacity="0.104"/><circle cx="395.8" cy="420.0" r="10.73" fill="#FF6A00" opacity="0.60"/><circle cx="395.8" cy="420.0" r="26.83" fill="#FF6A00" opacity="0.093"/><circle cx="434.2" cy="420.0" r="10.73" fill="#FF6A00" opacity="0.54"/><circle cx="472.5" cy="420.0" r="10.73" fill="#FF6A00" opacity="0.47"/><circle cx="510.8" cy="420.0" r="10.73" fill="#FF6A00" opacity="0.41"/><circle cx="89.2" cy="460.0" r="10.73" fill="#FF6A00" opacity="0.38"/><circle cx="127.5" cy="460.0" r="10.73" fill="#FF6A00" opacity="0.44"/><circle cx="165.8" cy="460.0" r="10.73" fill="#FF6A00" opacity="0.50"/><circle cx="204.2" cy="460.0" r="10.73" fill="#FF6A00" opacity="0.55"/><circle cx="204.2" cy="460.0" r="26.83" fill="#FF6A00" opacity="0.083"/><circle cx="242.5" cy="460.0" r="10.73" fill="#FF6A00" opacity="0.59"/><circle cx="242.5" cy="460.0" r="26.83" fill="#FF6A00" opacity="0.092"/><circle cx="280.8" cy="460.0" r="10.73" fill="#FF6A00" opacity="0.62"/><circle cx="280.8" cy="460.0" r="26.83" fill="#FF6A00" opacity="0.097"/><circle cx="319.2" cy="460.0" r="10.73" fill="#FF6A00" opacity="0.62"/><circle cx="319.2" cy="460.0" r="26.83" fill="#FF6A00" opacity="0.097"/><circle cx="357.5" cy="460.0" r="10.73" fill="#FF6A00" opacity="0.59"/><circle cx="357.5" cy="460.0" r="26.83" fill="#FF6A00" opacity="0.092"/><circle cx="395.8" cy="460.0" r="10.73" fill="#FF6A00" opacity="0.55"/><circle cx="395.8" cy="460.0" r="26.83" fill="#FF6A00" opacity="0.083"/><circle cx="434.2" cy="460.0" r="10.73" fill="#FF6A00" opacity="0.50"/><circle cx="472.5" cy="460.0" r="10.73" fill="#FF6A00" opacity="0.44"/><circle cx="510.8" cy="460.0" r="10.73" fill="#FF6A00" opacity="0.38"/><circle cx="89.2" cy="500.0" r="10.73" fill="#FF6A00" opacity="0.35"/><circle cx="127.5" cy="500.0" r="10.73" fill="#FF6A00" opacity="0.40"/><circle cx="165.8" cy="500.0" r="10.73" fill="#FF6A00" opacity="0.45"/><circle cx="204.2" cy="500.0" r="10.73" fill="#FF6A00" opacity="0.50"/><circle cx="242.5" cy="500.0" r="10.73" fill="#FF6A00" opacity="0.53"/><circle cx="280.8" cy="500.0" r="10.73" fill="#FF6A00" opacity="0.55"/><circle cx="280.8" cy="500.0" r="26.83" fill="#FF6A00" opacity="0.082"/><circle cx="319.2" cy="500.0" r="10.73" fill="#FF6A00" opacity="0.55"/><circle cx="319.2" cy="500.0" r="26.83" fill="#FF6A00" opacity="0.082"/><circle cx="357.5" cy="500.0" r="10.73" fill="#FF6A00" opacity="0.53"/><circle cx="395.8" cy="500.0" r="10.73" fill="#FF6A00" opacity="0.50"/><circle cx="434.2" cy="500.0" r="10.73" fill="#FF6A00" opacity="0.45"/><circle cx="472.5" cy="500.0" r="10.73" fill="#FF6A00" opacity="0.40"/><circle cx="510.8" cy="500.0" r="10.73" fill="#FF6A00" opacity="0.35"/><circle cx="89.2" cy="540.0" r="10.73" fill="#FF6A00" opacity="0.30"/><circle cx="127.5" cy="540.0" r="10.73" fill="#FF6A00" opacity="0.35"/><circle cx="165.8" cy="540.0" r="10.73" fill="#FF6A00" opacity="0.40"/><circle cx="204.2" cy="540.0" r="10.73" fill="#FF6A00" opacity="0.43"/><circle cx="242.5" cy="540.0" r="10.73" fill="#FF6A00" opacity="0.46"/><circle cx="280.8" cy="540.0" r="10.73" fill="#FF6A00" opacity="0.48"/><circle cx="319.2" cy="540.0" r="10.73" fill="#FF6A00" opacity="0.48"/><circle cx="357.5" cy="540.0" r="10.73" fill="#FF6A00" opacity="0.46"/><circle cx="395.8" cy="540.0" r="10.73" fill="#FF6A00" opacity="0.43"/><circle cx="434.2" cy="540.0" r="10.73" fill="#FF6A00" opacity="0.40"/><circle cx="472.5" cy="540.0" r="10.73" fill="#FF6A00" opacity="0.35"/><circle cx="510.8" cy="540.0" r="10.73" fill="#FF6A00" opacity="0.30"/><circle cx="89.2" cy="580.0" r="10.73" fill="#FF6A00" opacity="0.25"/><circle cx="127.5" cy="580.0" r="10.73" fill="#FF6A00" opacity="0.30"/><circle cx="165.8" cy="580.0" r="10.73" fill="#FF6A00" opacity="0.34"/><circle cx="204.2" cy="580.0" r="10.73" fill="#FF6A00" opacity="0.37"/><circle cx="242.5" cy="580.0" r="10.73" fill="#FF6A00" opacity="0.39"/><circle cx="280.8" cy="580.0" r="10.73" fill="#FF6A00" opacity="0.40"/><circle cx="319.2" cy="580.0" r="10.73" fill="#FF6A00" opacity="0.40"/><circle cx="357.5" cy="580.0" r="10.73" fill="#FF6A00" opacity="0.39"/><circle cx="395.8" cy="580.0" r="10.73" fill="#FF6A00" opacity="0.37"/><circle cx="434.2" cy="580.0" r="10.73" fill="#FF6A00" opacity="0.34"/><circle cx="472.5" cy="580.0" r="10.73" fill="#FF6A00" opacity="0.30"/><circle cx="510.8" cy="580.0" r="10.73" fill="#FF6A00" opacity="0.25"/><circle cx="89.2" cy="620.0" r="10.73" fill="#FF6A00" opacity="0.20"/><circle cx="127.5" cy="620.0" r="10.73" fill="#FF6A00" opacity="0.24"/><circle cx="165.8" cy="620.0" r="10.73" fill="#FF6A00" opacity="0.28"/><circle cx="204.2" cy="620.0" r="10.73" fill="#FF6A00" opacity="0.30"/><circle cx="242.5" cy="620.0" r="10.73" fill="#FF6A00" opacity="0.32"/><circle cx="280.8" cy="620.0" r="10.73" fill="#FF6A00" opacity="0.33"/><circle cx="319.2" cy="620.0" r="10.73" fill="#FF6A00" opacity="0.33"/><circle cx="357.5" cy="620.0" r="10.73" fill="#FF6A00" opacity="0.32"/><circle cx="395.8" cy="620.0" r="10.73" fill="#FF6A00" opacity="0.30"/><circle cx="434.2" cy="620.0" r="10.73" fill="#FF6A00" opacity="0.28"/><circle cx="472.5" cy="620.0" r="10.73" fill="#FF6A00" opacity="0.24"/><circle cx="510.8" cy="620.0" r="10.73" fill="#FF6A00" opacity="0.20"/></g>

  <!-- Mount holes -->
  
    <circle cx="60" cy="70" r="7" fill="none" stroke="#FF6A0060" stroke-width="1.5"/>
    <circle cx="60" cy="70" r="2" fill="#FF6A0080"/>
    <line x1="49" y1="70" x2="71" y2="70" stroke="#FF6A0040" stroke-width="0.5"/>
    <line x1="60" y1="59" x2="60" y2="81" stroke="#FF6A0040" stroke-width="0.5"/>
    <circle cx="540" cy="70" r="7" fill="none" stroke="#FF6A0060" stroke-width="1.5"/>
    <circle cx="540" cy="70" r="2" fill="#FF6A0080"/>
    <line x1="529" y1="70" x2="551" y2="70" stroke="#FF6A0040" stroke-width="0.5"/>
    <line x1="540" y1="59" x2="540" y2="81" stroke="#FF6A0040" stroke-width="0.5"/>
    <circle cx="60" cy="630" r="7" fill="none" stroke="#FF6A0060" stroke-width="1.5"/>
    <circle cx="60" cy="630" r="2" fill="#FF6A0080"/>
    <line x1="49" y1="630" x2="71" y2="630" stroke="#FF6A0040" stroke-width="0.5"/>
    <line x1="60" y1="619" x2="60" y2="641" stroke="#FF6A0040" stroke-width="0.5"/>
    <circle cx="540" cy="630" r="7" fill="none" stroke="#FF6A0060" stroke-width="1.5"/>
    <circle cx="540" cy="630" r="2" fill="#FF6A0080"/>
    <line x1="529" y1="630" x2="551" y2="630" stroke="#FF6A0040" stroke-width="0.5"/>
    <line x1="540" y1="619" x2="540" y2="641" stroke="#FF6A0040" stroke-width="0.5"/>

  <!-- Crosshair -->
  
    <line x1="286" y1="360" x2="314" y2="360" stroke="#FF6A0050" stroke-width="0.8" stroke-dasharray="2,2"/>
    <line x1="300" y1="346" x2="300" y2="374" stroke="#FF6A0050" stroke-width="0.8" stroke-dasharray="2,2"/>
    <circle cx="300" cy="360" r="3" fill="none" stroke="#FF6A0070" stroke-width="1"/>

  <!-- Alignment marks -->
  
    <line x1="292" y1="48" x2="308" y2="48" stroke="#FF6A0040" stroke-width="1"/>
    <line x1="300" y1="44" x2="300" y2="52" stroke="#FF6A0040" stroke-width="1"/>
    <line x1="292" y1="652" x2="308" y2="652" stroke="#FF6A0040" stroke-width="1"/>
    <line x1="300" y1="648" x2="300" y2="656" stroke="#FF6A0040" stroke-width="1"/>

  <!-- Special overlay -->
  

  <!-- Top label -->
  <text x="40" y="34" font-family="'Courier New',monospace" font-size="11" fill="#FF6A00" opacity="0.9" letter-spacing="3">ATEMPO DVLED · DX</text>
  <text x="560" y="34" font-family="'Courier New',monospace" font-size="10" fill="#FF6A00" opacity="0.5" letter-spacing="2" text-anchor="end">FRONT VIEW</text>

  <!-- Bottom labels -->
  <text x="40" y="684" font-family="'Courier New',monospace" font-size="10" fill="#FF6A00" opacity="0.6" letter-spacing="1.5">PIXEL PITCH: 2.6 – 3.9 mm</text>
  <text x="560" y="684" font-family="'Courier New',monospace" font-size="10" fill="#FF6A00" opacity="0.4" letter-spacing="1.5" text-anchor="end">EVENT · RENTAL · IP54</text>

  <!-- Corner brackets -->
  <path d="M34,74 L34,44 L64,44" fill="none" stroke="#FF6A00" stroke-opacity="0.35" stroke-width="1.5"/>
  <path d="M536,44 L566,44 L566,74" fill="none" stroke="#FF6A00" stroke-opacity="0.35" stroke-width="1.5"/>
  <path d="M34,626 L34,656 L64,656" fill="none" stroke="#FF6A00" stroke-opacity="0.35" stroke-width="1.5"/>
  <path d="M536,656 L566,656 L566,626" fill="none" stroke="#FF6A00" stroke-opacity="0.35" stroke-width="1.5"/>

  <!-- Brightness badge -->
  <rect x="470" y="10" width="120" height="20" rx="2" fill="#FF6A00" fill-opacity="0.12" stroke="#FF6A00" stroke-opacity="0.3" stroke-width="0.8"/>
  <text x="530" y="24" font-family="'Courier New',monospace" font-size="10" fill="#FF6A00" opacity="0.8" text-anchor="middle" letter-spacing="1">4500 nit</text>
</svg>