<svg xmlns="http://www.w3.org/2000/svg" width="300" height="700" viewBox="0 0 300 700">
  <defs>
    <linearGradient id="bodyGrad" x1="0" y1="0" x2="1" y2="0">
      <stop offset="0%" stop-color="#141520"/>
      <stop offset="100%" stop-color="#0d0e16"/>
    </linearGradient>
    <linearGradient id="faceGrad" x1="0" y1="0" x2="1" y2="0">
      <stop offset="0%" stop-color="#9333EA" stop-opacity="0.9"/>
      <stop offset="100%" stop-color="#B76AF2" stop-opacity="0.6"/>
    </linearGradient>
  </defs>

  <rect width="300" height="700" fill="#08090d"/>
  <line x1="0" y1="0" x2="300" y2="0" stroke="#9333EA" stroke-opacity="0.015" stroke-width="1"/><line x1="0" y1="20" x2="300" y2="20" stroke="#9333EA" stroke-opacity="0.015" stroke-width="1"/><line x1="0" y1="40" x2="300" y2="40" stroke="#9333EA" stroke-opacity="0.015" stroke-width="1"/><line x1="0" y1="60" x2="300" y2="60" stroke="#9333EA" stroke-opacity="0.015" stroke-width="1"/><line x1="0" y1="80" x2="300" y2="80" stroke="#9333EA" stroke-opacity="0.015" stroke-width="1"/><line x1="0" y1="100" x2="300" y2="100" stroke="#9333EA" stroke-opacity="0.015" stroke-width="1"/><line x1="0" y1="120" x2="300" y2="120" stroke="#9333EA" stroke-opacity="0.015" stroke-width="1"/><line x1="0" y1="140" x2="300" y2="140" stroke="#9333EA" stroke-opacity="0.015" stroke-width="1"/><line x1="0" y1="160" x2="300" y2="160" stroke="#9333EA" stroke-opacity="0.015" stroke-width="1"/><line x1="0" y1="180" x2="300" y2="180" stroke="#9333EA" stroke-opacity="0.015" stroke-width="1"/><line x1="0" y1="200" x2="300" y2="200" stroke="#9333EA" stroke-opacity="0.015" stroke-width="1"/><line x1="0" y1="220" x2="300" y2="220" stroke="#9333EA" stroke-opacity="0.015" stroke-width="1"/><line x1="0" y1="240" x2="300" y2="240" stroke="#9333EA" stroke-opacity="0.015" stroke-width="1"/><line x1="0" y1="260" x2="300" y2="260" stroke="#9333EA" stroke-opacity="0.015" stroke-width="1"/><line x1="0" y1="280" x2="300" y2="280" stroke="#9333EA" stroke-opacity="0.015" stroke-width="1"/><line x1="0" y1="300" x2="300" y2="300" stroke="#9333EA" stroke-opacity="0.015" stroke-width="1"/><line x1="0" y1="320" x2="300" y2="320" stroke="#9333EA" stroke-opacity="0.015" stroke-width="1"/><line x1="0" y1="340" x2="300" y2="340" stroke="#9333EA" stroke-opacity="0.015" stroke-width="1"/><line x1="0" y1="360" x2="300" y2="360" stroke="#9333EA" stroke-opacity="0.015" stroke-width="1"/><line x1="0" y1="380" x2="300" y2="380" stroke="#9333EA" stroke-opacity="0.015" stroke-width="1"/><line x1="0" y1="400" x2="300" y2="400" stroke="#9333EA" stroke-opacity="0.015" stroke-width="1"/><line x1="0" y1="420" x2="300" y2="420" stroke="#9333EA" stroke-opacity="0.015" stroke-width="1"/><line x1="0" y1="440" x2="300" y2="440" stroke="#9333EA" stroke-opacity="0.015" stroke-width="1"/><line x1="0" y1="460" x2="300" y2="460" stroke="#9333EA" stroke-opacity="0.015" stroke-width="1"/><line x1="0" y1="480" x2="300" y2="480" stroke="#9333EA" stroke-opacity="0.015" stroke-width="1"/><line x1="0" y1="500" x2="300" y2="500" stroke="#9333EA" stroke-opacity="0.015" stroke-width="1"/><line x1="0" y1="520" x2="300" y2="520" stroke="#9333EA" stroke-opacity="0.015" stroke-width="1"/><line x1="0" y1="540" x2="300" y2="540" stroke="#9333EA" stroke-opacity="0.015" stroke-width="1"/><line x1="0" y1="560" x2="300" y2="560" stroke="#9333EA" stroke-opacity="0.015" stroke-width="1"/><line x1="0" y1="580" x2="300" y2="580" stroke="#9333EA" stroke-opacity="0.015" stroke-width="1"/><line x1="0" y1="600" x2="300" y2="600" stroke="#9333EA" stroke-opacity="0.015" stroke-width="1"/><line x1="0" y1="620" x2="300" y2="620" stroke="#9333EA" stroke-opacity="0.015" stroke-width="1"/><line x1="0" y1="640" x2="300" y2="640" stroke="#9333EA" stroke-opacity="0.015" stroke-width="1"/><line x1="0" y1="660" x2="300" y2="660" stroke="#9333EA" stroke-opacity="0.015" stroke-width="1"/><line x1="0" y1="680" x2="300" y2="680" stroke="#9333EA" stroke-opacity="0.015" stroke-width="1"/>

  <!-- Cabinet body -->
  <rect x="42" y="50" width="50" height="600" fill="url(#bodyGrad)" stroke="#9333EA" stroke-opacity="0.2" stroke-width="1" rx="1"/>

  <!-- LED face strip -->
  <rect x="30" y="50" width="12" height="600" fill="url(#faceGrad)" rx="1"/>
  <rect x="30" y="50" width="12" height="600" fill="none" stroke="#9333EA" stroke-opacity="0.6" stroke-width="0.8" rx="1"/>

  <!-- Face glow -->
  <rect x="22" y="100" width="8" height="500" fill="#9333EA" fill-opacity="0.05"/>

  <!-- Internal structure lines -->
  <line x1="62" y1="60" x2="62" y2="640" stroke="#9333EA" stroke-opacity="0.05" stroke-width="1" stroke-dasharray="4,8"/>
  <line x1="72" y1="60" x2="72" y2="640" stroke="#9333EA" stroke-opacity="0.04" stroke-width="1" stroke-dasharray="4,8"/>

  <!-- Special elements -->
  <circle cx="67" cy="200" r="3" fill="none" stroke="#9333EA25" stroke-width="1"/><circle cx="67" cy="350" r="3" fill="none" stroke="#9333EA25" stroke-width="1"/><circle cx="67" cy="500" r="3" fill="none" stroke="#9333EA25" stroke-width="1"/>

  <!-- Connector bump -->
  
    <rect x="92" y="550" width="8" height="40" rx="2" fill="#0c0d15" stroke="#9333EA30" stroke-width="1"/>
    <text x="104" y="574" font-family="'Courier New',monospace" font-size="7" fill="#9333EA" opacity="0.35" letter-spacing="0.5">I/O</text>

  <!-- Dimension arrows -->
  
    <line x1="30" y1="680" x2="92" y2="680" stroke="#9333EA" stroke-opacity="0.5" stroke-width="1"/>
    <line x1="30" y1="675" x2="30" y2="685" stroke="#9333EA" stroke-opacity="0.5" stroke-width="1"/>
    <line x1="92" y1="675" x2="92" y2="685" stroke="#9333EA" stroke-opacity="0.5" stroke-width="1"/>
    <text x="61" y="696" font-family="'Courier New',monospace" font-size="9" fill="#9333EA" opacity="0.6" text-anchor="middle" letter-spacing="1">55mm</text>
  
    <line x1="14" y1="50" x2="14" y2="650" stroke="#9333EA" stroke-opacity="0.35" stroke-width="1"/>
    <line x1="10" y1="50" x2="18" y2="50" stroke="#9333EA" stroke-opacity="0.35" stroke-width="1"/>
    <line x1="10" y1="650" x2="18" y2="650" stroke="#9333EA" stroke-opacity="0.35" stroke-width="1"/>
    <text x="6" y="354" font-family="'Courier New',monospace" font-size="8" fill="#9333EA" opacity="0.35" text-anchor="middle" transform="rotate(-90,6,354)" letter-spacing="1">500mm</text>

  <!-- Labels -->
  <text x="67" y="34" font-family="'Courier New',monospace" font-size="11" fill="#9333EA" opacity="0.9" text-anchor="middle" letter-spacing="2">FX</text>
  <text x="67" y="46" font-family="'Courier New',monospace" font-size="8" fill="#9333EA" opacity="0.45" text-anchor="middle" letter-spacing="2">SIDE VIEW</text>

  <!-- Face label -->
  <text x="52" y="350" font-family="'Courier New',monospace" font-size="7" fill="#9333EA" opacity="0.5" writing-mode="tb" letter-spacing="2">LED FACE</text>

  <text x="67" y="692" font-family="'Courier New',monospace" font-size="9" fill="#9333EA" opacity="0.4" text-anchor="middle" letter-spacing="1">IP30 · 55mm DEPTH</text>
</svg>